<svg width="144" height="144" fill="none" xmlns="http://www.w3.org/2000/svg">
  <path d="M52.286 26h-23.75a6.786 6.786 0 0 0-6.786 6.786v50.893a6.786 6.786 0 0 0 6.786 6.785h23.75a6.786 6.786 0 0 0 6.785-6.785V32.786A6.786 6.786 0 0 0 52.286 26z" fill="#fff" stroke="#2B2D33" stroke-width="3.393"/>
  <path d="M40.41 86.223a3.393 3.393 0 1 0 0-6.785 3.393 3.393 0 0 0 0 6.785z" fill="#fff" stroke="#2B2D33" stroke-width="1.696"/>
  <path d="M47.196 31.09H33.625a.848.848 0 1 0 0 1.696h13.571a.848.848 0 1 0 0-1.697z" fill="#2B2D33"/>
  <path d="M40.411 67.563c5.621 0 10.179-4.558 10.179-10.18 0-5.62-4.558-10.178-10.179-10.178-5.622 0-10.179 4.557-10.179 10.179 0 5.621 4.557 10.178 10.179 10.178z" fill="#3640F5"/>
  <path fill-rule="evenodd" clip-rule="evenodd" d="m43.945 53.581-4.977 5.282-1.244-1.32a1.354 1.354 0 0 0-1.99 0 1.56 1.56 0 0 0 0 2.113l2.24 2.379a1.35 1.35 0 0 0 1.99 0l5.972-6.34a1.56 1.56 0 0 0 0-2.114 1.348 1.348 0 0 0-1.99 0z" fill="#F7F9FA"/>
  <path d="M121.839 56.536H53.982a6.786 6.786 0 0 0-6.786 6.785v40.715a6.786 6.786 0 0 0 6.786 6.785h67.857a6.786 6.786 0 0 0 6.786-6.785V63.321a6.786 6.786 0 0 0-6.786-6.785z" fill="#fff"/>
  <path d="M53.982 59.928a3.393 3.393 0 0 0-3.393 3.393v40.715a3.394 3.394 0 0 0 3.393 3.393h67.857a3.394 3.394 0 0 0 3.393-3.393V63.321a3.393 3.393 0 0 0-3.393-3.392H53.982zm0-3.392h67.857a6.786 6.786 0 0 1 6.786 6.785v40.715a6.786 6.786 0 0 1-6.786 6.785H53.982a6.786 6.786 0 0 1-6.786-6.785V63.321a6.786 6.786 0 0 1 6.786-6.785zm52.59 61.071H69.25a1.697 1.697 0 0 0 0 3.393h37.322a1.696 1.696 0 0 0 0-3.393z" fill="#2B2D33"/>
  <path fill-rule="evenodd" clip-rule="evenodd" d="M68.402 102.339h39.018a.848.848 0 0 1 0 1.697H68.402a.849.849 0 0 1 0-1.697z" fill="#2B2D33"/>
  <path d="M89.607 109.125a1.697 1.697 0 1 0-3.393 0v10.178a1.697 1.697 0 1 0 3.393 0v-10.178z" fill="#2B2D33"/>
  <path d="M75.293 66.183c2.004-7.956-2.768-16.222-10.66-18.463-3.947-1.121-7.926-.524-11.168 1.349" stroke="#2B2D33" stroke-width="2.545" stroke-linecap="round" stroke-linejoin="round"/>
  <path d="m78.824 66.166-4.407 2.545-2.545-4.408" stroke="#2B2D33" stroke-width="2.545" stroke-linecap="round" stroke-linejoin="round"/>
</svg>
