<svg xmlns="http://www.w3.org/2000/svg" xmlns:xlink="http://www.w3.org/1999/xlink" width="144" height="144" xmlns:v="https://vecta.io/nano"><defs><rect id="A" width="48" height="80" rx="8"/><circle id="B" cx="24" cy="69" r="5"/><rect id="C" width="96" height="64" rx="8"/></defs><g fill="none" fill-rule="evenodd"><g transform="translate(10 10)"><use fill="#fff" xlink:href="#A"/><rect stroke="#2c3e4f" stroke-width="4" x="2" y="2" width="44" height="76" rx="8"/><use fill="#fff" xlink:href="#B"/><circle stroke="#283e4f" stroke-width="2" cx="24" cy="69" r="4"/><rect fill="#2c3e4f" x="15" y="8" width="18" height="2" rx="1"/></g><circle fill="#353ff4" cx="34" cy="49" r="12"/><path d="M38.17 44.52l-5.87 6.22-1.47-1.55c-.65-.7-1.7-.7-2.34 0-.66.68-.66 1.8 0 2.48l2.63 2.8c.64.7 1.7.7 2.34 0L40.5 47c.66-.68.66-1.8 0-2.48-.63-.7-1.68-.7-2.33 0z" fill="#fff"/><g transform="translate(42 48)"><use fill="#fff" xlink:href="#C"/><rect stroke="#2c3e4f" stroke-width="4" x="2" y="2" width="92" height="60" rx="8"/><g fill="#2c3e4f"><rect x="24" y="72" width="48" height="4" rx="2"/><path d="M25 54h46c.55 0 1 .45 1 1s-.45 1-1 1H25c-.55 0-1-.45-1-1s.45-1 1-1z"/><rect x="46" y="60" width="4" height="16" rx="2"/></g></g><path d="M75.12 59.37C77.5 50 71.86 40.25 62.56 37.6c-4.66-1.3-9.35-.6-13.17 1.6M79.3 59.35l-5.2 3-3-5.2" stroke="#2c3e4f" stroke-linecap="round" stroke-linejoin="round" stroke-width="3"/></g></svg>