<svg width="144" height="144" xmlns="http://www.w3.org/2000/svg" xmlns:xlink="http://www.w3.org/1999/xlink">
  <defs>
    <rect id="a" width="48" height="80" rx="8"/>
    <rect id="c" width="96" height="64" rx="8"/>
    <circle id="b" cx="24" cy="69" r="5"/>
  </defs>
  <g fill="none" fill-rule="evenodd">
    <circle cx="72" cy="72" r="72"/>
    <g transform="translate(10 10)">
      <use fill="#FFF" xlink:href="#a"/>
      <rect stroke="#2C3E4F" stroke-width="4" x="2" y="2" width="44" height="76" rx="8"/>
      <use fill="#FFF" xlink:href="#b"/>
      <circle stroke="#283E4F" stroke-width="2" cx="24" cy="69" r="4"/>
      <rect fill="#2C3E4F" x="15" y="8" width="18" height="2" rx="1"/>
    </g>
    <g transform="translate(22 37)">
      <circle fill="#353FF4" cx="12" cy="12" r="12"/>
      <path d="m16.17 7.52-5.87 6.22-1.47-1.55c-.65-.7-1.7-.7-2.34 0a1.8 1.8 0 0 0 0 2.48l2.63 2.8c.64.7 1.7.7 2.34 0L18.5 10a1.8 1.8 0 0 0 0-2.48c-.63-.7-1.68-.7-2.33 0z" fill="#FFF"/>
    </g>
    <g transform="translate(42 48)">
      <use fill="#FFF" xlink:href="#c"/>
      <rect stroke="#2C3E4F" stroke-width="4" x="2" y="2" width="92" height="60" rx="8"/>
      <rect fill="#2C3E4F" x="24" y="72" width="48" height="4" rx="2"/>
      <path d="M25 54h46c.55 0 1 .45 1 1s-.45 1-1 1H25c-.55 0-1-.45-1-1s.45-1 1-1z" fill="#2C3E4F"/>
      <rect fill="#2C3E4F" x="46" y="60" width="4" height="16" rx="2"/>
    </g>
    <g stroke="#2C3E4F" stroke-width="3" stroke-linecap="round" stroke-linejoin="round">
      <path d="M75.12 59.37C77.5 50 71.86 40.25 62.56 37.6c-4.66-1.3-9.35-.6-13.17 1.6"/>
      <path d="m79.3 59.35-5.2 3-3-5.2"/>
    </g>
  </g>
</svg>
