<svg width="109px" height="96px" version="1.1" xmlns="http://www.w3.org/2000/svg" xmlns:xlink="http://www.w3.org/1999/xlink">
    <title>Camera tick</title>
    <g id="Web-pending" stroke="none" stroke-width="1" fill="none" fill-rule="evenodd">
        <g id="[]-web-desktop_013" transform="translate(-201.000000, -216.000000)">
            <g id="Camera-tick" transform="translate(201.000000, 216.000000)">
                <g>
                    <path d="M56.9624165,94.3540462 L5.22590977,94.3540462 C2.3397195,94.3540462 0,92.0071716 0,89.112155 L0,20.9675701 C0,18.0725536 2.3397195,15.7256789 5.22590977,15.7256789 L23.9660222,15.7256789 L38.11256,1.53587961 C39.0910724,0.550805552 40.4209357,-0.0020113554 41.8072782,1.42108547e-14 L62.7109173,1.42108547e-14 C64.0972598,-0.0020113554 65.4271231,0.550805552 66.4056355,1.53587961 L80.5521732,15.7256789 L99.2922857,15.7256789 C102.178476,15.7256789 104.518195,18.0725536 104.518195,20.9675701 L104.518195,50.8463496 L94.0663759,50.8463496 L94.0663759,26.2094612 L78.3886466,26.2094612 C77.0023041,26.2114781 75.6724408,25.6586612 74.6939284,24.6735871 L60.5473906,10.4837878 L43.9708048,10.4837878 L29.8242671,24.6735871 C28.8470219,25.6590627 27.5196409,26.2094612 26.1295489,26.2094612 L10.4518195,26.2094612 L10.4518195,83.8702639 L56.9624165,83.8702639 L56.9624165,94.3540462 Z M52.2590977,31.4513524 C63.5888701,31.4513524 73.1627368,41.054497 73.1627368,52.418917 C73.1627368,63.783337 63.5888701,73.3864816 52.2590977,73.3864816 C40.9293253,73.3864816 31.3554586,63.783337 31.3554586,52.418917 C31.3554586,41.054497 40.9293253,31.4513524 52.2590977,31.4513524 Z M52.2590977,62.9026993 C57.8246916,62.9026993 62.7109173,58.0015311 62.7109173,52.418917 C62.7109173,46.8363029 57.8246916,41.9351347 52.2590977,41.9351347 C46.6935038,41.9351347 41.8072782,46.8363029 41.8072782,52.418917 C41.8072782,58.0015311 46.6935038,62.9026993 52.2590977,62.9026993 Z" id="Camera" fill="#5C6CFF"></path>
                    <polygon id="Path" fill="#25CF5E" points="78.3886466 81.1759318 71.6315453 74.3981666 64.2421088 81.8102007 78.3886466 96 108.212914 66.0845272 100.823477 58.6724931"></polygon>
                </g>
            </g>
        </g>
    </g>
</svg>
