<svg width="109" height="96" xmlns="http://www.w3.org/2000/svg">
  <g fill="none" fill-rule="evenodd">
    <path d="M56.962 94.354H5.226C2.34 94.354 0 92.007 0 89.112V20.968c0-2.895 2.34-5.242 5.226-5.242h18.74l14.147-14.19A5.197 5.197 0 0 1 41.807 0h20.904a5.197 5.197 0 0 1 3.695 1.536l14.146 14.19h18.74c2.886 0 5.226 2.347 5.226 5.242v29.878H94.066V26.21H78.39a5.197 5.197 0 0 1-3.695-1.535l-14.147-14.19H43.971l-14.147 14.19a5.195 5.195 0 0 1-3.694 1.535H10.452V83.87h46.51v10.484zM52.26 31.451c11.33 0 20.904 9.603 20.904 20.968 0 11.364-9.574 20.967-20.904 20.967S31.355 63.783 31.355 52.42c0-11.365 9.574-20.968 20.904-20.968zm0 31.452c5.566 0 10.452-4.901 10.452-10.484s-4.886-10.484-10.452-10.484c-5.565 0-10.452 4.901-10.452 10.484s4.887 10.484 10.452 10.484z" fill="#5C6CFF"/>
    <path fill="#25CF5E" d="m78.389 81.176-6.757-6.778-7.39 7.412L78.39 96l29.824-29.915-7.39-7.413z"/>
  </g>
</svg>
