<svg width="78" height="96" fill="none" xmlns="http://www.w3.org/2000/svg">
  <path d="M38.305.12c-10.27.496-18.344 8.923-18.358 19.16v28.77c0 10.578 8.64 19.18 19.264 19.18 10.623 0 19.263-8.602 19.263-19.18V19.28C58.474 8.65 49.878 0 39.312 0c-.337 0-.675.043-1.007.12Zm10.537 19.16v28.77c0 5.29-4.32 9.59-9.631 9.59-5.312 0-9.632-4.3-9.632-9.59V19.28c0-5.288 4.32-9.59 9.632-9.59.263 0 .526-.023.785-.071 4.936.36 8.846 4.555 8.846 9.662Zm-14.447 66.8V96h9.631v-9.92c18.97-2.374 33.71-18.5 33.71-38.03h-9.63c0 15.867-12.96 28.77-28.895 28.77-15.936 0-28.895-12.903-28.895-28.77H.684c0 19.525 14.741 35.656 33.71 38.03Z" fill="#5C6CFF"/>
</svg>
