<svg width="27" height="27" xmlns="http://www.w3.org/2000/svg" xmlns:xlink="http://www.w3.org/1999/xlink"><defs><path id="a" d="M.03 0H26.62v26.592H.029z"/></defs><g fill="none" fill-rule="evenodd"><mask id="b" fill="#fff"><use xlink:href="#a"/></mask><path d="M25 14c0 6.627-5.373 12-12 12S1 20.627 1 14 6.373 2 13 2s12 5.373 12 12" fill="#353FF4" mask="url(#b)"/><path d="M21.358 10.334l-3.62 3.191c-.507.446-.507 1.172 0 1.618l3.62 3.19v-8zM16 17.367c0 .749-.552 1.356-1.234 1.356H6.234c-.682 0-1.234-.607-1.234-1.356V10.08c0-.749.552-1.357 1.234-1.357h8.532c.682 0 1.234.608 1.234 1.357v7.287z" fill="#FEFEFE" mask="url(#b)"/></g></svg>
