<svg width="54" height="54" xmlns="http://www.w3.org/2000/svg">
  <g fill="none" fill-rule="evenodd">
    <circle fill="#E61C1C" cx="27" cy="27" r="27"/>
    <path d="m38.223 13.17 2.608 2.607c.576.576.576 1.51 0 2.086l-9.138 9.136 9.138 9.138c.576.576.576 1.51 0 2.086l-2.608 2.608a1.475 1.475 0 0 1-2.086 0L27 31.693l-9.136 9.138a1.475 1.475 0 0 1-2.086 0l-2.608-2.608a1.475 1.475 0 0 1 0-2.086L22.306 27l-9.137-9.136a1.475 1.475 0 0 1 0-2.086l2.608-2.608a1.475 1.475 0 0 1 2.086 0l9.136 9.137 9.138-9.137a1.475 1.475 0 0 1 2.086 0z" fill="#FFF"/>
  </g>
</svg>
