<svg width="112" height="24" viewBox="0 0 112 24" xmlns="http://www.w3.org/2000/svg">
  <title>
    powered-by-onfido
  </title>
  <g fill="#8A9293" fill-rule="evenodd" opacity=".5">
    <path d="M72.6 14.91c1.028.062 2.005-.45 2.537-1.332.532-.88.532-1.985 0-2.866-.532-.88-1.51-1.394-2.537-1.332-1.028-.062-2.005.45-2.537 1.332-.532.88-.532 1.985 0 2.866.532.88 1.51 1.394 2.537 1.332zm15.33-5.42h-2.57V9c0-.67.18-1.27 1-1.27H87V6.61h-.61c-.64-.063-1.275.174-1.72.64-.442.468-.645 1.113-.55 1.75v.49h-1v1h1v4.31h1.24v-4.34h2.57v4.34h1.22V9.49h-1.22zm-15.29 4.33c-.438.005-.86-.167-1.17-.478-.308-.31-.478-.734-.47-1.172 0-.933.757-1.69 1.69-1.69.933 0 1.69.757 1.69 1.69.01.45-.17.882-.49 1.194-.324.313-.76.478-1.21.456h-.04zM78.1 12c-.034-.388.105-.77.382-1.046.276-.274.66-.41 1.048-.374.72 0 1.17.48 1.17 1.32v3h1.23v-3.15c0-1.5-.78-2.33-2.13-2.33-.69-.01-1.335.332-1.71.91v-.8h-1.22v5.31h1.23V12zm9.62-4.82c.01.207.103.4.256.54.154.14.357.21.564.2.41 0 .74-.33.74-.74s-.33-.74-.74-.74c-.207-.01-.41.06-.564.2-.153.14-.246.333-.256.54zm7.47 7.63h1.22v-8.2h-1.22v3.65c-.44-.594-1.153-.923-1.89-.87-.743-.025-1.463.258-1.99.783-.527.525-.813 1.244-.79 1.987-.017.74.27 1.455.797 1.977.526.522 1.243.805 1.983.783.744.03 1.454-.316 1.89-.92v.81zm0-2.67c0 .933-.757 1.69-1.69 1.69-.933 0-1.69-.757-1.69-1.69-.006-.44.17-.862.486-1.167.317-.305.745-.465 1.184-.443.443-.022.875.138 1.197.44.323.305.508.727.513 1.17zm8.43 0c.057-1.19-.616-2.297-1.7-2.794-1.084-.497-2.36-.285-3.226.536-.866.82-1.145 2.085-.705 3.194.438 1.108 1.507 1.84 2.7 1.844.764.047 1.514-.225 2.07-.753.555-.527.867-1.26.86-2.027zM63.05 9.49c-.812-.877-1.955-1.374-3.15-1.37-1.087-.027-2.14.38-2.925 1.13-.786.75-1.24 1.783-1.265 2.87.11 2.232 1.95 3.985 4.185 3.985 2.235 0 4.076-1.753 4.185-3.985v-.1c.002-.07.03-.14.08-.19l1.34-1.27c.01-.022.03-.036.055-.036.024 0 .045.014.055.036v.15c.12.457.182.927.18 1.4-.13 3.172-2.74 5.677-5.915 5.677s-5.785-2.505-5.915-5.677c.042-1.536.694-2.992 1.813-4.045 1.12-1.053 2.61-1.616 4.147-1.565 1.64-.015 3.217.643 4.36 1.82l1.49-1.42c.063-.056.146-.085.23-.08h1.82c.25 0 .31.14.13.31L60 14.61c-.09.08-.23.08-.32 0l-2.23-2c-.047-.05-.075-.113-.08-.18v-1.74c0-.24.14-.3.32-.13l2.07 1.86c.046.04.114.04.16 0L63 9.49h.05zm37.62 4.29c-.444.014-.873-.155-1.19-.467-.315-.312-.488-.74-.48-1.183 0-.933.757-1.69 1.69-1.69.933 0 1.69.757 1.69 1.69.01.45-.17.882-.49 1.194-.324.313-.76.478-1.21.456h-.01z" fill-rule="nonzero"/>
    <text font-family="OpenSans, Open Sans" font-size="7.77">
      <tspan x="8" y="13.99">powered by</tspan>
    </text>
    <path d="M108 1c1.657 0 3 1.343 3 3v16c0 1.657-1.343 3-3 3H4c-1.657 0-3-1.343-3-3V4c0-1.657 1.343-3 3-3h104zm0-1H4C1.79 0 0 1.79 0 4v16c0 2.21 1.79 4 4 4h104c2.21 0 4-1.79 4-4V4c0-2.21-1.79-4-4-4z" fill-rule="nonzero"/>
  </g>
</svg>
