<?xml version="1.0" encoding="UTF-8" standalone="no"?>
<svg width="109px" height="23px" viewBox="0 0 109 23" version="1.1" xmlns="http://www.w3.org/2000/svg" xmlns:xlink="http://www.w3.org/1999/xlink">
    <!-- Generator: sketchtool 3.8.3 (29802) - http://www.bohemiancoding.com/sketch -->
    <title>B0C1F3F5-ACA4-4559-9115-540CB810D458</title>
    <desc>Created with sketchtool.</desc>
    <defs>
        <rect id="path-1" x="0" y="0.00851075359" width="108.871354" height="22.0104878" rx="3"></rect>
        <mask id="mask-2" maskContentUnits="userSpaceOnUse" maskUnits="objectBoundingBox" x="0" y="0" width="108.871354" height="22.0104878" fill="white">
            <use xlink:href="#path-1"></use>
        </mask>
    </defs>
    <g id="Page-1" stroke="none" stroke-width="1" fill="none" fill-rule="evenodd">
        <g id="01" transform="translate(-663.000000, -771.000000)">
            <rect id="Rectangle-160" fill="#F3F3F3" x="469" y="212" width="500" height="600" rx="3"></rect>
            <g id="Powered-by-Onfido" transform="translate(663.000000, 771.000000)">
                <path d="M71.6045005,13.9209592 C73.1935808,13.9209592 74.5317537,12.8190103 74.5317537,11.1376863 C74.5317537,9.45636218 73.1935808,8.38849419 71.6045005,8.38849419 C70.0273682,8.38849419 68.7011433,9.45636218 68.7011433,11.1376863 C68.7011433,12.8190103 70.0273682,13.9209592 71.6045005,13.9209592 L71.6045005,13.9209592 L71.6045005,13.9209592 Z M86.9314726,8.50192423 L84.3649347,8.50209716 L84.3649347,8.01360436 C84.3649347,7.34334679 84.5441543,6.741251 85.3566164,6.741251 L85.965963,6.741251 L85.965963,5.61658152 L85.3566164,5.61658152 C83.827276,5.61658152 83.1223456,6.55948624 83.1223456,8.01360436 L83.1223456,8.50209716 L82.1063801,8.50209716 L82.1063801,9.46772248 L83.1223456,9.46772248 L83.1223456,13.8073562 L84.3649347,13.8073562 L84.3649347,9.46772248 L86.9314726,9.46772248 L86.9314726,13.8073562 L88.1501657,13.8073562 L88.1501657,8.50187059 L86.9314726,8.50187059 L86.9314726,8.50192423 Z M71.6369327,12.8271266 C70.7169388,12.8271266 69.9522686,12.1795897 69.9522686,11.1798835 C69.9522686,10.2028978 70.7169388,9.57808146 71.6369327,9.57808146 C72.5688745,9.57808146 73.3335447,10.2028978 73.3335447,11.1798835 C73.3335447,12.1795897 72.5688745,12.8271266 71.6369327,12.8271266 L71.6369327,12.8271266 Z M77.09732,10.9957606 C77.09732,9.95061317 77.8022504,9.57572334 78.5310767,9.57572334 C79.247955,9.57572334 79.701978,10.0528558 79.701978,10.8935179 L79.701978,13.8471953 L80.9326191,13.8471953 L80.9326191,10.7571943 C80.9326191,9.257635 80.1560009,8.42833326 78.80588,8.42833326 C78.1845855,8.42833326 77.4199153,8.723701 77.09732,9.33715708 L77.09732,8.54193624 L75.8666789,8.54193624 L75.8666789,13.8471953 L77.09732,13.8471953 L77.09732,10.9957606 L77.09732,10.9957606 Z M86.7164091,6.17872514 C86.7164091,6.59905616 87.0987442,6.9171445 87.5408192,6.9171445 C87.9948421,6.9171445 88.3532813,6.59905616 88.3532813,6.17872514 C88.3532813,5.75839412 87.9948421,5.44030578 87.5408192,5.44030578 C87.0987442,5.44030578 86.7164091,5.75839412 86.7164091,6.17872514 L86.7164091,6.17872514 Z M94.1869752,13.8073562 L95.4056683,13.8073562 L95.4056683,5.61658152 L94.1869752,5.61658152 L94.1869752,9.26323712 C93.840484,8.68386193 93.0877618,8.38849419 92.2991956,8.38849419 C90.7937511,8.38849419 89.5153181,9.45636218 89.5153181,11.1604069 C89.5153181,12.8303706 90.7937511,13.9209592 92.2991956,13.9209592 C93.0638658,13.9209592 93.840484,13.6028709 94.1869752,13.034856 L94.1869752,13.8073562 L94.1869752,13.8073562 Z M94.1630793,11.1376863 C94.1630793,12.1714734 93.3625651,12.7849294 92.4545192,12.7849294 C91.5225774,12.7849294 90.7818031,12.1146719 90.7818031,11.1376863 C90.7818031,10.1607006 91.5225774,9.52452397 92.4545192,9.52452397 C93.2908773,9.52452397 94.1630793,10.0925389 94.1630793,11.1376863 L94.1630793,11.1376863 Z M102.595264,11.1376863 C102.595264,9.45636218 101.257091,8.38849419 99.6680108,8.38849419 C98.0908785,8.38849419 96.7646536,9.45636218 96.7646536,11.1376863 C96.7646536,12.8190103 98.0908785,13.9209592 99.6680108,13.9209592 C101.257091,13.9209592 102.595264,12.8190103 102.595264,11.1376863 L102.595264,11.1376863 Z M62.0506072,8.4936649 C61.283336,7.65833059 60.1549203,7.13060169 58.8968708,7.13060169 C56.5852373,7.13060169 54.7112881,8.91237858 54.7112881,11.1103118 C54.7112881,13.3082449 56.5852373,15.0900218 58.8968708,15.0900218 C61.2085042,15.0900218 63.0824534,13.3082449 63.0824534,11.1103118 C63.0824534,11.0394937 63.0804937,11.0080214 63.0804937,11.0080214 C63.0784965,10.9473238 63.1126943,10.8649421 63.1571387,10.8226838 L64.4929757,9.55255148 C64.5379262,9.50981185 64.5877355,9.52289552 64.6053584,9.58069962 C64.6053584,9.58069962 64.6267875,9.6482133 64.650259,9.73555617 C64.7702431,10.1820429 64.8340289,10.6499092 64.8340289,11.1319407 C64.8340289,14.2377159 62.1860572,16.7554442 58.9196186,16.7554442 C55.6531799,16.7554442 53.0052082,14.2377159 53.0052082,11.1319407 C53.0052082,8.02616549 55.6531799,5.50843722 58.9196186,5.50843722 C60.6434589,5.50843722 62.1950483,6.20965662 63.2760838,7.32846475 L64.7692695,5.90872299 C64.813329,5.8668306 64.8989338,5.83287011 64.9626423,5.83287011 L66.7826753,5.83287011 C67.0339001,5.83287011 67.0934933,5.96984895 66.915312,6.13926628 L59.0479212,13.6196907 C58.9588875,13.7043452 58.8154719,13.7052355 58.7265936,13.6207288 L56.4981236,11.6100129 C56.4535235,11.5676065 56.417368,11.4857957 56.417368,11.4252207 L56.417368,9.6947081 C56.417368,9.45583999 56.5608038,9.39857982 56.7389248,9.5679398 L58.8059559,11.4251574 C58.850556,11.4675637 58.9232404,11.4672087 58.9664883,11.426088 L62.0506072,8.4936649 L62.0506072,8.4936649 Z M99.6680108,12.7849294 C98.748017,12.7849294 97.9833468,12.1373925 97.9833468,11.1376863 C97.9833468,10.1607006 98.748017,9.53588427 99.6680108,9.53588427 C100.599953,9.53588427 101.364623,10.1607006 101.364623,11.1376863 C101.364623,12.1373925 100.599953,12.7849294 99.6680108,12.7849294 L99.6680108,12.7849294 Z" id="Path" fill="#DADADA"></path>
                <use id="Rectangle-82" stroke="#DADADA" mask="url(#mask-2)" stroke-width="2" xlink:href="#path-1"></use>
                <text id="powered-by" font-family="OpenSans, Open Sans, sans-serif" font-size="7.76784438" font-weight="normal" fill="#DADADA">
                    <tspan x="7" y="13">powered by</tspan>
                </text>
            </g>
        </g>
    </g>
</svg>
