<svg width="48" height="48" xmlns="http://www.w3.org/2000/svg" xmlns:xlink="http://www.w3.org/1999/xlink">
  <defs>
    <circle id="a" cx="24" cy="24" r="24"/>
  </defs>
  <g fill="none" fill-rule="evenodd">
    <mask id="b" fill="#fff">
      <use xlink:href="#a"/>
    </mask>
    <use xlink:href="#a"/>
    <circle fill="#F7F9FA" mask="url(#b)" cx="15" cy="24" r="7"/>
    <circle fill="#F7F9FA" mask="url(#b)" cx="33" cy="24" r="7"/>
    <path d="M43 23.2h-2.004c-.418-4.042-3.8-7.2-7.893-7.2-2.589 0-4.885 1.263-6.347 3.2-.626-.421-1.503-.8-2.756-.8s-2.171.379-2.756.8c-1.462-1.937-3.758-3.2-6.347-3.2-4.093 0-7.475 3.158-7.893 7.2H5v1.6h2.004c.418 4.042 3.8 7.2 7.893 7.2 4.343 0 7.934-3.579 7.934-8 0-1.221-.293-2.358-.752-3.41.376-.295 1.002-.59 1.921-.59s1.545.295 1.92.59a7.832 7.832 0 0 0-.75 3.41c0 4.379 3.549 8 7.933 8 4.093 0 7.475-3.158 7.893-7.2H43v-1.6zm-28.103 7.2c-3.508 0-6.348-2.863-6.348-6.4 0-3.537 2.84-6.4 6.348-6.4 2.171 0 4.092 1.137 5.261 2.821l.084.126c.626 1.01 1.044 2.19 1.044 3.453-.042 3.537-2.923 6.4-6.39 6.4zm18.206 0c-3.507 0-6.347-2.863-6.347-6.4 0-1.263.376-2.484 1.044-3.453l.084-.126c1.127-1.684 3.09-2.821 5.261-2.821 3.508 0 6.347 2.863 6.347 6.4-.041 3.537-2.923 6.4-6.389 6.4z" fill="#2B2D33" mask="url(#b)"/>
  </g>
</svg>
