<svg width="48" height="48" xmlns="http://www.w3.org/2000/svg" xmlns:xlink="http://www.w3.org/1999/xlink">
  <defs>
    <circle id="a" cx="24" cy="24" r="24"/>
    <circle id="b" cx="24" cy="24" r="24"/>
  </defs>
  <g fill="none" fill-rule="evenodd">
    <use xlink:href="#a"/>
    <mask id="c" fill="#fff">
      <use xlink:href="#b"/>
    </mask>
    <use xlink:href="#b"/>
    <g mask="url(#c)">
      <path d="M24.516 7.032c6.271 0 11.355 6.702 11.355 14.968l-.001.223c1.94.79 3.098 1.789 3.098 2.874 0 1.272-1.592 2.425-4.17 3.264-1.33 3.727-3.791 6.614-6.801 7.89 1.038.84 1.68 2.008 1.68 3.297 0 .335-.043.662-.125.977 5.517.952 9.416 3.283 9.416 6.007C38.968 50.104 32.266 53 24 53S9.032 50.104 9.032 46.532c0-2.724 3.899-5.055 9.417-6.008a3.828 3.828 0 0 1-.126-.976c0-1.448.81-2.741 2.08-3.593-2.721-1.394-4.933-4.132-6.168-7.594-2.579-.839-4.17-1.992-4.17-3.264 0-1.086 1.157-2.084 3.098-2.875L13.16 22c0-8.266 5.084-14.968 11.355-14.968z" fill="#F7F9FA"/>
      <g transform="translate(8 6)">
        <path d="M6.605 11.742a.944.944 0 0 1-1.285.296.904.904 0 0 1-.301-1.26 10.874 10.874 0 0 1 .546-.748c.43-.537.93-1.075 1.501-1.578 1.648-1.456 3.539-2.348 5.645-2.364.969-.007 1.855.21 2.824.647.646.29 2.952 1.589 2.958 1.592 2.548 1.35 4.997 2.019 8.626 2.019.515 0 .933.41.933.914a.924.924 0 0 1-.933.915c-3.955 0-6.705-.75-9.514-2.239-.074-.04-2.294-1.289-2.848-1.538-.737-.332-1.362-.485-2.032-.48-1.588.012-3.072.712-4.41 1.893a10.786 10.786 0 0 0-1.611 1.786 4.17 4.17 0 0 0-.099.145z" fill="#2B2D33"/>
        <path d="M13 25c1.333.2 2.333.3 3 .3.667 0 1.667-.1 3-.3" stroke="#2B2D33" stroke-width="1.5" stroke-linecap="round" stroke-linejoin="round"/>
        <ellipse fill="#2B2D33" cx="21.954" cy="18.263" rx="1.22" ry="1.218"/>
        <path d="M25.21 13.215c.437.25.533.733.216 1.078-.317.344-.928.42-1.365.17-1.293-.743-2.962-.944-4.477-.541-.511.136-1.065-.08-1.238-.485-.172-.403.103-.84.614-.977 2.115-.563 4.445-.281 6.25.755z" fill="#2B2D33"/>
        <ellipse fill="#2B2D33" cx="10.977" cy="18.263" rx="1.22" ry="1.218"/>
        <path d="M8.87 14.463c-.436.25-1.047.175-1.365-.17-.317-.343-.222-.825.214-1.075 1.805-1.038 4.136-1.321 6.252-.758.511.136.786.572.613.975-.172.404-.725.62-1.236.484-1.516-.403-3.186-.2-4.479.544zm18.97 2.092c-.5 0-.906-.435-.906-.972 0-.537.406-.973.906-.973 2.194 0 3.973 1.908 3.973 4.262 0 2.353-1.779 4.261-3.973 4.261-.5 0-.906-.435-.906-.972 0-.537.406-.972.906-.972 1.193 0 2.16-1.038 2.16-2.317 0-1.28-.967-2.317-2.16-2.317zM5.192 14.61c.5 0 .906.436.906.973 0 .537-.406.972-.906.972-1.193 0-2.16 1.037-2.16 2.317 0 1.28.967 2.317 2.16 2.317.5 0 .906.435.906.972 0 .537-.406.972-.906.972-2.194 0-3.972-1.908-3.972-4.261 0-2.354 1.778-4.262 3.972-4.262z" fill="#2B2D33"/>
        <path d="M25.45 23.808a9.97 9.97 0 0 0 .452-1.544c.287-1.364.334-2.528.285-4.839a55.047 55.047 0 0 1-.019-1.272V11.8c0-5.58-4.24-9.968-9.72-9.968S6.727 6.221 6.727 11.8v8.851c0 .348.018.542.056.73.005.025.034.159.042.203.01.05.018.097.025.146a7.717 7.717 0 0 0 .118.605c.119.501.292 1.06.53 1.657 1.329 3.326 4.835 5.832 8.953 5.832 3.816 0 7.554-2.262 8.972-5.936a.922.922 0 0 1 .027-.08zm-9 7.848c-4.896 0-9.07-2.982-10.67-6.99a13.732 13.732 0 0 1-.611-1.912 9.523 9.523 0 0 1-.15-.776c-.013-.069-.04-.198-.049-.241a5.271 5.271 0 0 1-.091-1.086V11.8C4.879 5.226 9.929 0 16.448 0c6.519 0 11.569 5.225 11.569 11.8v4.353c0 .32.003.555.018 1.234.051 2.445 0 3.71-.324 5.252a11.836 11.836 0 0 1-.503 1.74c-1.704 4.549-6.18 7.277-10.757 7.277z" fill="#2B2D33"/>
        <path d="M20.13 30.136c0-.486.408-.88.912-.88.503 0 .912.394.912.88v3.396l-.004.038c-.274 3.04-2.906 5.378-6.07 5.391-3.163.013-5.816-2.301-6.119-5.339l-.004-.042V30.1c0-.485.409-.88.912-.88.504 0 .913.395.913.88v3.394c.231 2.112 2.084 3.717 4.29 3.707 2.208-.01 4.047-1.631 4.257-3.747v-3.318z" fill="#2B2D33"/>
        <path d="M29.779 40.472a4.032 4.032 0 0 0-.409-.704c-.413-.589-1.021-1.233-1.766-1.853-1.792-1.493-4.127-2.665-6.73-3.235a.914.914 0 1 1 .395-1.785c2.897.634 5.499 1.94 7.512 3.618 1.774 1.477 2.93 3.12 2.93 4.287 0 1.084-1.824 2.747-4.321 4.056-3.136 1.643-7.06 2.628-11.534 2.628-4.474 0-8.398-.985-11.534-2.628C1.824 43.547 0 41.884 0 40.8c0-1.157 1.154-2.78 2.924-4.25 1.997-1.658 4.569-2.962 7.414-3.61a.914.914 0 1 1 .41 1.782c-2.557.582-4.868 1.754-6.648 3.232-.742.616-1.349 1.254-1.761 1.835a3.99 3.99 0 0 0-.408.694c-.04.092-.066.169-.081.226.015.024.034.052.056.082.129.178.334.401.601.645.654.596 1.572 1.228 2.67 1.803 2.874 1.506 6.505 2.417 10.679 2.417s7.805-.91 10.679-2.417c1.097-.575 2.016-1.207 2.669-1.803.267-.244.472-.467.601-.645.023-.03.042-.059.057-.083a1.566 1.566 0 0 0-.083-.236z" fill="#2B2D33"/>
      </g>
    </g>
  </g>
</svg>
