<?xml version="1.0" encoding="UTF-8"?><svg width="12" height="12" xmlns="http://www.w3.org/2000/svg" xmlns:xlink="http://www.w3.org/1999/xlink"><!--Generator: Sketch 51.2 (57519) - http://www.bohemiancoding.com/sketch--><defs><path d="M.943 13.471l2.114-2.114 1.414 1.414V9H.701l1.414 1.414L0 12.529l.943.942zM11.029 2L8.914 4.115 7.5 2.7v3.77h3.77L9.858 5.057l2.114-2.114L11.03 2zM7.5 9v3.77l1.414-1.413 2.115 2.114.942-.942-2.114-2.115L11.27 9H7.5zM4.471 2.7L3.057 4.116.943 2 0 2.943l2.115 2.114L.7 6.471h3.77v-3.77z" id="a"/></defs><use fill="#FFF" fill-rule="nonzero" xlink:href="#a" transform="translate(0 -2)" opacity=".85"/></svg>