<?xml version="1.0" encoding="UTF-8"?><svg width="12" height="12" xmlns="http://www.w3.org/2000/svg" xmlns:xlink="http://www.w3.org/1999/xlink"><!--Generator: Sketch 51.2 (57519) - http://www.bohemiancoding.com/sketch--><defs><path d="M1.24 3.33h3.1V2H.63C.28 2 0 2.3 0 2.67v4h1.24V3.33zM.62 14h3.73v-1.33h-3.1V9.33H0v4c0 .37.28.67.62.67zM12 13.33v-4h-1.25v3.34h-3.1V14h3.73c.34 0 .62-.3.62-.67zm-4.35-10h3.1v3.34H12v-4c0-.37-.28-.67-.62-.67H7.65v1.33z" id="a"/></defs><use fill="#FFF" fill-rule="nonzero" xlink:href="#a" transform="translate(0 -2)" opacity=".85"/></svg>