<?xml version="1.0" encoding="utf-8"?>
<!-- Generator: Adobe Illustrator 21.0.0, SVG Export Plug-In . SVG Version: 6.00 Build 0)  -->
<svg version="1.1" xmlns="http://www.w3.org/2000/svg" xmlns:xlink="http://www.w3.org/1999/xlink" x="0px" y="0px" width="64px"
	 height="64px" viewBox="0 0 64 64" enable-background="new 0 0 64 64" xml:space="preserve">
<g id="passport-large">
</g>
<g id="visa-large">
</g>
<g id="support-docs-large">
</g>
<g id="support-docs-empty-large">
</g>
<g id="letter-large">
</g>
<g id="pdf-large">
	<g id="pdf-outline">
		<path fill="#FFFFFF" d="M17,55c-1.1,0-2-0.9-2-2V11c0-1.1,0.9-2,2-2h24.4l7.6,8.4V53c0,1.1-0.9,2-2,2H17z"/>
		<path fill="#2C3E4F" d="M40.9,10l7.1,7.8V53c0,0.5-0.5,1-1,1H17c-0.5,0-1-0.5-1-1V11c0-0.5,0.5-1,1-1H40.9 M41.8,8H17
			c-1.7,0-3,1.4-3,3v42c0,1.6,1.3,3,3,3h30c1.7,0,3-1.4,3-3V17L41.8,8L41.8,8z"/>
	</g>
	<path id="fold_8_" fill="none" stroke="#2C3E4F" stroke-width="2" stroke-miterlimit="10" d="M48,18h-5c-1.1,0-2-0.9-2-2v-6"/>
	<g id="pdf-container">
		<path id="container" fill="#F5272E" d="M53,48H28c-0.5,0-1-0.5-1-1V37c0-0.5,0.5-1,1-1h25c0.5,0,1,0.5,1,1v10
			C54,47.5,53.5,48,53,48z"/>
		<g id="pdf-text">
			<path id="P" fill="#FFFFFF" d="M35.7,40.4c0,0.8-0.3,1.5-0.9,1.9c-0.6,0.4-1.4,0.7-2.5,0.7h-0.9v3H30v-8h2.5
				c1.1,0,1.9,0.2,2.4,0.6C35.4,39,35.7,39.6,35.7,40.4z M31.4,41.9h0.7c0.7,0,1.2-0.1,1.6-0.4c0.3-0.2,0.5-0.6,0.5-1.1
				c0-0.5-0.1-0.8-0.5-1c-0.3-0.2-0.8-0.3-1.4-0.3h-1V41.9z"/>
			<path id="D" fill="#FFFFFF" d="M44,41.9c0,1.3-0.4,2.3-1.2,3c-0.8,0.7-1.9,1-3.4,1H37v-8h2.6c1.4,0,2.4,0.3,3.2,1
				C43.6,39.7,44,40.7,44,41.9z M42.5,42c0-1.9-1-2.9-2.9-2.9h-1.2v5.8h1C41.5,44.9,42.5,43.9,42.5,42z"/>
			<path id="F" fill="#FFFFFF" d="M47.4,46H46v-8h5v1.1h-3.6v2.5h3.3v1.1h-3.3V46z"/>
		</g>
	</g>
	<g id="success-tick">
		<circle id="circle_5_" fill="#2C3E4F" cx="16" cy="11" r="7"/>
		<path id="tick_1_" fill-rule="evenodd" clip-rule="evenodd" fill="#FFFFFF" d="M18.1,8.5l-2.9,3.1l-0.7-0.8
			c-0.3-0.3-0.8-0.3-1.2,0c-0.3,0.3-0.3,0.9,0,1.2l1.3,1.4c0.3,0.3,0.8,0.3,1.2,0l3.5-3.7c0.3-0.3,0.3-0.9,0-1.2
			C18.9,8.2,18.4,8.2,18.1,8.5z"/>
	</g>
</g>
<g id="certificate-large">
</g>
<g id="ukbrp-large">
</g>
<g id="id-card-large">
</g>
<g id="drivers-licence-large">
</g>
<g id="national-insurance-card">
</g>
<g id="passport">
</g>
<g id="visa">
</g>
<g id="support-docs">
</g>
<g id="support-docs-empty">
</g>
<g id="letter">
</g>
<g id="certificate">
</g>
<g id="ukbrp">
</g>
<g id="id-card">
</g>
<g id="drivers-licence">
</g>
<g id="national-insurance-card_1_">
</g>
<g id="passport-disabled">
</g>
<g id="support-docs-empty-disabled">
</g>
<g id="letter-disabled">
</g>
<g id="certificate-disabled">
</g>
</svg>
