<svg xmlns="http://www.w3.org/2000/svg" width="48" height="48" viewBox="-6.5 -12 48 48">
  <path fill="#fff" stroke="#2c3e4f" stroke-width="2" d="M4 1h27a3 3 0 0 1 3 3v16a3 3 0 0 1-3 3H4a3 3 0 0 1-3-3V4a3 3 0 0 1 3-3z"/>
  <path d="M17 11h8a1 1 0 1 1 0 2h-8a1 1 0 1 1 0-2zm0-4h12a1 1 0 1 1 0 2H17a1 1 0 1 1 0-2z" fill="#2c3e4f"/>
  <path fill="#fff" stroke="#2c3e4f" stroke-width="2" d="M5.01 18h8.979a.6.6 0 0 0 .003-.211C13.379 15.538 11.554 14 9.5 14s-3.88 1.539-4.493 3.791A.614.614 0 0 0 5.01 18zm8.964.073zM9.5 11c1.275 0 2.5-1.369 2.5-2.733C12 7.031 10.896 6 9.5 6c-.936 0-1.771.469-2.203 1.195A2.09 2.09 0 0 0 7 8.267C7 9.631 8.225 11 9.5 11z"/>
</svg>
