<?xml version="1.0" encoding="UTF-8" standalone="no"?>
<svg width="82px" height="52px" viewBox="0 0 82 52" version="1.1" xmlns="http://www.w3.org/2000/svg" xmlns:xlink="http://www.w3.org/1999/xlink">
    <!-- Generator: Sketch 46.1 (44463) - http://www.bohemiancoding.com/sketch -->
    <title>drivers-licence</title>
    <desc>Created with Sketch.</desc>
    <defs></defs>
    <g id="Symbols" stroke="none" stroke-width="1" fill="none" fill-rule="evenodd">
        <g id="icons/drivers-licence/default" transform="translate(-19.000000, -38.000000)" fill-rule="nonzero">
            <g id="drivers-licence" transform="translate(19.000000, 38.000000)">
                <path d="M4,0 L77.2,0 C79.4,0 81.2,1.8 81.2,4 L81.2,47.5 C81.2,49.7 79.4,51.5 77.2,51.5 L4,51.5 C1.8,51.5 0,49.7 0,47.5 L0,4 C0,1.8 1.8,0 4,0 Z" id="Shape" fill="#8A9293"></path>
                <g id="Page-1-2" transform="translate(10.000000, 20.000000)" fill="#F3F3F4">
                    <path d="M27.2,6.2 C27.2,6.1 27.2,6 27.1,5.9 L22.1,1.8 L12,1.8 C11.8,1.8 11.6,1.9 11.5,2 L8.2,5.5 L0.8,6.8 C0.7,6.9 0.5,7 0.5,7.2 L0.5,9.8 C0.7,10.2 0.8,10.2 0.9,10.2 L2.3,10.2 C2.3,8.8 3.4,7.6 4.8,7.6 C6.2,7.6 7.4,8.7 7.4,10.1 C7.4,10.1 7.4,10.1 7.4,10.1 L20.5,10.1 C20.5,8.7 21.6,7.5 23,7.5 C24.4,7.5 25.6,8.6 25.6,10 C25.6,10 25.6,10 25.6,10 L26.8,10 C27,10 27.1,9.8 27.2,9.6 L27.2,6.2 Z M16.4,6 L9.4,6 C9.1,5.9 9.1,5.7 9.2,5.5 L11.7,2.9 C11.8,2.9 11.8,2.8 11.9,2.8 L16.4,2.8 L16.4,6 Z M23.6,6 L17.2,6 L17.2,2.8 L21,2.8 C21.1,2.8 21.1,2.9 21.2,2.9 L23.4,5.2 C23.5,5.5 23.9,5.9 23.6,6 L23.6,6 Z" id="Fill-1"></path>
                    <path d="M4.9,8.1 C3.7,8 2.7,9 2.6,10.2 C2.5,11.4 3.5,12.4 4.7,12.5 C5.9,12.6 6.9,11.6 7,10.4 C7,10.4 7,10.3 7,10.3 C7,9.2 6,8.2 4.9,8.1 Z M4.9,11.2 C4.4,11.2 4,10.8 4,10.3 C4,9.8 4.4,9.4 4.9,9.4 C5.4,9.4 5.8,9.8 5.8,10.3 L5.8,10.3 C5.8,10.8 5.4,11.2 4.9,11.2 Z" id="Fill-2"></path>
                    <path d="M23.1,8.1 C21.9,8 20.9,9 20.8,10.2 C20.7,11.4 21.7,12.4 22.9,12.5 C24.1,12.6 25.1,11.6 25.2,10.4 C25.2,10.4 25.2,10.3 25.2,10.3 C25.2,9.1 24.3,8.2 23.1,8.1 C23.1,8.1 23.1,8.1 23.1,8.1 Z M23.1,11.2 C22.6,11.2 22.2,10.8 22.2,10.3 C22.2,9.8 22.6,9.4 23.1,9.4 C23.6,9.4 24,9.8 24,10.3 C24,10.8 23.6,11.2 23.1,11.2 L23.1,11.2 Z" id="Fill-3"></path>
                    <rect id="Rectangle-78" x="32" y="0.5" width="32" height="1"></rect>
                    <rect id="Rectangle-78-2" x="32" y="8.5" width="16" height="1"></rect>
                    <rect id="Rectangle-78-3" x="32" y="4.5" width="24" height="1"></rect>
                </g>
            </g>
        </g>
    </g>
</svg>