<svg width="82" height="52" viewBox="0 0 82 52" xmlns="http://www.w3.org/2000/svg">
    <title>drivers-licence-hover</title>
    <g fill-rule="nonzero" fill="none">
        <path d="M4 0h73.2c2.21 0 4 1.79 4 4v43.5c0 2.21-1.79 4-4 4H4c-2.21 0-4-1.79-4-4V4c0-2.21 1.79-4 4-4z" fill="#00C8A0" />
        <g fill="#F3F3F4">
            <path d="M37.17 26.23c.013-.11-.023-.22-.1-.3l-5-4.1H22c-.185.003-.363.075-.5.2l-3.3 3.5-7.4 1.3c-.147.09-.254.233-.3.4v2.6c.2.4.3.4.4.4h1.4c0-1.408 1.142-2.55 2.55-2.55s2.55 1.142 2.55 2.55h13.1c0-1.408 1.142-2.55 2.55-2.55s2.55 1.142 2.55 2.55h1.2c.2 0 .3-.2.4-.4l-.03-3.6zM26.37 26h-7c-.3-.1-.3-.3-.2-.5l2.5-2.6c.1 0 .1-.1.2-.1h4.5V26zm7.2 0h-6.4v-3.2H31c.1 0 .1.1.2.1l2.2 2.3c.1.3.5.7.2.8h-.03z" />
            <path d="M14.87 28.13c-1.213-.054-2.24.885-2.295 2.1-.055 1.212.884 2.24 2.097 2.296 1.213.055 2.242-.883 2.298-2.096v-.1c0-1.177-.924-2.146-2.1-2.2zm0 3.1c-.497 0-.9-.403-.9-.9s.403-.9.9-.9.9.403.9.9-.403.9-.9.9zM33.07 28.13c-1.213-.054-2.24.885-2.295 2.1-.055 1.212.884 2.24 2.097 2.296 1.213.055 2.242-.883 2.298-2.096v-.1c.016-.568-.194-1.118-.584-1.53-.39-.414-.928-.654-1.496-.67h-.02zm0 3.1c-.497 0-.9-.403-.9-.9s.403-.9.9-.9.9.403.9.9-.403.9-.9.9zM42 20.5h32v1H42zM42 28.5h16v1H42zM42 24.5h24v1H42z" />
        </g>
    </g>
</svg>
