<svg width="63" height="88" viewBox="0 0 63 88" xmlns="http://www.w3.org/2000/svg">
    <title>passport_default</title>
    <g fill-rule="nonzero" fill="none">
        <path d="M36.44 37h-4.62v6.18h5.79c-.07-2.108-.464-4.193-1.17-6.18zM31.82 30v5.52h4c-.94-2.095-2.303-3.973-4-5.52zM37.61 44.76h-5.79v6.15h4.62c.706-1.99 1.1-4.08 1.17-6.19v.04zM30.3 58v-5.52h-4c.94 2.095 2.302 3.974 4 5.52zM35.83 52.48h-4V58c1.698-1.546 3.06-3.425 4-5.52zM42.23 35.53c-1.96-2.59-4.767-4.41-7.93-5.15 1.32 1.54 2.388 3.28 3.17 5.15h4.76zM34.31 57.63c3.163-.74 5.968-2.56 7.93-5.15h-4.76c-.783 1.87-1.852 3.61-3.17 5.15zM39.12 44.76c-.063 2.09-.424 4.16-1.07 6.15h5.19c1.08-1.89 1.702-4.007 1.82-6.18l-5.94.03zM25.68 50.91h4.62v-6.15h-5.79c.072 2.098.466 4.172 1.17 6.15zM39.12 43.24h5.93c-.114-2.177-.737-4.298-1.82-6.19h-5.18c.65 2.002 1.01 4.086 1.07 6.19zM23 44.76h-5.93c.12 2.164.744 4.27 1.82 6.15h5.23c-.665-1.996-1.042-4.077-1.12-6.18v.03zM24.12 37.06h-5.24c-1.08 1.893-1.704 4.013-1.82 6.19H23c.078-2.106.455-4.19 1.12-6.19zM25.68 37c-.705 1.988-1.1 4.072-1.17 6.18h5.79V37h-4.62zM27.81 57.63c-1.318-1.54-2.388-3.28-3.17-5.15h-4.75c1.96 2.587 4.76 4.408 7.92 5.15zM27.81 30.37c-3.163.74-5.968 2.56-7.93 5.15h4.76c.782-1.87 1.852-3.61 3.17-5.15zM30.3 35.53V30c-1.697 1.547-3.058 3.426-4 5.52l4 .01z" fill="#8A9293" />
        <path d="M58.24 0H3.88C1.737 0 0 1.737 0 3.88v80.24C0 86.263 1.737 88 3.88 88h54.36c2.143 0 3.88-1.737 3.88-3.88V3.91c.008-1.03-.393-2.02-1.115-2.752C60.283.424 59.3.008 58.27 0h-.03zM31.06 28.47c8.577 0 15.53 6.953 15.53 15.53 0 8.577-6.953 15.53-15.53 15.53-8.577 0-15.53-6.953-15.53-15.53 0-8.577 6.953-15.53 15.53-15.53z" fill="#8A9293" />
        <path d="M11.49 72h39c.132 0 .258.053.35.147.092.094.143.22.14.353.003.132-.048.26-.14.353-.092.094-.218.147-.35.147h-39c-.132 0-.258-.053-.35-.147-.092-.094-.143-.22-.14-.353-.003-.132.048-.26.14-.353.092-.094.218-.147.35-.147zM13.44 77h35.12c.125.008.24.065.324.16.082.092.124.215.116.34.008.125-.034.248-.116.34-.083.095-.2.152-.324.16H13.44c-.125-.008-.24-.065-.324-.16-.082-.092-.124-.215-.116-.34-.008-.125.034-.248.116-.34.083-.095.2-.152.324-.16zM21.48 15h19c.13.003.254.057.344.15.09.094.14.22.136.35.003.13-.046.256-.136.35-.09.093-.214.147-.344.15h-19c-.13-.003-.254-.057-.344-.15-.09-.094-.14-.22-.136-.35-.003-.13.046-.256.136-.35.09-.093.214-.147.344-.15z" fill="#F3F3F4" />
        <rect fill="#F3F3F4" x="15.06" y="8" width="32" height="2" rx="1" />
    </g>
</svg>
