<svg xmlns="http://www.w3.org/2000/svg" width="48" height="48" fill-rule="evenodd"><path fill="#fff" stroke="#2c3e4f" stroke-width="2" d="M19.553 28.651l.333.223.743 3.343a1 1 0 00.976.783h4.791a1 1 0 00.976-.783l.743-3.343.332-.223A7.99 7.99 0 0032 22a8 8 0 10-16 0 7.99 7.99 0 003.553 6.651z"/><g fill="#2c3e4f"><rect width="8" height="2" x="20" y="35" rx="1"/><rect width="6" height="2" x="21" y="38" rx="1"/><rect width="1" height="4" x="4.268" y="3.768" rx=".5" transform="rotate(-45 19.425 -2.303)"/><rect width="1" height="4" x="23" rx=".5" y="8"/><rect width="1" height="4" x="22.268" y="3.768" rx=".5" transform="rotate(45 18.111 21.84)"/><rect width="4" height="1" y="20" rx=".5" x="10"/><rect width="4" height="1" x="34" y="20" rx=".5"/></g></svg>