<svg xmlns="http://www.w3.org/2000/svg" width="48" height="48" fill="none">
  <path d="M8 15a2 2 0 0 1 2-2h29a2 2 0 0 1 2 2v18a2 2 0 0 1-2 2H10a2 2 0 0 1-2-2V15z" fill="#fff" stroke="#2b2d33" stroke-width="2"/>
  <g fill="#2b2d33">
    <rect x="25" y="23" width="8.571" height="2" rx="1"/>
    <rect x="25" y="19" width="12" height="2" rx="1"/>
  </g>
  <path d="m11.75 23.143 4.55-4.457a1 1 0 0 1 1.4 0l4.55 4.457c.64.627.196 1.714-.7 1.714H20.5V29a1 1 0 0 1-1 1h-5a1 1 0 0 1-1-1v-4.143h-1.05c-.896 0-1.34-1.087-.7-1.714z" stroke="#2b2d33" stroke-width="2"/>
</svg>
