<svg width="82" height="52" viewBox="0 0 82 52" xmlns="http://www.w3.org/2000/svg">
    <title>drivers-licence</title>
    <g fill-rule="nonzero" fill="none">
        <path d="M4 0h73.2c2.2 0 4 1.8 4 4v43.5c0 2.2-1.8 4-4 4H4c-2.2 0-4-1.8-4-4V4c0-2.2 1.8-4 4-4z" fill="#8A9293" />
        <g fill="#F3F3F4">
            <path d="M37.2 26.2c0-.1 0-.2-.1-.3l-5-4.1H22c-.2 0-.4.1-.5.2l-3.3 3.5-7.4 1.3c-.1.1-.3.2-.3.4v2.6c.2.4.3.4.4.4h1.4c0-1.4 1.1-2.6 2.5-2.6s2.6 1.1 2.6 2.5h13.1c0-1.4 1.1-2.6 2.5-2.6s2.6 1.1 2.6 2.5h1.2c.2 0 .3-.2.4-.4v-3.4zM26.4 26h-7c-.3-.1-.3-.3-.2-.5l2.5-2.6c.1 0 .1-.1.2-.1h4.5V26zm7.2 0h-6.4v-3.2H31c.1 0 .1.1.2.1l2.2 2.3c.1.3.5.7.2.8z" />
            <path d="M14.9 28.1c-1.2-.1-2.2.9-2.3 2.1-.1 1.2.9 2.2 2.1 2.3 1.2.1 2.2-.9 2.3-2.1v-.1c0-1.1-1-2.1-2.1-2.2zm0 3.1c-.5 0-.9-.4-.9-.9s.4-.9.9-.9.9.4.9.9-.4.9-.9.9zM33.1 28.1c-1.2-.1-2.2.9-2.3 2.1-.1 1.2.9 2.2 2.1 2.3 1.2.1 2.2-.9 2.3-2.1v-.1c0-1.2-.9-2.1-2.1-2.2zm0 3.1c-.5 0-.9-.4-.9-.9s.4-.9.9-.9.9.4.9.9-.4.9-.9.9zM42 20.5h32v1H42zM42 28.5h16v1H42zM42 24.5h24v1H42z" />
        </g>
    </g>
</svg>
