<?xml version="1.0" encoding="UTF-8" standalone="no"?>
<svg width="82px" height="52px" viewBox="0 0 82 52" version="1.1" xmlns="http://www.w3.org/2000/svg" xmlns:xlink="http://www.w3.org/1999/xlink">
    <!-- Generator: Sketch 46.1 (44463) - http://www.bohemiancoding.com/sketch -->
    <title>drivers-licence-hover</title>
    <desc>Created with Sketch.</desc>
    <defs></defs>
    <g id="Symbols" stroke="none" stroke-width="1" fill="none" fill-rule="evenodd">
        <g id="icons/drivers-licence/hover" transform="translate(-19.000000, -38.000000)" fill-rule="nonzero">
            <g id="drivers-licence-hover" transform="translate(19.000000, 38.000000)">
                <path d="M4,0 L77.2,0 C79.409139,1.3527075e-16 81.2,1.790861 81.2,4 L81.2,47.5 C81.2,49.709139 79.409139,51.5 77.2,51.5 L4,51.5 C1.790861,51.5 2.705415e-16,49.709139 0,47.5 L0,4 C-2.705415e-16,1.790861 1.790861,4.05812251e-16 4,0 Z" id="Shape" fill="#00C8A0"></path>
                <g id="Page-1-2" transform="translate(10.000000, 20.000000)" fill="#F3F3F4">
                    <path d="M27.17,6.23 C27.1832315,6.12007489 27.1465403,6.01000117 27.07,5.93 L22.07,1.83 L12,1.83 C11.814509,1.83340502 11.6366694,1.90454085 11.5,2.03 L8.2,5.53 L0.8,6.83 C0.652830369,6.92039611 0.545572767,7.06340624 0.5,7.23 L0.5,9.83 C0.7,10.23 0.8,10.23 0.9,10.23 L2.3,10.23 C2.3,8.82167389 3.44167389,7.68 4.85,7.68 C6.25832611,7.68 7.4,8.82167389 7.4,10.23 L20.5,10.23 C20.5,8.82167389 21.6416739,7.68 23.05,7.68 C24.4583261,7.68 25.6,8.82167389 25.6,10.23 L26.8,10.23 C27,10.23 27.1,10.03 27.2,9.83 L27.17,6.23 Z M16.37,6 L9.37,6 C9.07,5.9 9.07,5.7 9.17,5.5 L11.67,2.9 C11.77,2.9 11.77,2.8 11.87,2.8 L16.37,2.8 L16.37,6 Z M23.57,6 L17.17,6 L17.17,2.8 L21,2.8 C21.1,2.8 21.1,2.9 21.2,2.9 L23.4,5.2 C23.5,5.5 23.9,5.9 23.6,6 L23.57,6 Z" id="Fill-1"></path>
                    <path d="M4.87,8.13 C3.65676153,8.07610867 2.6293354,9.0154917 2.57460853,10.2286928 C2.51988165,11.4418938 3.45855685,12.4699667 4.67171994,12.5255291 C5.88488303,12.5810915 6.9136021,11.6431245 6.97,10.43 C6.97,10.43 6.97,10.36 6.97,10.33 C6.97121653,9.1529783 6.04580579,8.18350039 4.87,8.13 L4.87,8.13 Z M4.87,11.23 C4.37294373,11.23 3.97,10.8270563 3.97,10.33 C3.97,9.83294373 4.37294373,9.43 4.87,9.43 C5.36705627,9.43 5.77,9.83294373 5.77,10.33 L5.77,10.33 C5.77,10.8270563 5.36705627,11.23 4.87,11.23 L4.87,11.23 Z" id="Fill-2"></path>
                    <path d="M23.07,8.13 C21.8567615,8.07610867 20.8293354,9.0154917 20.7746085,10.2286928 C20.7198816,11.4418938 21.6585569,12.4699667 22.8717199,12.5255291 C24.084883,12.5810915 25.1136021,11.6431245 25.17,10.43 C25.17,10.43 25.17,10.36 25.17,10.33 C25.186138,9.7623746 24.9760109,9.21160819 24.5858882,8.79897842 C24.1957655,8.38634866 23.6576379,8.1456918 23.09,8.13 L23.07,8.13 Z M23.07,11.23 C22.5729437,11.23 22.17,10.8270563 22.17,10.33 C22.17,9.83294373 22.5729437,9.43 23.07,9.43 C23.5670563,9.43 23.97,9.83294373 23.97,10.33 C23.97,10.8270563 23.5670563,11.23 23.07,11.23 L23.07,11.23 Z" id="Fill-3"></path>
                    <rect id="Rectangle-78" x="32" y="0.5" width="32" height="1"></rect>
                    <rect id="Rectangle-78-2" x="32" y="8.5" width="16" height="1"></rect>
                    <rect id="Rectangle-78-3" x="32" y="4.5" width="24" height="1"></rect>
                </g>
            </g>
        </g>
    </g>
</svg>