<svg xmlns="http://www.w3.org/2000/svg" width="48" height="48">
  <circle fill="#EDEEEF" cx="24" cy="24" r="24"/>
  <g fill="none" fill-rule="evenodd">
    <g transform="translate(15 13)">
      <path fill="#FFF" stroke="#2C3E4F" stroke-width="2" d="M4.5527 15.651l.3326.223.7429 3.343a1 1 0 0 0 .9761.783h4.7914a1 1 0 0 0 .9761-.783l.743-3.343.3325-.223C15.6512 14.1741 17 11.7022 17 9c0-4.4183-3.5817-8-8-8S1 4.5817 1 9c0 2.7022 1.3488 5.1741 3.5527 6.651z"/>
      <rect width="8" height="2" x="5" y="22" fill="#2C3E4F" rx="1"/>
      <rect width="6" height="2" x="6" y="25" fill="#2C3E4F" rx="1"/>
    </g>
    <g fill="#2C3E4F" transform="translate(10 8)">
      <rect width="1" height="4" x="4.268" y="3.768" rx=".5" transform="rotate(-45 4.768 5.768)"/>
      <rect width="1" height="4" x="13" rx=".5"/>
      <rect width="1" height="4" x="22.268" y="3.768" rx=".5" transform="rotate(45 22.768 5.768)"/>
      <rect width="4" height="1" y="12" rx=".5"/>
      <rect width="4" height="1" x="24" y="12" rx=".5"/>
    </g>
  </g>
</svg>
