<svg width="82" height="51" viewBox="0 0 82 51" xmlns="http://www.w3.org/2000/svg">
    <title>national-id-card-hover</title>
    <path d="M4 0C1.79 0 0 1.79 0 4v42.9c0 2.21 1.79 4 4 4h73.3c2.21 0 4-1.79 4-4V4c0-2.21-1.79-4-4-4H4zm17.1 37.3H9.7l.2-1.2c.5-1.3.5-2.2 1.9-2.8 1.8-.8 4.7-1.6 5.7-2.5.43-.417.65-1.004.6-1.6.016-.205-.02-.41-.1-.6-.8-.3-1.3-1.9-1.5-2.4-.246-.046-.463-.19-.6-.4-.9-1.5-1.3-2.6-.4-2.7-.075-.463-.108-.93-.1-1.4l-.5-1.5c.06-.517.195-1.022.4-1.5.4-1.2-.1-2.1 1.6-1.9 0 0-.2-1.7 4.4-2.8 4.6-1.1 3.3 1.5 5.7 2.7.22.677.026 1.42-.5 1.9.475 1.486.578 3.065.3 4.6.8.1.5 1.2-.4 2.7-.1.2-.4.3-.6.4-.2.5-.7 2.1-1.5 2.4-.08.19-.116.395-.1.6-.05.596.17 1.183.6 1.6 1 1 3.9 1.8 5.7 2.5 1.4.6 1.4 1.5 1.9 2.8l.2 1.2c-.1-.1-11.6-.1-11.5-.1zm17-18.5c-.008-.125.034-.248.116-.34.083-.095.2-.152.324-.16h30c.135-.01.268.04.363.137.096.095.146.228.137.363.008.125-.034.248-.116.34-.083.095-.2.152-.324.16h-30c-.135.01-.268-.04-.363-.137-.096-.095-.146-.228-.137-.363zm0 6.7c-.008-.125.034-.248.116-.34.083-.095.2-.152.324-.16h30c.135-.01.268.04.363.137.096.095.146.228.137.363.008.125-.034.248-.116.34-.083.095-.2.152-.324.16h-30c-.268-.02-.48-.232-.5-.5zm0 6.6c-.008-.125.034-.248.116-.34.083-.095.2-.152.324-.16H54c.135-.01.268.04.363.137.096.095.146.228.137.363.008.125-.034.248-.116.34-.083.095-.2.152-.324.16H38.6c-.135.01-.268-.04-.363-.137-.096-.095-.146-.228-.137-.363z" fill-rule="nonzero" fill="#00C8A0" />
</svg>
