<svg xmlns="http://www.w3.org/2000/svg" width="48" height="48" viewBox="-12 -6.5 48 48">
  <g fill="#fff" stroke="#2c3e4f" stroke-width="2">
    <path d="M1 5.762v15.95l18-4.6V2.11a1 1 0 0 0-1-1 .99.99 0 0 0-.266.036L1 5.762z"/>
    <path d="M1 6v28h20a2 2 0 0 0 2-2V8a2 2 0 0 0-2-2H1z"/>
  </g>
  <path fill="#2c3e4f" d="M7 28h10a1 1 0 1 1 0 2H7a1 1 0 1 1 0-2z"/>
  <path fill="#fff" stroke="#2c3e4f" stroke-width="2" d="M12 24a6 6 0 0 0 0-12 6 6 0 0 0 0 12z"/>
  <g fill="#2c3e4f">
    <path d="M6 15h12v2H6v-2zm0 4h12v2H6v-2z"/>
    <path d="M11 12h2v12h-2V12z"/>
  </g>
</svg>
