<?xml version="1.0" encoding="UTF-8" standalone="no"?>
<svg width="63px" height="88px" viewBox="0 0 63 88" version="1.1" xmlns="http://www.w3.org/2000/svg" xmlns:xlink="http://www.w3.org/1999/xlink">
    <!-- Generator: Sketch 46 (44423) - http://www.bohemiancoding.com/sketch -->
    <title>passport_hover</title>
    <desc>Created with Sketch.</desc>
    <defs></defs>
    <g id="Symbols" stroke="none" stroke-width="1" fill="none" fill-rule="evenodd">
        <g id="icons/passport/hover" transform="translate(-29.000000, -20.000000)" fill-rule="nonzero">
            <g id="passport_hover" transform="translate(29.000000, 20.000000)">
                <path d="M36.44,37 L31.82,37 L31.82,43.18 L37.61,43.18 C37.5408647,41.0720087 37.1462023,38.9873816 36.44,37 Z" id="Shape" fill="#00C8A0"></path>
                <path d="M31.82,30 L31.82,35.52 L35.82,35.52 C34.8788954,33.4254074 33.5174041,31.5465495 31.82,30 L31.82,30 Z" id="Shape-2" fill="#00C8A0"></path>
                <path d="M37.61,44.76 L31.82,44.76 L31.82,50.91 L36.44,50.91 C37.146283,48.9191875 37.5409325,46.8312554 37.61,44.72 L37.61,44.76 Z" id="Shape-3" fill="#00C8A0"></path>
                <path d="M30.3,58 L30.3,52.48 L26.3,52.48 C27.2403604,54.5750232 28.6019549,56.4540236 30.3,58 L30.3,58 Z" id="Shape-4" fill="#00C8A0"></path>
                <path d="M35.83,52.48 L31.83,52.48 L31.83,58 C33.5284737,56.454407 34.8901373,54.5753111 35.83,52.48 L35.83,52.48 Z" id="Shape-5" fill="#00C8A0"></path>
                <path d="M42.23,35.53 C40.2685457,32.9406389 37.4632685,31.1188006 34.3,30.38 C35.6185778,31.9209891 36.6881565,33.6586327 37.47,35.53 L42.23,35.53 Z" id="Shape-6" fill="#00C8A0"></path>
                <path d="M34.31,57.63 C37.4729334,56.890413 40.2779635,55.0687351 42.24,52.48 L37.48,52.48 C36.6974268,54.3509931 35.627915,56.088528 34.31,57.63 L34.31,57.63 Z" id="Shape-7" fill="#00C8A0"></path>
                <path d="M39.12,44.76 C39.0565151,46.8503415 38.6962456,48.9210494 38.05,50.91 L43.24,50.91 C44.3188406,49.0194943 44.9420054,46.9034733 45.06,44.73 L39.12,44.76 Z" id="Shape-8" fill="#00C8A0"></path>
                <path d="M25.68,50.91 L30.3,50.91 L30.3,44.76 L24.51,44.76 C24.5817311,46.8579342 24.9763631,48.932282 25.68,50.91 L25.68,50.91 Z" id="Shape-9" fill="#00C8A0"></path>
                <path d="M39.12,43.24 L45.05,43.24 C44.9361194,41.0626676 44.3127327,38.9424679 43.23,37.05 L38.05,37.05 C38.6985278,39.052121 39.058807,41.1363527 39.12,43.24 Z" id="Shape-10" fill="#00C8A0"></path>
                <path d="M23,44.76 L17.07,44.76 C17.1904188,46.9235933 17.8135774,49.0293216 18.89,50.91 L24.12,50.91 C23.4548888,48.9136892 23.0777618,46.832756 23,44.73 L23,44.76 Z" id="Shape-11" fill="#00C8A0"></path>
                <path d="M24.12,37.06 L18.88,37.06 C17.7996709,38.9534913 17.1764556,41.0731081 17.06,43.25 L23,43.25 C23.0776298,41.1439648 23.4547481,39.0597126 24.12,37.06 L24.12,37.06 Z" id="Shape-12" fill="#00C8A0"></path>
                <path d="M25.68,37 C24.9747265,38.9876328 24.5800916,41.0721143 24.51,43.18 L30.3,43.18 L30.3,37 L25.68,37 Z" id="Shape-13" fill="#00C8A0"></path>
                <path d="M27.81,57.63 C26.4916877,56.0888174 25.4221359,54.3512174 24.64,52.48 L19.89,52.48 C21.8495233,55.0667977 24.6507118,56.8882776 27.81,57.63 L27.81,57.63 Z" id="Shape-14" fill="#00C8A0"></path>
                <path d="M27.81,30.37 C24.6470666,31.109587 21.8420365,32.9312649 19.88,35.52 L24.64,35.52 C25.4224276,33.6489322 26.4919527,31.9113756 27.81,30.37 Z" id="Shape-15" fill="#00C8A0"></path>
                <path d="M30.3,35.53 L30.3,30 C28.603022,31.5469303 27.2415992,33.4256937 26.3,35.52 L30.3,35.53 Z" id="Shape-16" fill="#00C8A0"></path>
                <path d="M58.24,0 L3.88,0 C1.73713517,-1.31212628e-16 2.62425255e-16,1.73713517 0,3.88 C0,3.88 0,3.88 0,3.88 L0,84.12 C2.62425255e-16,86.2628648 1.73713517,88 3.88,88 L58.24,88 C60.3828648,88 62.12,86.2628648 62.12,84.12 L62.12,3.91 C62.1279873,2.88095083 61.7268434,1.89087914 61.0048217,1.15760519 C60.2828001,0.424331226 59.2990496,0.00792580768 58.27,0 L58.24,0 Z M31.06,28.47 C39.6369822,28.47 46.59,35.4230178 46.59,44 C46.59,52.5769822 39.6369822,59.53 31.06,59.53 C22.4830178,59.53 15.53,52.5769822 15.53,44 C15.53,35.4230178 22.4830178,28.47 31.06,28.47 Z" id="Shape-17" fill="#00C8A0"></path>
                <path d="M11.49,72 L50.49,72 C50.6217074,71.9999726 50.7478806,72.0529679 50.8400663,72.147035 C50.9322521,72.2411021 50.9826879,72.36832 50.98,72.5 L50.98,72.5 C50.9826879,72.63168 50.9322521,72.7588979 50.8400663,72.852965 C50.7478806,72.9470321 50.6217074,73.0000274 50.49,73 L11.49,73 C11.3582926,73.0000274 11.2321194,72.9470321 11.1399337,72.852965 C11.0477479,72.7588979 10.9973121,72.63168 11,72.5 L11,72.5 C10.9973121,72.36832 11.0477479,72.2411021 11.1399337,72.147035 C11.2321194,72.0529679 11.3582926,71.9999726 11.49,72 Z" id="Rectangle-78" fill="#F3F3F4"></path>
                <path d="M13.44,77 L48.56,77 C48.6847457,77.0077074 48.8012842,77.0647835 48.8838518,77.1586104 C48.9664195,77.2524372 49.0082155,77.3752867 49,77.5 L49,77.5 C49.0082155,77.6247133 48.9664195,77.7475628 48.8838518,77.8413896 C48.8012842,77.9352165 48.6847457,77.9922926 48.56,78 L13.44,78 C13.3152543,77.9922926 13.1987158,77.9352165 13.1161482,77.8413896 C13.0335805,77.7475628 12.9917845,77.6247133 13,77.5 L13,77.5 C12.9917845,77.3752867 13.0335805,77.2524372 13.1161482,77.1586104 C13.1987158,77.0647835 13.3152543,77.0077074 13.44,77 Z" id="Rectangle-78-2" fill="#F3F3F4"></path>
                <path d="M21.48,15 L40.48,15 C40.6099649,15.0026253 40.7335607,15.0567853 40.8235839,15.1505595 C40.9136071,15.2443336 40.9626794,15.3700362 40.96,15.5 L40.96,15.5 C40.9626794,15.6299638 40.9136071,15.7556664 40.8235839,15.8494405 C40.7335607,15.9432147 40.6099649,15.9973747 40.48,16 L21.48,16 C21.3500351,15.9973747 21.2264393,15.9432147 21.1364161,15.8494405 C21.0463929,15.7556664 20.9973206,15.6299638 21,15.5 L21,15.5 C20.9973206,15.3700362 21.0463929,15.2443336 21.1364161,15.1505595 C21.2264393,15.0567853 21.3500351,15.0026253 21.48,15 Z" id="Rectangle-80-2" fill="#F3F3F4"></path>
                <rect id="Rectangle-path" fill="#F3F3F4" x="15.06" y="8" width="32" height="2" rx="1"></rect>
            </g>
        </g>
    </g>
</svg>