<?xml version="1.0" encoding="UTF-8" standalone="no"?>
<svg width="82px" height="52px" viewBox="0 0 82 52" version="1.1" xmlns="http://www.w3.org/2000/svg" xmlns:xlink="http://www.w3.org/1999/xlink">
    <!-- Generator: sketchtool 3.8.3 (29802) - http://www.bohemiancoding.com/sketch -->
    <title>A6BE5E14-EA91-43EA-9B09-3188B38721E3</title>
    <desc>Created with sketchtool.</desc>
    <defs>
        <rect id="path-1" x="0" y="0" width="140" height="140" rx="5"></rect>
        <mask id="mask-2" maskContentUnits="userSpaceOnUse" maskUnits="objectBoundingBox" x="0" y="0" width="140" height="140" fill="white">
            <use xlink:href="#path-1"></use>
        </mask>
    </defs>
    <g id="Page-1" stroke="none" stroke-width="1" fill="none" fill-rule="evenodd">
        <g id="02" transform="translate(-829.000000, -559.000000)">
            <g id="Group-6" transform="translate(470.000000, 212.000000)" fill="#F3F3F3">
                <rect id="Rectangle-160" x="0" y="0" width="500" height="600" rx="3"></rect>
            </g>
            <g id="Group-7" transform="translate(800.000000, 515.000000)">
                <use id="Rectangle-186" stroke="#DADADA" mask="url(#mask-2)" stroke-width="2" xlink:href="#path-1"></use>
                <g id="Group-2" transform="translate(29.000000, 44.000000)">
                    <rect id="Shape" fill="#DADADA" x="0" y="0" width="81.2178872" height="51.4546762" rx="4"></rect>
                    <g id="Page-1" transform="translate(9.874020, 19.825959)" fill="#FFFFFF">
                        <path d="M27.320118,6.37074412 C27.3062114,6.29249668 27.2783984,6.19830308 27.2227722,6.07666726 L22.2057223,1.93363238 L12.1099346,1.93363238 C11.8760195,1.91916958 11.7490778,2.03338859 11.6392519,2.16689133 L8.26424281,5.68246335 L0.884864867,6.95889783 C0.781813877,7.05160806 0.67840631,7.14283493 0.596393412,7.38313986 L0.611726258,10.0238981 C0.771829698,10.4470276 0.880585933,10.3921432 1.00182239,10.4514777 L2.42242842,10.4514777 C2.42242842,6.86173751 7.5635674,6.8762003 7.5635674,10.4514777 L20.6735075,10.4514777 C20.6735075,6.85432069 25.7754229,6.86173751 25.7754229,10.4514777 L26.940006,10.4514777 C27.1350541,10.4325648 27.2448801,10.2530778 27.3383034,10.042811 L27.320118,6.37074412 Z M16.4837181,6.19978645 L9.48980077,6.19978645 C9.22379372,6.09113005 9.18777936,5.92462248 9.29903164,5.72325585 L11.8132618,3.1433155 C11.8703143,3.09251029 11.9148865,3.02427556 12.0125888,3.03873835 L16.4837181,3.03873835 L16.4837181,6.19978645 Z M23.7265267,6.20126981 L17.3152576,6.20126981 L17.3152576,3.04022172 L21.0775101,3.04022172 C21.1762822,3.02427556 21.2208544,3.09399365 21.2764805,3.14479886 L23.4312803,5.40173676 C23.6306073,5.71138894 24.030331,6.13748517 23.7265267,6.20126981 L23.7265267,6.20126981 Z" id="Fill-1"></path>
                        <path d="M4.98123084,8.28576668 C3.8277016,8.28576668 2.89453745,9.25774076 2.89453745,10.455557 C2.89453745,11.6552274 3.82912791,12.6257181 4.98123084,12.6257181 C6.1344035,12.6257181 7.06756765,11.653744 7.06756765,10.455557 C7.06756765,9.2562574 6.13297719,8.28576668 4.98123084,8.28576668 L4.98123084,8.28576668 Z M4.98123084,11.3667131 C4.49521527,11.3667131 4.10084021,10.9569339 4.10084021,10.4514777 C4.10084021,9.94565069 4.49521527,9.53587146 4.98123084,9.53587146 C5.46724641,9.53587146 5.86162147,9.94565069 5.86162147,10.4514777 C5.86162147,10.9569339 5.46724641,11.3667131 4.98123084,11.3667131 L4.98123084,11.3667131 Z" id="Fill-2"></path>
                        <path d="M23.2251783,8.28428332 C22.0720057,8.28428332 21.1384849,9.2562574 21.1384849,10.4540736 C21.1384849,11.653744 22.0730754,12.6242347 23.2251783,12.6242347 C24.378351,12.6242347 25.3115151,11.6522607 25.3115151,10.4540736 C25.3115151,9.25477403 24.378351,8.28428332 23.2251783,8.28428332 L23.2251783,8.28428332 Z M23.2251783,11.3667131 C22.7391628,11.3667131 22.3447877,10.9569339 22.3447877,10.4514777 C22.3447877,9.94565069 22.7391628,9.53587146 23.2251783,9.53587146 C23.7111939,9.53587146 24.105569,9.94565069 24.105569,10.4514777 C24.105569,10.9569339 23.7111939,11.3667131 23.2251783,11.3667131 L23.2251783,11.3667131 Z" id="Fill-3"></path>
                        <rect id="Rectangle-78" x="32.3281796" y="0.0370233284" width="30.9997555" height="0.89101877"></rect>
                        <rect id="Rectangle-78" x="32.6621834" y="13.3851802" width="16.077044" height="0.89101877"></rect>
                        <rect id="Rectangle-78" x="32.3281796" y="6.90141318" width="30.9997555" height="0.89101877"></rect>
                    </g>
                </g>
            </g>
        </g>
    </g>
</svg>