<?xml version="1.0" encoding="UTF-8" standalone="no"?>
<svg width="82px" height="52px" viewBox="0 0 82 52" version="1.1" xmlns="http://www.w3.org/2000/svg" xmlns:xlink="http://www.w3.org/1999/xlink">
    <!-- Generator: sketchtool 3.8.3 (29802) - http://www.bohemiancoding.com/sketch -->
    <title>B1819F19-251B-4135-8B81-3983F35580E2</title>
    <desc>Created with sketchtool.</desc>
    <defs>
        <rect id="path-1" x="0" y="0" width="140" height="140" rx="5"></rect>
        <mask id="mask-2" maskContentUnits="userSpaceOnUse" maskUnits="objectBoundingBox" x="0" y="0" width="140" height="140" fill="white">
            <use xlink:href="#path-1"></use>
        </mask>
    </defs>
    <g id="Page-1" stroke="none" stroke-width="1" fill="none" fill-rule="evenodd">
        <g id="02" transform="translate(-530.000000, -559.000000)">
            <g id="Group-6" transform="translate(470.000000, 212.000000)" fill="#F3F3F3">
                <rect id="Rectangle-160" x="0" y="0" width="500" height="600" rx="3"></rect>
            </g>
            <g id="Group-4" transform="translate(501.000000, 515.000000)">
                <use id="Rectangle-186" stroke="#20c7a0" mask="url(#mask-2)" stroke-width="2" xlink:href="#path-1"></use>
                <g id="Group-2" transform="translate(29.000000, 44.000000)" fill="#20c7a0">
                    <path d="M4.28305865,0.313063783 C2.08305865,0.313063783 0.283058647,2.11306378 0.283058647,4.31306378 L0.283058647,47.2130638 C0.283058647,49.4130638 2.08305865,51.2130638 4.28305865,51.2130638 L77.5830586,51.2130638 C79.7830586,51.2130638 81.5830586,49.4130638 81.5830586,47.2130638 L81.5830586,4.31306378 C81.5830586,2.11306378 79.7830586,0.313063783 77.5830586,0.313063783 L4.28305865,0.313063783 Z M21.3830586,37.6130638 L21.3830586,37.6130638 C21.4830586,37.6130638 9.98305865,37.6130638 9.98305865,37.6130638 L10.1830586,36.4130638 C10.6830586,35.1130638 10.6830586,34.2130638 12.0830586,33.6130638 C13.8830586,32.8130638 16.7830586,32.0130638 17.7830586,31.1130638 C18.2830586,30.6130638 18.3830586,30.1130638 18.3830586,29.5130638 C18.3830586,29.3130638 18.3830586,29.1130638 18.2830586,28.9130638 C17.4830586,28.6130638 16.9830586,27.0130638 16.7830586,26.5130638 C16.4830586,26.4130638 16.2830586,26.3130638 16.1830586,26.1130638 C15.2830586,24.6130638 14.8830586,23.5130638 15.7830586,23.4130638 C15.7830586,23.4130638 15.6830586,22.9130638 15.6830586,22.0130638 L15.1830586,20.5130638 C15.1830586,20.5130638 15.1830586,20.1130638 15.5830586,19.0130638 C15.9830586,17.8130638 15.4830586,16.9130638 17.1830586,17.1130638 C17.1830586,17.1130638 16.9830586,15.4130638 21.5830586,14.3130638 C26.1830586,13.2130638 24.8830586,15.8130638 27.2830586,17.0130638 C27.2830586,17.0130638 27.6830586,18.1130638 26.7830586,18.9130638 C27.5830586,21.1130638 27.0830586,23.5130638 27.0830586,23.5130638 C27.8830586,23.6130638 27.5830586,24.7130638 26.6830586,26.2130638 C26.5830586,26.4130638 26.2830586,26.5130638 26.0830586,26.6130638 C25.8830586,27.1130638 25.3830586,28.7130638 24.5830586,29.0130638 C24.4830586,29.2130638 24.4830586,29.4130638 24.4830586,29.6130638 C24.4830586,30.2130638 24.5830586,30.7130638 25.0830586,31.2130638 C26.0830586,32.2130638 28.9830586,33.0130638 30.7830586,33.7130638 C32.1830586,34.3130638 32.1830586,35.2130638 32.6830586,36.5130638 L32.8830586,37.7130638 C32.7830586,37.6130638 21.2830586,37.6130638 21.3830586,37.6130638 L21.3830586,37.6130638 Z M38.3830586,19.1130638 C38.3830586,18.8369214 38.6140146,18.6130638 38.8809394,18.6130638 L68.7851779,18.6130638 C69.0601498,18.6130638 69.2830586,18.8449974 69.2830586,19.1130638 L69.2830586,19.1130638 C69.2830586,19.3892062 69.0521027,19.6130638 68.7851779,19.6130638 L38.8809394,19.6130638 C38.6059675,19.6130638 38.3830586,19.3811302 38.3830586,19.1130638 L38.3830586,19.1130638 Z M38.3830586,25.7630638 C38.3830586,25.4869214 38.6140146,25.2630638 38.8809394,25.2630638 L68.7851779,25.2630638 C69.0601498,25.2630638 69.2830586,25.4949974 69.2830586,25.7630638 L69.2830586,25.7630638 C69.2830586,26.0392062 69.0521027,26.2630638 68.7851779,26.2630638 L38.8809394,26.2630638 C38.6059675,26.2630638 38.3830586,26.0311302 38.3830586,25.7630638 L38.3830586,25.7630638 Z M38.3830586,32.4130638 C38.3830586,32.1369214 38.6148942,31.9130638 38.8918617,31.9130638 L54.2742556,31.9130638 C54.5552598,31.9130638 54.7830586,32.1449974 54.7830586,32.4130638 L54.7830586,32.4130638 C54.7830586,32.6892062 54.5512231,32.9130638 54.2742556,32.9130638 L38.8918617,32.9130638 C38.6108575,32.9130638 38.3830586,32.6811302 38.3830586,32.4130638 L38.3830586,32.4130638 Z" id="Shape"></path>
                </g>
            </g>
        </g>
    </g>
</svg>
