<svg xmlns="http://www.w3.org/2000/svg" width="48" height="48" viewBox="-6.5 -12 48 48">
  <circle fill="#EDEEEF" cx="17.5" cy="12" r="24"/>
  <path fill="#FFF" stroke="#2C3E4F" stroke-width="2" d="M4 1h27c1.656 0 3 1.343 3 3v16c0 1.656-1.344 3-3 3H4c-1.657 0-3-1.344-3-3V4c0-1.657 1.343-3 3-3z"/>
  <g fill="#2C3E4F">
    <path d="M17 11h8c.553 0 1 .448 1 1 0 .553-.447 1-1 1h-8c-.552 0-1-.447-1-1 0-.552.448-1 1-1zM17 7h12c.553 0 1 .448 1 1s-.447 1-1 1H17c-.552 0-1-.448-1-1s.448-1 1-1z"/>
  </g>
  <path fill="#FFF" stroke="#2C3E4F" stroke-width="2" d="M5.01 18h8.979c.014-.078.014-.169.003-.211C13.379 15.538 11.554 14 9.5 14c-2.055 0-3.88 1.539-4.493 3.791-.011.041-.01.131.003.209zm8.964.073c-.002.003-.004.005-.005.005.001-.003.002-.006.004-.01l.001.005zM9.5 11c1.275 0 2.5-1.369 2.5-2.733C12 7.031 10.896 6 9.5 6c-.936 0-1.771.469-2.203 1.195C7.103 7.522 7 7.887 7 8.267 7 9.631 8.225 11 9.5 11z"/>
</svg>