<svg xmlns="http://www.w3.org/2000/svg" width="48" height="48" viewBox="-6 -15 48 48">
  <path fill="#fff" d="M3.13 16C.97 16 0 12.32 0 9.561 0 7.3.79 5.38 2.34 3.85l-.58-1.17a1 1 0 0 1-.2-1.07c.14-.36.48-.6.85-.6l3.49.55A22.573 22.573 0 0 1 14.29 0c7.59 0 12.64 3.81 13.7 4.69 5.539.15 8.01 4.15 8.01 5.65v3.12c0 1.47-1.439 2.54-2.41 2.54H3.13z"/>
  <g fill="#2c3e4f">
    <path d="M11 14h15v2H11v-2zm21.1 2a.95.95 0 0 1-.93-.969v-.012c0-.539.42-1.02.93-1.02h1.49C34 14 34 13.28 34 13v-2.66c0-.63-1.67-3.7-6.35-3.7a.896.896 0 0 1-.61-.24c-.2-.18-5.08-4.44-12.75-4.44-1.35 0-4.83.14-7.89 1.48a.865.865 0 0 1-.35.08L4 3c.06.15.66.82.65.98a1 1 0 0 1-.38.72 5.85 5.85 0 0 0-2.41 4.86c0 3.5 1.15 4.33 1.27 4.479.48.05 1.04.47 1.04.979C4.17 15.29 4 16 4 16h-.87C.97 16 0 12.32 0 9.561 0 7.3.79 5.38 2.34 3.85l-.58-1.17a1 1 0 0 1-.2-1.07c.14-.36.48-.6.85-.6l3.49.55A22.573 22.573 0 0 1 14.29 0c7.59 0 12.64 3.81 13.7 4.69 5.539.15 8.01 4.15 8.01 5.65v3.12c0 1.47-1.439 2.54-2.41 2.54H32.1zM18 4a1 1 0 0 1 1 1v2a1 1 0 1 1-2 0V5a1 1 0 0 1 1-1z"/>
    <path d="M18 6h5a1 1 0 1 1 0 2h-5a1 1 0 1 1 0-2z"/>
  </g>
  <g fill="#fff" stroke="#2c3e4f" stroke-width="2">
    <circle cx="28.5" cy="13.5" r="3.5"/>
    <circle cx="7.5" cy="13.5" r="3.5"/>
  </g>
</svg>
