<svg width="82" height="51" viewBox="0 0 82 51" xmlns="http://www.w3.org/2000/svg">
    <title>national-id-card</title>
    <path d="M4 0C1.8 0 0 1.8 0 4v42.9c0 2.2 1.8 4 4 4h73.3c2.2 0 4-1.8 4-4V4c0-2.2-1.8-4-4-4H4zm17.1 37.3H9.7l.2-1.2c.5-1.3.5-2.2 1.9-2.8 1.8-.8 4.7-1.6 5.7-2.5.4-.4.6-1 .6-1.6 0-.2 0-.4-.1-.6-.8-.3-1.3-1.9-1.5-2.4-.2 0-.5-.2-.6-.4-.9-1.5-1.3-2.6-.4-2.7-.1-.5-.1-.9-.1-1.4l-.5-1.5c.1-.5.2-1 .4-1.5.4-1.2-.1-2.1 1.6-1.9 0 0-.2-1.7 4.4-2.8 4.6-1.1 3.3 1.5 5.7 2.7.2.7 0 1.4-.5 1.9.5 1.5.6 3.1.3 4.6.8.1.5 1.2-.4 2.7-.1.2-.4.3-.6.4-.2.5-.7 2.1-1.5 2.4-.1.2-.1.4-.1.6 0 .6.2 1.2.6 1.6 1 1 3.9 1.8 5.7 2.5 1.4.6 1.4 1.5 1.9 2.8l.2 1.2c-.1-.1-11.6-.1-11.5-.1zm17-18.5c0-.3.2-.5.4-.5h30c.3 0 .5.2.5.4v.1c0 .3-.2.5-.4.5h-30c-.3 0-.5-.2-.5-.5zm0 6.7c0-.3.2-.5.4-.5h30c.3 0 .5.2.5.4v.1c0 .3-.2.5-.4.5h-30c-.3 0-.5-.2-.5-.5zm0 6.6c0-.3.2-.5.4-.5H54c.3 0 .5.2.5.4v.1c0 .3-.2.5-.4.5H38.6c-.3 0-.5-.2-.5-.5z" fill-rule="nonzero" fill="#8A9293" />
</svg>
