<svg xmlns="http://www.w3.org/2000/svg" width="48" height="48"  fill-rule="evenodd" xmlns:v="https://vecta.io/nano"><g fill="#fff"><rect stroke="#2c3e4f" stroke-width="1.333" x="12.667" y="8.667" width="22.667" height="38.667" rx="2.667"/><circle stroke="#283e4f" stroke-width=".667" cx="24" cy="43" r="1.667"/></g><g fill="#2c3e4f"><rect x="19.333" y="11.333" width="9.333" height="1" rx=".5"/><path d="M37.5 9h2.333a.5.5 0 1 1 0 1H37.5a.5.5 0 1 1 0-1zm-2-4.333V7a.5.5 0 1 1-1 0V4.667a.5.5 0 1 1 1 0zm1.187 2.337l1.65-1.65a.5.5 0 0 1 .838.223.5.5 0 0 1-.131.484l-1.65 1.65a.5.5 0 0 1-.838-.223.5.5 0 0 1 .131-.484z"/></g><rect stroke="#8b9094" stroke-width=".5" fill="#f3f3f4" x="14.917" y="20.25" width="18.167" height="4.833" rx=".667"/><path d="M16.667 22.667c.368 0 .667-.298.667-.667s-.298-.667-.667-.667S16 21.632 16 22s.298.667.667.667z" fill="#353ff4"/><g fill="#8b9094"><rect x="18.334" y="21.667" width="10.333" height="1" rx=".5"/><rect x="18.334" y="23.333" width="13" height="1" rx=".5"/></g></svg>