<svg width="48" height="48" xmlns="http://www.w3.org/2000/svg">
  <g fill="none" fill-rule="evenodd">
    <circle fill="#EDEEEF" cx="24" cy="24" r="24"/>
    <g transform="translate(12 4)">
      <rect stroke="#2C3E4F" stroke-width="1.3333" fill="#FFF" x=".6667" y="4.6667" width="22.6667" height="38.6667" rx="2.6667"/>
      <circle stroke="#283E4F" stroke-width=".6667" fill="#FFF" cx="12" cy="39" r="1.6667"/>
      <rect fill="#2C3E4F" x="7.3333" y="7.3333" width="9.3333" height="1" rx=".5"/>
      <g fill="#2C3E4F">
        <path d="M25.5 5h2.3333a.5.5 0 0 1 0 1H25.5a.5.5 0 1 1 0-1zM23.5.6667V3a.5.5 0 1 1-1 0V.6667a.5.5 0 0 1 1 0zM24.6869 3.0035l1.6499-1.65a.5.5 0 1 1 .7071.7071l-1.65 1.65a.5.5 0 1 1-.7071-.7071z"/>
      </g>
      <g transform="translate(2.6667 16)">
        <rect stroke="#8B9094" stroke-width=".5" fill="#F3F3F4" x=".25" y=".25" width="18.1667" height="4.8333" rx=".6667"/>
        <path d="M2 2.6667a.6667.6667 0 1 0 0-1.3334.6667.6667 0 0 0 0 1.3334z" fill="#353FF4"/>
        <rect fill="#8B9094" x="3.6667" y="1.6667" width="10.3333" height="1" rx=".5"/>
        <rect fill="#8B9094" x="3.6667" y="3.3333" width="13" height="1" rx=".5"/>
      </g>
    </g>
  </g>
</svg>
