<svg xmlns="http://www.w3.org/2000/svg" width="48" height="48" fill="none">
    <g fill="#1e1e24">
        <rect x="22.564" y="40.256" width="13.949" height="1.744" rx=".872"/>
        <rect x="28.667" y="36.769" width="1.744" height="4.359" rx=".872"/>
    </g>
    <g fill="#f7f9fa" stroke="#1e1e24">
        <rect x="6.872" y="8.872" width="12.205" height="20.923" rx="1.744" stroke-width="1.744"/>
        <path d="M13.41 26.744a.87.87 0 1 1-1.744 0 .87.87 0 1 1 1.744 0z" stroke-width=".872"/>
        <path d="M17.65 20.205c-.657 0-1.189.53-1.189 1.183v14.198c0 .654.532 1.183 1.189 1.183h23.776c.657 0 1.189-.53 1.189-1.183V21.388c0-.653-.532-1.183-1.189-1.183H17.65z" stroke-width="1.744"/>
    </g>
    <g fill-rule="evenodd">
        <path d="M22.564 34.59c0-.241.195-.436.436-.436h13.077a.436.436 0 1 1 0 .872H23a.436.436 0 0 1-.436-.436z" fill="#1e1e24"/>
        <path d="M12.975 21.949a3.49 3.49 0 0 0 3.487-3.487 3.49 3.49 0 0 0-3.487-3.487 3.49 3.49 0 0 0-3.487 3.487 3.49 3.49 0 0 0 3.487 3.487z" fill="#3640f5"/>
        <path d="m13.958 16.882-1.574 1.974-.393-.493c-.174-.217-.456-.217-.63 0s-.174.573 0 .79l.708.889c.174.218.456.218.63 0l1.889-2.369a.663.663 0 0 0 0-.79.38.38 0 0 0-.63 0z" fill="#f7f9fa"/>
    </g>
    <rect x="10.359" y="10.616" width="5.231" height=".872" rx=".436" fill="#1e1e24"/>
</svg>
