<svg width="23" height="37" viewBox="0 0 23 37" fill="none" xmlns="http://www.w3.org/2000/svg">
<g id="icons/face-verification">
<rect id="Rectangle 5" x="1.425" y="0.925" width="20.35" height="35.15" rx="2.775" fill="#F7F9FA" stroke="#1E1E24" stroke-width="1.85"/>
<path id="Oval" d="M12.9875 32.3751C12.9875 33.1414 12.3663 33.7626 11.6 33.7626C10.8337 33.7626 10.2125 33.1414 10.2125 32.3751C10.2125 31.6089 10.8337 30.9876 11.6 30.9876C12.3663 30.9876 12.9875 31.6089 12.9875 32.3751Z" fill="#F7F9FA" stroke="#1E1E24" stroke-width="0.925"/>
<path id="Oval 5" d="M18.5375 16.65C18.5375 20.4815 15.4314 23.5875 11.6 23.5875C7.76848 23.5875 4.66245 20.4815 4.66245 16.65C4.66245 12.8185 7.76848 9.7125 11.6 9.7125C15.4314 9.7125 18.5375 12.8185 18.5375 16.65Z" fill="#F7F9FA" stroke="#1E1E24" stroke-width="0.925"/>
<mask id="mask0" mask-type="alpha" maskUnits="userSpaceOnUse" x="4" y="9" width="15" height="16">
<path id="Oval 5_2" d="M18.5375 16.65C18.5375 20.4815 15.4314 23.5875 11.6 23.5875C7.76848 23.5875 4.66245 20.4815 4.66245 16.65C4.66245 12.8185 7.76848 9.7125 11.6 9.7125C15.4314 9.7125 18.5375 12.8185 18.5375 16.65Z" fill="white" stroke="white" stroke-width="0.925"/>
</mask>
<g mask="url(#mask0)">
<g id="Group">
<path id="Oval Copy" fill-rule="evenodd" clip-rule="evenodd" d="M13.4499 18.5001C13.9608 18.5001 14.3749 18.086 14.3749 17.5751C14.3749 17.0643 13.9608 16.6501 13.4499 16.6501C12.939 16.6501 12.5249 17.0643 12.5249 17.5751C12.5249 18.086 12.939 18.5001 13.4499 18.5001Z" fill="#1E1E24"/>
<path id="Oval_2" fill-rule="evenodd" clip-rule="evenodd" d="M9.74995 18.5001C10.2608 18.5001 10.675 18.086 10.675 17.5751C10.675 17.0643 10.2608 16.6501 9.74995 16.6501C9.23909 16.6501 8.82495 17.0643 8.82495 17.5751C8.82495 18.086 9.23909 18.5001 9.74995 18.5001Z" fill="#1E1E24"/>
</g>
<path id="Combined Shape" fill-rule="evenodd" clip-rule="evenodd" d="M21.775 8.78735C21.775 12.108 19.0832 14.7999 15.7625 14.7999C12.4419 14.7999 9.75005 12.108 9.75005 8.78735C9.75005 5.46674 12.4419 2.77485 15.7625 2.77485C19.0832 2.77485 21.775 5.46674 21.775 8.78735ZM15.7625 15.7249C19.594 15.7249 22.7 12.6188 22.7 8.78735C22.7 4.95588 19.594 1.84985 15.7625 1.84985C12.3994 1.84985 9.59523 4.24295 8.95993 7.41918C7.80007 5.20823 5.48242 3.7 2.8125 3.7C-1.01898 3.7 -4.125 6.80602 -4.125 10.6375C-4.125 14.469 -1.01898 17.575 2.8125 17.575C6.17563 17.575 8.97982 15.1819 9.61512 12.0057C10.775 14.2166 13.0926 15.7249 15.7625 15.7249ZM8.825 10.6375C8.825 13.9581 6.13311 16.65 2.8125 16.65C-0.508112 16.65 -3.2 13.9581 -3.2 10.6375C-3.2 7.31688 -0.508112 4.625 2.8125 4.625C6.13311 4.625 8.825 7.31688 8.825 10.6375Z" fill="#1E1E24"/>
</g>
</g>
</svg>
