<svg width="23" height="37" fill="none" xmlns="http://www.w3.org/2000/svg">
  <rect x="1.425" y=".925" width="20.35" height="35.15" rx="2.775" fill="#F7F9FA" stroke="#1E1E24" stroke-width="1.85"/>
  <path d="M12.988 32.375a1.387 1.387 0 1 1-2.775 0 1.387 1.387 0 0 1 2.775 0zM18.538 16.65a6.938 6.938 0 1 1-13.876 0 6.938 6.938 0 0 1 13.876 0z" fill="#F7F9FA" stroke="#1E1E24" stroke-width=".925"/>
  <mask id="a" mask-type="alpha" maskUnits="userSpaceOnUse" x="4" y="9" width="15" height="16">
    <path d="M18.538 16.65a6.938 6.938 0 1 1-13.876 0 6.938 6.938 0 0 1 13.876 0z" fill="#fff" stroke="#fff" stroke-width=".925"/>
  </mask>
  <g mask="url(#a)" fill-rule="evenodd" clip-rule="evenodd" fill="#1E1E24">
    <path d="M13.45 18.5a.925.925 0 1 0 0-1.85.925.925 0 0 0 0 1.85zM9.75 18.5a.925.925 0 1 0 0-1.85.925.925 0 0 0 0 1.85z"/>
    <path d="M21.775 8.787a6.012 6.012 0 1 1-12.025 0 6.012 6.012 0 0 1 12.025 0zm-6.012 6.938A6.938 6.938 0 1 0 8.96 7.419a6.937 6.937 0 1 0 .655 4.587 6.937 6.937 0 0 0 6.147 3.719zm-6.938-5.088a6.013 6.013 0 1 1-12.025 0 6.013 6.013 0 0 1 12.025 0z"/>
  </g>
</svg>
