<svg xmlns="http://www.w3.org/2000/svg" xmlns:xlink="http://www.w3.org/1999/xlink" height="48" width="48">
  <defs>
    <circle id="a" cx="8" cy="8" r="7.5" />
  </defs>
  <g fill="none" fill-rule="evenodd">
    <g fill-rule="nonzero">
      <rect x="14.425" y="5.925" width="20.35" height="35.15" rx="2.775" fill="#F7F9FA" stroke="#1E1E24" stroke-width="1.85"/>
      <rect x="20.35" y="8.5" width="8" height="1" rx=".5" fill="#1E1E24"/>
      <path d="M25.988 37.375a1.387 1.387 0 1 1-2.775 0 1.387 1.387 0 0 1 2.774 0zm5.55-15.725a6.938 6.938 0 1 1-13.876 0 6.938 6.938 0 0 1 13.876 0z" fill="#F7F9FA" stroke="#1E1E24" stroke-width=".925"/>
    </g>
    <g stroke="#1E1E24">
      <g transform="translate(17.05 14.05)">
        <mask id="b" fill="#fff">
          <use href="#a"/>
        </mask>
        <circle cx="12.85" cy="-.85" r="7.35" mask="url(#b)"/>
        <circle cx="-1.65" cy=".85" r="7.35" mask="url(#b)"/>
      </g>
    </g>
    <g fill="#1E1E24" fill-rule="nonzero">
      <circle cx="22.5" cy="23" r="1"/>
      <circle cx="26.5" cy="23" r="1"/>
    </g>
  </g>
</svg>
