<svg xmlns="http://www.w3.org/2000/svg" width="48" height="48" fill="none" fill-rule="evenodd">
    <rect stroke="#2c3e4f" stroke-width="1.333" fill="#fff" x="15.334" y="8.667" width="17.333" height="30.667" rx="2.667"/>
    <rect fill="#2c3e4f" x="20.667" y="10.667" width="6.667" height="1" rx=".5"/>
    <g fill="#fff" stroke-width=".667">
        <circle stroke="#2c3e4f" cx="24" cy="36.667" r="1"/>
        <path d="M6.708 20.165A1 1 0 0 0 6 21.39l2.761 10.303a1 1 0 0 0 1.225.707l18.031-4.831a1 1 0 0 0 .707-1.225l-2.761-10.303a1 1 0 0 0-1.225-.707l-18.03 4.831z" stroke="#283e4f"/>
    </g>
    <g fill="#283e4f">
        <g transform="rotate(345 86.665 -52.339)">
            <rect y="4" width="6" height="1" rx=".5"/>
            <rect y="2" width="8.667" height="1" rx=".5"/>
            <rect width="8.667" height="1" rx=".5"/>
        </g>
        <path d="M13.054 28.472c1.198-.321 2.821.362 3.929 1.708l.644-.172c-1.281-1.717-3.081-2.625-4.745-2.18-1.638.439-2.708 2.171-2.982 4.25l.644-.172c.308-1.712 1.365-3.127 2.511-3.433z" fill-rule="nonzero"/>
    </g>
    <path d="M12.964 26.771c1.339-.359 2.165-2.225 1.742-3.803-.398-1.484-1.875-2.373-3.295-1.993-.944.253-1.656 1.016-1.882 1.982a2.85 2.85 0 0 0 .025 1.391c.423 1.577 2.07 2.781 3.41 2.422z" stroke="#283e4f" stroke-width=".667"/>
    <path fill="#283e4f" d="M14.667 16H16v20.667h-1.333z"/>
    <path fill-opacity=".67" fill="#fff" d="M16 14.667h16v18H16z"/>
    <path stroke="#fff" stroke-width=".667" d="M16.333 14.333h15.333v17.333H16.333z"/>
</svg>
