<svg width="49" height="48" fill="none" xmlns="http://www.w3.org/2000/svg">
  <g clip-path="url(#a)">
    <rect x="13.925" y="6.925" width="20.35" height="35.15" rx="2.775" fill="#F7F9FA" stroke="#1E1E24" stroke-width="1.85"/>
    <path d="M25.488 38.375a1.387 1.387 0 1 1-2.775 0 1.387 1.387 0 0 1 2.774 0zm5.55-15.725a6.938 6.938 0 1 1-13.876 0 6.938 6.938 0 0 1 13.876 0z" fill="#F7F9FA" stroke="#1E1E24" stroke-width=".925"/>
    <rect x="20.4" y="8.775" width="7.4" height=".925" rx=".463" fill="#1E1E24"/>
    <path d="M31.054 20.114a6.013 6.013 0 0 1-8.765-4.64 7.36 7.36 0 0 0-1.02.337 6.015 6.015 0 0 1-4.567 6.678 7.21 7.21 0 0 0 .038.939 6.946 6.946 0 0 0 5.375-5.422 6.937 6.937 0 0 0 6.148 3.719 6.91 6.91 0 0 0 3.056-.708 7.35 7.35 0 0 0-.265-.903z" fill="#1E1E24"/>
    <path fill-rule="evenodd" clip-rule="evenodd" d="M25.95 24.5a.925.925 0 1 0 0-1.85.925.925 0 0 0 0 1.85zm-3.7 0a.925.925 0 1 0 0-1.85.925.925 0 0 0 0 1.85z" fill="#1E1E24"/>
  </g>
  <defs>
    <clipPath id="a">
      <path fill="#fff" transform="translate(.5)" d="M0 0h48v48H0z"/>
    </clipPath>
  </defs>
</svg>
