<svg width="49" height="48" fill="none" xmlns="http://www.w3.org/2000/svg">
    <g clip-path="url(#prefix__clip0)">
        <rect x="13.925" y="6.925" width="20.35" height="35.15" rx="2.775" fill="#F7F9FA" stroke="#1E1E24" stroke-width="1.85"/>
        <path d="M25.488 38.375a1.387 1.387 0 11-2.775 0 1.387 1.387 0 012.774 0zM31.038 22.65a6.938 6.938 0 11-13.876 0 6.938 6.938 0 0113.876 0z" fill="#F7F9FA" stroke="#1E1E24" stroke-width=".925"/>
        <rect x="20.4" y="8.775" width="7.4" height=".925" rx=".463" fill="#1E1E24"/>
        <path d="M31.054 20.114a6.013 6.013 0 01-8.765-4.64 7.36 7.36 0 00-1.02.337 6.015 6.015 0 01-4.567 6.678 7.21 7.21 0 00.038.939 6.946 6.946 0 005.375-5.422 6.937 6.937 0 006.148 3.719 6.91 6.91 0 003.056-.708 7.35 7.35 0 00-.265-.903z" fill="#1E1E24"/>
        <path fill-rule="evenodd" clip-rule="evenodd" d="M25.95 24.5a.925.925 0 100-1.85.925.925 0 000 1.85zM22.25 24.5a.925.925 0 100-1.85.925.925 0 000 1.85z" fill="#1E1E24"/>
    </g>
    <defs>
        <clipPath id="prefix__clip0">
            <path fill="#fff" transform="translate(.5)" d="M0 0h48v48H0z"/>
        </clipPath>
    </defs>
</svg>
