<svg width="49" height="48" viewBox="0 0 49 48" fill="none" xmlns="http://www.w3.org/2000/svg">
<g clip-path="url(#clip0)">
<path fill-rule="evenodd" clip-rule="evenodd" d="M24.5 48C37.7548 48 48.5 37.2548 48.5 24C48.5 10.7452 37.7548 0 24.5 0C11.2452 0 0.5 10.7452 0.5 24C0.5 37.2548 11.2452 48 24.5 48Z" fill="#D5DAE0"/>
<rect x="14.425" y="5.925" width="20.35" height="35.15" rx="2.775" fill="#F7F9FA" stroke="#1E1E24" stroke-width="1.85"/>
<path d="M25.9875 37.3751C25.9875 38.1414 25.3663 38.7626 24.6 38.7626C23.8337 38.7626 23.2125 38.1414 23.2125 37.3751C23.2125 36.6089 23.8337 35.9876 24.6 35.9876C25.3663 35.9876 25.9875 36.6089 25.9875 37.3751Z" fill="#F7F9FA" stroke="#1E1E24" stroke-width="0.925"/>
<path d="M31.5375 21.65C31.5375 25.4815 28.4314 28.5875 24.6 28.5875C20.7685 28.5875 17.6625 25.4815 17.6625 21.65C17.6625 17.8185 20.7685 14.7125 24.6 14.7125C28.4314 14.7125 31.5375 17.8185 31.5375 21.65Z" fill="#F7F9FA" stroke="#1E1E24" stroke-width="0.925"/>
<mask id="mask0" mask-type="alpha" maskUnits="userSpaceOnUse" x="17" y="14" width="15" height="16">
<path d="M31.5375 21.65C31.5375 25.4815 28.4314 28.5875 24.6 28.5875C20.7685 28.5875 17.6625 25.4815 17.6625 21.65C17.6625 17.8185 20.7685 14.7125 24.6 14.7125C28.4314 14.7125 31.5375 17.8185 31.5375 21.65Z" fill="white" stroke="white" stroke-width="0.925"/>
</mask>
<g mask="url(#mask0)">
<path fill-rule="evenodd" clip-rule="evenodd" d="M26.4499 23.5001C26.9608 23.5001 27.3749 23.086 27.3749 22.5751C27.3749 22.0643 26.9608 21.6501 26.4499 21.6501C25.939 21.6501 25.5249 22.0643 25.5249 22.5751C25.5249 23.086 25.939 23.5001 26.4499 23.5001Z" fill="#1E1E24"/>
<path fill-rule="evenodd" clip-rule="evenodd" d="M22.75 23.5001C23.2608 23.5001 23.675 23.086 23.675 22.5751C23.675 22.0643 23.2608 21.6501 22.75 21.6501C22.2391 21.6501 21.825 22.0643 21.825 22.5751C21.825 23.086 22.2391 23.5001 22.75 23.5001Z" fill="#1E1E24"/>
<path fill-rule="evenodd" clip-rule="evenodd" d="M34.775 13.7874C34.775 17.108 32.0832 19.7999 28.7625 19.7999C25.4419 19.7999 22.75 17.108 22.75 13.7874C22.75 10.4667 25.4419 7.77485 28.7625 7.77485C32.0832 7.77485 34.775 10.4667 34.775 13.7874ZM28.7625 20.7249C32.594 20.7249 35.7 17.6188 35.7 13.7874C35.7 9.95588 32.594 6.84985 28.7625 6.84985C25.3994 6.84985 22.5952 9.24295 21.9599 12.4192C20.8001 10.2082 18.4824 8.7 15.8125 8.7C11.981 8.7 8.875 11.806 8.875 15.6375C8.875 19.469 11.981 22.575 15.8125 22.575C19.1756 22.575 21.9798 20.1819 22.6151 17.0057C23.775 19.2166 26.0926 20.7249 28.7625 20.7249ZM21.825 15.6375C21.825 18.9581 19.1331 21.65 15.8125 21.65C12.4919 21.65 9.8 18.9581 9.8 15.6375C9.8 12.3169 12.4919 9.625 15.8125 9.625C19.1331 9.625 21.825 12.3169 21.825 15.6375Z" fill="#1E1E24"/>
</g>
</g>
<defs>
<clipPath id="clip0">
<rect width="48" height="48" fill="white" transform="translate(0.5)"/>
</clipPath>
</defs>
</svg>
