<?xml version="1.0" encoding="UTF-8" standalone="no"?>
<svg width="47px" height="43px" viewBox="0 0 47 43" version="1.1" xmlns="http://www.w3.org/2000/svg" xmlns:xlink="http://www.w3.org/1999/xlink">
    <!-- Generator: sketchtool 3.8.3 (29802) - http://www.bohemiancoding.com/sketch -->
    <title>E5C2839F-CF3B-4CE6-BC83-EE4E41D1604F</title>
    <desc>Created with sketchtool.</desc>
    <defs></defs>
    <g id="Page-1" stroke="none" stroke-width="1" fill="none" fill-rule="evenodd">
        <g id="08" transform="translate(-697.000000, -360.000000)">
            <rect id="Rectangle-160" fill="#F3F3F3" x="470" y="213" width="500" height="600" rx="3"></rect>
            <path d="M713.693755,402.826033 C712.867822,402.826033 712.093511,402.516308 711.525682,401.94848 L698.001041,388.010872 C696.710522,386.823594 696.658901,384.810384 697.8978,383.519865 C699.085077,382.229346 701.098287,382.177725 702.388806,383.416624 L712.299994,390.488669 C712.867822,391.004877 713.745376,390.901635 714.209962,390.282186 L737.697412,361.271314 C738.729828,359.877553 740.743038,359.567829 742.136798,360.651865 C743.530559,361.68428 743.840284,363.69749 742.756248,365.091251 L716.223172,401.535513 C715.655344,402.258204 714.829412,402.722791 713.951859,402.774412 C713.848617,402.826033 713.796996,402.826033 713.693755,402.826033" id="Fill-1" fill="#9B9B9B"></path>
        </g>
    </g>
</svg>