<svg width="56" height="56" viewBox="0 0 56 56" xmlns="http://www.w3.org/2000/svg">
  <path d="M 28 52 C 34.625 52 40.625 49.313 44.969 44.969 C 49.313 40.625 52 34.625 52 28 C 52 24.688 51.328 21.531 50.113 18.66 C 48.898 15.789 47.141 13.203 44.969 11.031 C 42.797 8.859 40.211 7.102 37.34 5.887 C 34.469 4.672 31.313 4 28 4 C 21.375 4 15.375 6.688 11.031 11.031 C 6.688 15.375 4 21.375 4 28 C 4 34.625 6.688 40.625 11.031 44.969 C 15.375 49.313 21.375 52 28 52 C 28 52 28 52 28 52" fill="#3640f5"/>
  <path d="M 24.94 35.61 L 38.27 22.28 L 36.38 20.39 L 24 32.78 L 18.28 27.06 L 16.39 28.95 L 23.06 35.62 C 23.31 35.86 23.65 36 24 36 C 24.35 36 24.69 35.86 24.94 35.61 Z" fill="#ffffff"/>
</svg>
