<?xml version="1.0" encoding="UTF-8" standalone="no"?>
<svg width="144px" height="152px" viewBox="0 0 144 152" version="1.1" xmlns="http://www.w3.org/2000/svg" xmlns:xlink="http://www.w3.org/1999/xlink">
    <!-- Generator: Sketch 46.2 (44496) - http://www.bohemiancoding.com/sketch -->
    <title>mobile-notification-large</title>
    <desc>Created with Sketch.</desc>
    <defs>
        <rect id="path-1" x="0" y="0" width="72" height="120" rx="8"></rect>
        <circle id="path-2" cx="36" cy="103.5" r="7.5"></circle>
    </defs>
    <g id="Symbols" stroke="none" stroke-width="1" fill="none" fill-rule="evenodd">
        <g id="icons/mobile-notification">
            <g id="mobile-notification-large">
                <circle id="circle-BG" fill="#00C8A0" cx="72" cy="72" r="72"></circle>
                <g id="inset" transform="translate(37.000000, 20.000000)">
                    <g id="cross-device-large-icon" transform="translate(0.000000, 12.000000)">
                        <g id="icons/mobile/x-large">
                            <g id="mobile-large">
                                <g id="mobile">
                                    <g id="Rectangle-5">
                                        <use fill="#FFFFFF" fill-rule="evenodd" xlink:href="#path-1"></use>
                                        <rect stroke="#2C3E4F" stroke-width="4" x="2" y="2" width="68" height="116" rx="8"></rect>
                                    </g>
                                    <g id="Oval">
                                        <use fill="#FFFFFF" fill-rule="evenodd" xlink:href="#path-2"></use>
                                        <circle stroke="#283E4F" stroke-width="2" cx="36" cy="103.5" r="6.5"></circle>
                                    </g>
                                    <rect id="Rectangle-4-Copy-2" fill="#2C3E4F" x="22.5" y="12" width="27" height="3" rx="1.5"></rect>
                                </g>
                            </g>
                        </g>
                    </g>
                    <g id="vibration" transform="translate(69.000000, 0.000000)" fill="#FF5457">
                        <rect id="Rectangle-7" x="0" y="0" width="3" height="10" rx="1.5"></rect>
                        <path d="M9.5,3 L9.5,3 L9.5,3 C10.3284271,3 11,3.67157288 11,4.5 L11,11.5 L11,11.5 C11,12.3284271 10.3284271,13 9.5,13 L9.5,13 L9.5,13 C8.67157288,13 8,12.3284271 8,11.5 L8,4.5 L8,4.5 C8,3.67157288 8.67157288,3 9.5,3 Z" id="Rectangle-7-Copy" transform="translate(9.500000, 8.000000) rotate(45.000000) translate(-9.500000, -8.000000) "></path>
                        <rect id="Rectangle" x="7" y="15" width="10" height="3" rx="1.5"></rect>
                    </g>
                    <g id="icons/message" transform="translate(16.000000, 55.000000)">
                        <g id="message-icon">
                            <g id="container">
                                <path d="M9.78144005,28 L6.06060606,28 C2.7212545,28 0,25.1711826 0,22 L0,5.72641108 C0,2.55522844 2.7212545,0 6.06060606,0 L33.9393939,0 C37.2787455,0 40,2.55522844 40,5.72641108 L40,22 C40,25.1711826 37.2787455,28 33.9393939,28 L20.2301023,28 L6.48820865,35.8786773 C5.7365809,36.3197838 4.88933019,35.4700601 5.35466284,34.741823 L9.78144005,28 Z" id="inner" fill="#2C3E4F" fill-rule="nonzero"></path>
                                <path d="M19.5799999,26 C19.7068985,25.9268116 19.8521539,26 20,26 L33.6859504,26 C36.0767193,26 38,24.1718721 38,22 L38,5.94666707 C38,3.77479495 36.0767193,2 33.6859504,2 L6.31404959,2 C3.92328071,2 2,3.77479495 2,5.94666707 L2,22 C2,24.1718721 3.92328071,26 6.31404959,26 L11.446281,26 C12.08951,26 12.4811897,26.4743129 12.1393889,27 L8.5,33 L19.5799999,26 Z" id="outer" fill="#FFFFFF"></path>
                            </g>
                        </g>
                    </g>
                    <g id="icons/small/exclamation" transform="translate(28.000000, 61.000000)">
                        <circle id="circle" fill="#FF5457" cx="8" cy="8" r="8"></circle>
                        <g id="exclamation" transform="translate(7.000000, 3.000000)" fill="#FFFFFF">
                            <rect id="Rectangle-2" x="0" y="0" width="2" height="7" rx="1"></rect>
                            <circle id="Oval-2" cx="1" cy="9" r="1"></circle>
                        </g>
                    </g>
                </g>
            </g>
        </g>
    </g>
</svg>