<svg width="144" height="152" viewBox="0 0 144 152" xmlns="http://www.w3.org/2000/svg" xmlns:xlink="http://www.w3.org/1999/xlink"><title>mobile-notification-large</title><defs><rect id="a" width="72" height="120" rx="8"/><circle id="b" cx="36" cy="106" r="6"/></defs><g fill="none" fill-rule="evenodd"><circle fill="#00C8A0" cx="72" cy="72" r="72"/><g transform="translate(37 32)"><use fill="#FFF" xlink:href="#a"/><rect stroke="#2C3E4F" stroke-width="4" x="2" y="2" width="68" height="116" rx="8"/><use fill="#FFF" xlink:href="#b"/><circle stroke="#283E4F" stroke-width="2" cx="36" cy="106" r="5"/><rect fill="#2C3E4F" x="22.5" y="10" width="27" height="3" rx="1.5"/></g><g transform="translate(106 20)" fill="#2C3E4F"><rect width="3" height="10" rx="1.5"/><path d="M13.0355339 4.4644661c.58578643.5857864.58578644 1.5355339 0 2.12132034L8.08578645 11.5355339c-.58578642.58578643-1.53553393.58578643-2.12132035 0-.58578644-.58578643-.58578643-1.53553392 0-2.12132034l4.94974746-4.94974747c.58578644-.58578644 1.5355339-.58578644 2.12132035 0z"/><rect x="7" y="15" width="10" height="3" rx="1.5"/></g><path d="M62.78144005 103h-3.720834C55.7212545 103 53 100.1711826 53 97V80.72641108C53 77.55522844 55.7212545 75 59.06060606 75H86.9393939C90.2787455 75 93 77.55522844 93 80.72641108V97c0 3.1711826-2.7212545 6-6.0606061 6H73.2301023l-13.74189365 7.8786773c-.75162775.4411065-1.59887846-.4086172-1.1335458-1.1368543L62.78144004 103z" fill="#2C3E4F" fill-rule="nonzero"/><path d="M72.5799999 101c.1268986-.0731884.272154 0 .4200001 0h13.6859504C89.0767193 101 91 99.1718721 91 97V80.94666707C91 78.77479495 89.0767193 77 86.6859504 77H59.3140496C56.9232807 77 55 78.77479495 55 80.94666707V97c0 2.1718721 1.9232807 4 4.3140496 4h5.1322314c.643229 0 1.0349087.4743129.6931079 1L61.5 108l11.0799999-7z" fill="#FFF"/><g><g transform="translate(65 81)"><circle fill="#00C8A0" cx="8" cy="8" r="8"/><path d="M10.7780591 5.01140806l-3.91172378 4.1509966-.97772776-1.03774915c-.43210745-.4568352-1.13269044-.4568352-1.56452697 0-.43210746.4596552-.43210746 1.20412743 0 1.66096265l1.7601267 1.86964045c.43210744.4596552 1.1324195.4596552 1.56452696 0l4.69385184-4.9828879c.4321074-.4596552.4321074-1.2041274 0-1.66096264-.4321075-.4596552-1.1324195-.4596552-1.564527 0z" fill="#FFF"/></g></g></g></svg>
