<svg xmlns="http://www.w3.org/2000/svg" width="144" height="144" fill="none"  xmlns:v="https://vecta.io/nano"><g fill="#f7f9fa" stroke="#1e1e24"><path d="M93.869 25.884H48.093c-3.889 0-7.042 3.153-7.042 7.042v88.031c0 3.889 3.153 7.042 7.042 7.042h45.776c3.89 0 7.042-3.153 7.042-7.042V32.927c0-3.889-3.153-7.042-7.042-7.042z" stroke-width="3.521"/><path d="M70.981 120.958c2.431 0 4.402-1.971 4.402-4.402a4.4 4.4 0 1 0-8.803 0c0 2.431 1.971 4.402 4.401 4.402z" stroke-width="1.761"/></g><g fill="#1e1e24"><path d="M81.985 32.927H59.977a1.32 1.32 0 1 0 0 2.641h22.008a1.32 1.32 0 1 0 0-2.641z"/><path d="M106.633 26.764h6.163a1.321 1.321 0 1 1 0 2.641h-6.163a1.32 1.32 0 1 1 0-2.641zm-5.281-11.443v6.162a1.321 1.321 0 0 1-2.641 0v-6.162a1.321 1.321 0 0 1 2.641 0zm3.134 6.171l4.357-4.357a1.321 1.321 0 1 1 1.868 1.867l-4.358 4.357a1.32 1.32 0 1 1-1.867-1.867z" fill-rule="evenodd"/></g><path d="M93.429 56.255H48.533a1.76 1.76 0 0 0-1.761 1.761v9.683a1.76 1.76 0 0 0 1.761 1.761h44.896a1.76 1.76 0 0 0 1.761-1.761v-9.683a1.76 1.76 0 0 0-1.761-1.761z" fill="#f7f9fa" stroke="#a2a8b3" stroke-width=".88"/><g fill-rule="evenodd"><path d="M51.614 62.857a1.76 1.76 0 1 0 0-3.521 1.76 1.76 0 1 0 0 3.521z" fill="#4fb312"/><path d="M56.896 60.216h25.529a.881.881 0 1 1 0 1.761H56.896a.881.881 0 1 1 0-1.761zm-.44 4.402h33.452a.44.44 0 1 1 0 .88H56.456a.44.44 0 1 1 0-.88z" fill="#a2a8b3"/></g></svg>