<svg width="24" height="24" xmlns="http://www.w3.org/2000/svg"><g fill="none" fill-rule="evenodd"><circle fill="#FFF" fill-rule="nonzero" cx="12" cy="12" r="12"/><path d="M13.883 17.367s-.05.084-.186.165c-.635.377-1.295.564-1.989.42-.58-.122-.992-.601-1.066-1.312a3.487 3.487 0 0 1 .05-.999c.23-1.236.484-2.465.695-3.707a1.005 1.005 0 0 0-.082-.61c-.097-.2-.254-.237-.42-.241a1.628 1.628 0 0 0-.885.232c.045-.244.088-.467.13-.68.005-.023.032-.044.052-.055.533-.314 1.076-.576 1.669-.58.39-.003.77.06 1.093.395.263.274.404.634.424 1.076.02.418-.045.82-.127 1.22-.19.916-.377 1.83-.559 2.748-.059.3-.101.605-.067.919.039.358.2.553.48.568.275.015.543-.042.803-.161.037-.017.102-.05.102-.05l-.117.652zM13.003 8A.997.997 0 0 1 12 6.986c.001-.532.456-.981.999-.986A1 1 0 0 1 14 7.005a.992.992 0 0 1-.997.995" fill="#2A7AB0"/></g></svg>