<svg width="16" height="16" xmlns="http://www.w3.org/2000/svg"><g fill="none" fill-rule="evenodd"><circle fill="#FFF" fill-rule="nonzero" cx="8" cy="8" r="8"/><path d="M9.883 12.446s-.05.074-.186.144c-.635.33-1.295.494-1.989.367-.58-.106-.992-.525-1.066-1.147a2.677 2.677 0 0 1 .05-.874c.23-1.082.484-2.157.695-3.244a.781.781 0 0 0-.082-.533c-.097-.176-.254-.208-.42-.212A1.812 1.812 0 0 0 6 7.151c.045-.213.088-.409.13-.595.005-.02.032-.038.052-.049.533-.275 1.076-.503 1.669-.507.39-.002.77.052 1.093.346.263.239.404.554.424.941.02.366-.045.718-.127 1.068-.19.8-.377 1.601-.559 2.404-.059.262-.101.53-.067.804.039.314.2.484.48.497.275.013.543-.037.803-.14l.102-.044-.117.57zM9.003 5A.997.997 0 0 1 8 3.986c.001-.532.456-.981.999-.986A1 1 0 0 1 10 4.005.992.992 0 0 1 9.003 5" fill="#353FF4"/></g></svg>