<svg xmlns="http://www.w3.org/2000/svg" width="153" height="217" viewBox="119 0 153 217"><g transform="translate(119)"><path fill="#2C3E4F" d="M8 0h122.79c1.985.002 3.9.744 5.37 2.08l8.65 7.84c.092.084.182.171.27.26l5.57 5.56A8 8 0 0 1 153 21.4V209a8 8 0 0 1-8 8H8a8 8 0 0 1-8-8V8a8 8 0 0 1 8-8z"/><path fill="#FFF" d="M8.03 4.02h126.2a4.002 4.002 0 0 1 2.83 1.17L147.8 15.9a4.005 4.005 0 0 1 1.171 2.83v190.241a4 4 0 0 1-4 4H8.03a4 4 0 0 1-4-4V8.02a4 4 0 0 1 4-4z"/><path fill="#2C3E4F" d="M135.189 2.95L142 9c.034.029.068.059.1.09l7.521 7.6a2 2 0 0 1-1.42 3.4H133.85a2 2 0 0 1-2-2V4.45a2 2 0 0 1 3.33-1.5h.009z"/><path fill="#F3F3F4" d="M101.66 63.29h30.21a1 1 0 0 1 1 1v2.02a1 1 0 0 1-1 1h-30.21a1 1 0 0 1-1-1v-2.02a1 1 0 0 1 1-1z"/><path fill="#D8DADC" d="M101.66 51.24h38.26a1 1 0 0 1 1 1v6.04a1 1 0 0 1-1 1h-38.26a1 1 0 0 1-1-1v-6.04a1 1 0 0 1 1-1zM13.08 99.46h90.609a1 1 0 0 1 1 1v6.04a1 1 0 0 1-1 1H13.08a1 1 0 0 1-1-1v-6.04a1 1 0 0 1 1-1z"/><path fill="#F3F3F4" fill-opacity=".5" d="M13.08 111.51h130.87a1 1 0 0 1 1 1v71.34a1 1 0 0 1-1 1H13.08a1 1 0 0 1-1-1v-71.34a1 1 0 0 1 1-1z"/><path fill="#D8DADC" d="M41.6 79.37v7.03c0 .55-.399 1-.92 1H13c-.5 0-.92-.45-.92-1V64.3c0-.56.41-1 .92-1h42.45c.5 0 .92.44.92 1v14.06c0 .56-.41 1-.92 1H41.6v.01zM13.08 51.24h66.449a1 1 0 0 1 1 1v6.04a1 1 0 0 1-1 1H13.08a1 1 0 0 1-1-1v-6.04a1 1 0 0 1 1-1z"/><ellipse fill="#D8DADC" cx="28.18" cy="28.13" rx="16.11" ry="16.07"/></g></svg>