<svg width="544" height="405" fill="none" xmlns="http://www.w3.org/2000/svg">
  <path fill-rule="evenodd" clip-rule="evenodd" d="M521.754 373.884s-.239 7.24-3.743 11.862c-3.503 4.621-4.069 6.324-10.056 8.472-5.988 2.148-7.572 4.279-8.026 9.594 0 0 11.529 0 16.386-.112 4.857-.111 8.566 0 14.348-6.324S544 381.236 544 381.236l-22.271-7.352m-63.182 3.997s-4.686 9.628-14.69 12.606c-10.005 2.978-15.342 2.764-18.537 13.513h51.978l-18.751-26.119Z" fill="#1B1263"/>
  <path fill-rule="evenodd" clip-rule="evenodd" d="m521.754 373.884-29.064-58.092c-.111-22.79-4.086-43.714-3.966-51.348.103-6.615-.582-11.065.488-19.889.446 2.705 3.024 16.842 10.065 26.385 7.829 10.594 22.169 28.566 29.801 44.655 7.846 16.569 7.581 45.418-7.324 58.289Z" fill="#343EE0"/>
  <path fill-rule="evenodd" clip-rule="evenodd" d="m521.754 373.884-29.064-58.092c-.111-22.79-4.086-43.714-3.966-51.348.103-6.615-.582-11.065.488-19.889.446 2.705 3.024 16.842 10.065 26.385 7.829 10.594 22.169 28.566 29.801 44.655 7.846 16.569 7.581 45.418-7.324 58.289Z" fill="url(#a)"/>
  <path fill-rule="evenodd" clip-rule="evenodd" d="M469.366 181.739s-10.1 57.681-10.348 80.018c-.248 22.336-.471 116.124-.471 116.124s27.077-5.708 32.293-36.671c5.217-30.963-2.278-66.325-2.116-76.757.163-10.433-1.636-15.482 4.566-40.745 6.202-25.264 7.178-28.353 7.178-28.353l-5.996-21.352-25.064 7.702" fill="#343EE0"/>
  <path fill-rule="evenodd" clip-rule="evenodd" d="m437.937 253.122 37.476 13.744 7.872-22.191-37.056-13.915-8.292 22.362Z" fill="#FF7D75"/>
  <mask id="b" style="mask-type:alpha" maskUnits="userSpaceOnUse" x="455" y="93" width="28" height="157">
    <path d="M471.25 223.948s3.161 5.896 1.919 11.279-3.315 9.611-8.121 12.426c-4.805 2.816-8.043 2.405-8.788 1.661-.745-.745-.994-1.002-.086-2.157s3.735-3.894 4.729-6.624c.993-2.73 1.079-3.894-.583-4.476-1.662-.582-3.675-1.386-3.675-1.386a31.863 31.863 0 0 1 5.337-4.741c2.321-1.413 9.268-5.982 9.268-5.982Zm2.047-130.228 6.236 3.757 1.362 10.141a11.776 11.776 0 0 1-2.259 2.794l-.011-.03a18.24 18.24 0 0 0 4.352 7.429c-1.919 7.188-8.001 7.034-8.001 7.034.372-4.402-.505-10.699-.686-11.93a11.698 11.698 0 0 1-5.233.454c-8.471-.873-9.037-11.416-9.037-11.416l.24-2.645 13.037-5.588Z" fill="#fff"/>
  </mask>
  <g mask="url(#b)">
    <path d="M471.25 223.948s3.161 5.896 1.919 11.279-3.315 9.611-8.121 12.426c-4.805 2.816-8.043 2.405-8.788 1.661-.745-.745-.994-1.002-.086-2.157s3.735-3.894 4.729-6.624c.993-2.73 1.079-3.894-.583-4.476-1.662-.582-3.675-1.386-3.675-1.386a31.863 31.863 0 0 1 5.337-4.741c2.321-1.413 9.268-5.982 9.268-5.982Zm2.047-130.228 6.236 3.757 1.362 10.141a11.776 11.776 0 0 1-2.259 2.794l-.011-.03a18.24 18.24 0 0 0 4.352 7.429c-1.919 7.188-8.001 7.034-8.001 7.034.372-4.402-.505-10.699-.686-11.93a11.698 11.698 0 0 1-5.233.454c-8.471-.873-9.037-11.416-9.037-11.416l.24-2.645 13.037-5.588Z" fill="#EFCECA"/>
  </g>
  <path fill-rule="evenodd" clip-rule="evenodd" d="M482.976 117.811c-1.918 7.188-8 7.034-8 7.034.377-4.467-.531-10.885-.694-11.981a11.533 11.533 0 0 0 4.343-2.482 18.249 18.249 0 0 0 4.351 7.429Z" fill="url(#c)"/>
  <path fill-rule="evenodd" clip-rule="evenodd" d="M487.337 181.887c-.994.188-3.487.691-4.549.828-13.388 1.712-23.462-5.828-23.462-5.828a204.54 204.54 0 0 0 10.339-25.948 131.045 131.045 0 0 0 5.311-26.094c.334 1.104 11.967 35.916 13.14 46.28.591 5.238.591 8.528-.779 10.762Z" fill="#FF857B"/>
  <path fill-rule="evenodd" clip-rule="evenodd" d="M487.337 181.887c-.994.188-3.487.691-4.549.828-13.388 1.712-23.462-5.828-23.462-5.828a204.54 204.54 0 0 0 10.339-25.948 131.045 131.045 0 0 0 5.311-26.094c.334 1.104 11.967 35.916 13.14 46.28.591 5.238.591 8.528-.779 10.762Z" fill="url(#d)"/>
  <path fill-rule="evenodd" clip-rule="evenodd" d="M471.25 223.948s-7.212-10.527-3.306-19.744c3.906-9.217 8.077-12.392 12.3-16.303 4.223-3.911 8.283-5.674 7.101-16.192-1.182-10.518-12.369-46.864-12.369-46.864s6.048.095 8.001-7.034c0 0 13.003 8.746 21.868 30.612 8.866 21.866 9.937 25.768 11.136 33.684 1.199 7.917-.951 5.905-5.919 11.46-4.968 5.554-25.201 22.815-38.812 30.381Z" fill="#FF857B"/>
  <path fill-rule="evenodd" clip-rule="evenodd" d="M449.073 92.008s1.114 7.908 7.11 9.671c5.996 1.763 12.72-3.92 15.992-3.278 3.272.642 4 3.038 4 3.038s1.996-.856 2.639.633c.642 1.49 0 1.917-.317 2.568-.317.65-.54 2.738 1.781 3.937 0 0 4.061-4.279 4.934-9.611 1.174-7.24-3.041-9.662-4.959-10.27a13.342 13.342 0 0 0-5.679-.719c-2.159.12-25.501 4.031-25.501 4.031Z" fill="#1E166E"/>
  <path fill-rule="evenodd" clip-rule="evenodd" d="m271.4 140.909 11.418 23.047 41.759-14.378-11.418-21.404-41.759 12.735Z" fill="#FF897D"/>
  <path fill-rule="evenodd" clip-rule="evenodd" d="M322.153 376.195s-4.968 9.902-14.399 12.709c-9.431 2.807-15.479 1.968-19.702 13.864h51.867l-17.723-26.616" fill="#1721B1"/>
  <path fill-rule="evenodd" clip-rule="evenodd" d="M322.153 376.195s-4.968 9.902-14.399 12.709c-9.431 2.807-15.479 1.968-19.702 13.864h51.867l-17.723-26.616" fill="url(#e)"/>
  <path fill-rule="evenodd" clip-rule="evenodd" d="M364.982 376.195s-4.968 9.902-14.399 12.709c-9.431 2.807-15.478 1.968-19.701 13.864h51.866l-17.723-26.616" fill="#1721B1"/>
  <path fill-rule="evenodd" clip-rule="evenodd" d="m357.727 336.666-.154 1.643s-.677 16.149-11.444 25.896a52.262 52.262 0 0 1-23.736 11.939s7.915-83.065 10.279-99.042c2.364-15.978 2.87-16.825 6.553-27.095a6334.7 6334.7 0 0 1 9.474-25.991c-1.782 9.782-3.718 20.274-4.12 26.342-.609 9.088-.412 9.491 2.621 27.668 1.576 9.482 6.33 35.687 10.527 58.64Z" fill="#D0D7E0"/>
  <path fill-rule="evenodd" clip-rule="evenodd" d="m357.727 336.666-.154 1.643s-.677 16.149-11.444 25.896a52.262 52.262 0 0 1-23.736 11.939s7.915-83.065 10.279-99.042c2.364-15.978 2.87-16.825 6.553-27.095a6334.7 6334.7 0 0 1 9.474-25.991c-1.782 9.782-3.718 20.274-4.12 26.342-.609 9.088-.412 9.491 2.621 27.668 1.576 9.482 6.33 35.687 10.527 58.64Z" fill="url(#f)"/>
  <path fill-rule="evenodd" clip-rule="evenodd" d="M393.901 346.507c-4.454 17.168-15.77 23.021-28.91 29.688 0 0-14.759-79.975-17.791-98.152-3.032-18.177-3.229-18.58-2.621-27.668.608-9.089 4.642-28.071 6.467-39.786a598.382 598.382 0 0 0 2.004-13.933c.369-.265.677-.488.857-.633a59.121 59.121 0 0 0 7.512-7.506v.043a99.622 99.622 0 0 0 21.415-3.474c.445.95 2.707 6.991-1.713 25.674-4.849 20.599-8.695 35.541-6.271 50.492 2.425 14.951 6.271 22.816 9.911 33.522 3.641 10.706 13.586 34.566 9.14 51.733Z" fill="#D0D7E0"/>
  <path fill-rule="evenodd" clip-rule="evenodd" d="M355.886 152.07c-1.647 4.276-3.982 8.318-6.536 12.124-1.328 1.874-1.89 3.005-3.363 3.707l-.291.35-.535.316-18.425-15.172s3.812-3.8 12.326-5.374c8.515-1.575 16.824 4.049 16.824 4.049Z" fill="#3640E7"/>
  <path fill-rule="evenodd" clip-rule="evenodd" d="M355.886 152.07c-1.647 4.276-3.982 8.318-6.536 12.124-1.328 1.874-1.89 3.005-3.363 3.707l-.291.35-.535.316-18.425-15.172s3.812-3.8 12.326-5.374c8.515-1.575 16.824 4.049 16.824 4.049Z" fill="url(#g)"/>
  <path fill-rule="evenodd" clip-rule="evenodd" d="M393.961 180.832c0 .676-14.348 6.847-32.499 7.702v-.042c1.473-1.926 12.986-15.131 13.997-32.684.976-17.022-7.144-34.471-7.658-35.558.274.376 1.91 2.619 2.689 3.423a101.308 101.308 0 0 1 6.536 8.558c1.636 2.49 4.728 7.309 6.287 11.185a113.534 113.534 0 0 1 4.48 12.196c1.868 6.033 6.142 20.179 6.168 25.22Z" fill="#3640E7"/>
  <path fill-rule="evenodd" clip-rule="evenodd" d="M393.961 180.832c0 .676-14.348 6.847-32.499 7.702v-.042c1.473-1.926 12.986-15.131 13.997-32.684.976-17.022-7.144-34.471-7.658-35.558.274.376 1.91 2.619 2.689 3.423a101.308 101.308 0 0 1 6.536 8.558c1.636 2.49 4.728 7.309 6.287 11.185a113.534 113.534 0 0 1 4.48 12.196c1.868 6.033 6.142 20.179 6.168 25.22Z" fill="url(#h)"/>
  <path fill-rule="evenodd" clip-rule="evenodd" d="M362.164 124.289s-.702 11.827-4.068 20.788c-3.367 8.96-5.937 14.668-8.969 18.921-3.032 4.254-5.139 5.709-12.103 3.364-6.965-2.345-20.284-10.27-32.388-6.162-12.103 4.108-15.915 11.87-15.915 11.87s20.506 12.76 34.409 18.922c13.902 6.162 21.963 8.061 23.419 8.284 1.456.222 6.056-3.355 7.401-4.279a59.113 59.113 0 0 0 7.512-7.505c1.456-1.9 12.994-15.114 14.005-32.692 1.045-18.16-7.709-35.61-7.709-35.61s-.831 3.834-5.594 4.099Z" fill="#3640E7"/>
  <mask id="i" style="mask-type:alpha" maskUnits="userSpaceOnUse" x="272" y="98" width="96" height="76">
    <path d="M273.551 147.002c1.542-.265 2.278 1.669 4.625 6.496 2.205 4.534 3.526 4.567 4.622 4.831l.21.055c1.139.334-.06-1.797-1.071-3.945-.919-1.953-.004-2.795.169-2.932l.028-.02s1.199.641 3.752 3.757c2.552 3.115 2.621 4.279 3.083 9.105.283 2.918.2 5.859-.248 8.755-.651.188-7.658-3.8-9.602-5.537a15.988 15.988 0 0 1-4.429-5.357 18.004 18.004 0 0 1-2.141-7.369c-.266-2.079-.54-7.574 1.002-7.839Zm42.641-12.931c1.876.342 7.846 3.081 9.722 8.31a24.045 24.045 0 0 1 .805 11.014c-4.831-2.371-16.875-13.496-16.875-13.496 2.056-2.003 6.408 1.275 8.155 2.011 1.748.736 1.482-.471 1.276-1.54-.205-1.07-3.083-6.299-3.083-6.299Zm49.091-35.892v12.657s-.077.089-.229.233l.254-.233.057.573c.639 6.012 2.427 8.764 2.427 8.764l-.111.37c-1.28 3.829-5.516 3.789-5.516 3.789.179-7.411-1.191-11.125-1.191-11.125.223-.052.444-.113.662-.181-1.666.514-3.888.694-6.632-.179-6.699-2.131-4.566-13.368-4.566-13.368l-.06-1.3h14.905Z" fill="#fff"/>
  </mask>
  <g mask="url(#i)">
    <path d="M273.551 147.002c1.542-.265 2.278 1.669 4.625 6.496 2.205 4.534 3.526 4.567 4.622 4.831l.21.055c1.139.334-.06-1.797-1.071-3.945-.919-1.953-.004-2.795.169-2.932l.028-.02s1.199.641 3.752 3.757c2.552 3.115 2.621 4.279 3.083 9.105.283 2.918.2 5.859-.248 8.755-.651.188-7.658-3.8-9.602-5.537a15.988 15.988 0 0 1-4.429-5.357 18.004 18.004 0 0 1-2.141-7.369c-.266-2.079-.54-7.574 1.002-7.839Zm42.641-12.931c1.876.342 7.846 3.081 9.722 8.31a24.045 24.045 0 0 1 .805 11.014c-4.831-2.371-16.875-13.496-16.875-13.496 2.056-2.003 6.408 1.275 8.155 2.011 1.748.736 1.482-.471 1.276-1.54-.205-1.07-3.083-6.299-3.083-6.299Zm49.091-35.892v12.657s-.077.089-.229.233l.254-.233.057.573c.639 6.012 2.427 8.764 2.427 8.764l-.111.37c-1.28 3.829-5.516 3.789-5.516 3.789.179-7.411-1.191-11.125-1.191-11.125.223-.052.444-.113.662-.181-1.666.514-3.888.694-6.632-.179-6.699-2.131-4.566-13.368-4.566-13.368l-.06-1.3h14.905Z" fill="#DE9F9E"/>
  </g>
  <path fill-rule="evenodd" clip-rule="evenodd" d="M360.974 113.207s1.37 3.714 1.191 11.125c0 0 4.505.043 5.627-4.159 0 0-1.901-2.927-2.484-9.337a9.199 9.199 0 0 1-4.334 2.371Z" fill="url(#j)"/>
  <mask id="k" style="mask-type:alpha" maskUnits="userSpaceOnUse" x="342" y="87" width="56" height="89">
    <path d="M353.692 88.705a33.602 33.602 0 0 1-5.019-1.292c-1.542-.668-4.934-.18-5.628 2.242a7.261 7.261 0 0 0 .951 5.99 8.506 8.506 0 0 0 7.358 3.894c4.283-.085 8.052-1.643 10.467.95 2.416 2.593 2.776 5.187 3.118 7.865.343 2.679.857 9.773 3.812 13.317 2.955 3.543 11.675 12.888 16.875 27.582a213.856 213.856 0 0 1 7.529 26.462s4.84-3.638 4.155-9.414c-.686-5.777-3.204-7.78-6.322-11.126-3.118-3.346-4.497-4.578-5.02-6.846-.522-2.268 1.645-5.708 3.29-7.266 1.644-1.558 6.313-8.472 2.938-15.216-3.375-6.744-9.543-7.052-12.284-14.831-2.741-7.78-4.111-15.739-6.681-18.477-2.57-2.739-5.996-2.508-7.444-2.567-1.447-.06-12.095-1.267-12.095-1.267Z" fill="#fff"/>
  </mask>
  <g mask="url(#k)">
    <path d="M353.692 88.705a33.602 33.602 0 0 1-5.019-1.292c-1.542-.668-4.934-.18-5.628 2.242a7.261 7.261 0 0 0 .951 5.99 8.506 8.506 0 0 0 7.358 3.894c4.283-.085 8.052-1.643 10.467.95 2.416 2.593 2.776 5.187 3.118 7.865.343 2.679.857 9.773 3.812 13.317 2.955 3.543 11.675 12.888 16.875 27.582a213.856 213.856 0 0 1 7.529 26.462s4.84-3.638 4.155-9.414c-.686-5.777-3.204-7.78-6.322-11.126-3.118-3.346-4.497-4.578-5.02-6.846-.522-2.268 1.645-5.708 3.29-7.266 1.644-1.558 6.313-8.472 2.938-15.216-3.375-6.744-9.543-7.052-12.284-14.831-2.741-7.78-4.111-15.739-6.681-18.477-2.57-2.739-5.996-2.508-7.444-2.567-1.447-.06-12.095-1.267-12.095-1.267Z" fill="#FE6261"/>
  </g>
  <path fill-rule="evenodd" clip-rule="evenodd" d="M131.768 4.665S117.609 1.036 113.292.249c-4.317-.787-13.166 0-17.689 6.675-4.522 6.676-4.72 14.917-4.72 14.917v338.042s-1.199 19.47 4.198 27.977c5.396 8.506 10.382 13.068 23.453 13.068h103.082s8.248.299 6.964-46.873V48.123a37.055 37.055 0 0 0-1.765-11.126 17.764 17.764 0 0 0-9.834-9.824c-3.563-1.387-85.213-22.508-85.213-22.508Z" fill="#B5C1CF"/>
  <path fill-rule="evenodd" clip-rule="evenodd" d="M136.094 10.664S124.29 7.694 117.72 6.48c-4.771-.856-8.368 4.656-8.685 9.157-.317 4.502 0 94.584 0 94.584v246.377s-.626 18.99 3.477 25.674c4.626 7.566 19.522 6.847 23.351 6.847h78.9s11.637 2.583 11.47-34.994V59.958s.462-15.25-3.427-22.25c-3.315-5.948-17.834-8.986-17.834-8.986l-68.878-18.058Z" fill="#CFD7E0"/>
  <path fill-rule="evenodd" clip-rule="evenodd" d="M128.916 3.758s4.788 8.558 6.673 12.837c1.884 4.279 3.777 9.773 11.992 11.836 8.215 2.062 43.78 9.602 43.78 9.602s8.566 2.567 11.564-3.081l5.842-10.022-79.851-21.172Z" fill="#B5C1CF"/>
  <path fill-rule="evenodd" clip-rule="evenodd" d="M160.464 197.195c0 11.981-5.388 20.822-14.519 21.652-7.975.719-17.826-9.594-17.826-21.549 0-11.956 7.949-21.335 15.967-21.335s16.378 9.277 16.378 21.232Z" fill="#1DBE9F"/>
  <path fill-rule="evenodd" clip-rule="evenodd" d="M187.352 201.354c0 6.676-3.546 10.989-7.992 11.691-4.651.736-8.797-4.964-8.797-11.631s3.683-11.391 8.283-11.913c4.266-.479 8.506 5.178 8.506 11.853Z" fill="#FD5"/>
  <path fill-rule="evenodd" clip-rule="evenodd" d="M210.745 204.35c0 4.989-2.509 8.224-5.645 8.746-3.289.548-6.218-3.714-6.218-8.704 0-4.989 2.569-8.558 5.85-8.917 3.041-.36 6.013 3.877 6.013 8.875Z" fill="#FF897D"/>
  <path fill-rule="evenodd" clip-rule="evenodd" d="M208.202 359.379s7.906 10.543 8.42 16.756c.514 6.213.265 9.577-5.568 13.068a15.4 15.4 0 0 0-7.255 14.241h18.673c1.713 0 6.853.907 9.072-5.819 2.218-6.727 10.236-42.722 10.236-42.722l-33.561 4.476M37.587 372.772s-5.842 12.161-14.913 14.497C13.603 389.606 5.542 389.725 0 402.408h57.006l-19.419-29.636Z" fill="#FF6565"/>
  <path fill-rule="evenodd" clip-rule="evenodd" d="m92.006 245.24-.266 50.219a33.97 33.97 0 0 1-11.024-16.141c.043-.436.086-.856.129-1.198 1.002-8.43 4.702-23.945 11.16-32.88ZM171.934 335.433V297.23s17.834 8.507 26.151 18.828c8.318 10.321 12.087 26.53 10.108 43.346l-36.259-23.971Z" fill="#3640E8"/>
  <path fill-rule="evenodd" clip-rule="evenodd" d="m92.005 245.24-.12-44.442s-6.15 9.671-19.35 22.2c0 0-16.677 45.469-18.228 50.407-1.55 4.938-16.72 99.367-16.72 99.367s14.399-3.577 24.284-12.751c8.66-8.045 13.568-16.466 15.367-32.273 1.799-15.807 2.57-41.224 3.606-49.636 1.037-8.413 4.703-23.937 11.162-32.872Z" fill="#3640E8"/>
  <path fill-rule="evenodd" clip-rule="evenodd" d="m18.048 263.05 37.553 14.052 8.12-22.166-37.227-13.838-8.446 21.952Z" fill="#FF887C"/>
  <mask id="l" style="mask-type:alpha" maskUnits="userSpaceOnUse" x="38" y="112" width="41" height="151">
    <path d="M53.048 238.83c1.26 2.867 2.63 9.209 2.04 12.983a15.097 15.097 0 0 1-6.34 9.876c-3.383 2.285-8.206 1.241-9.979-.676-1.773-1.917.343-2.919 1.61-4.279 1.268-1.361 4.19-5.358 5.406-6.847a1.06 1.06 0 0 0-.514-1.831l-4.112-1.524c2.793-4.715 11.89-7.702 11.89-7.702Zm21.26-114.755 3.89 4.485c-.163 8.635-6.853 11.271-6.853 11.271a66.864 66.864 0 0 0-1.413-13.822 14.674 14.674 0 0 0 4.377-1.934Zm.652-11.339v10.852a14.782 14.782 0 0 1-12.275 2.49c-7.221-1.737-6.724-12.101-6.724-12.101l-.077-1.241H74.96Z" fill="#fff"/>
  </mask>
  <g mask="url(#l)">
    <path d="M53.048 238.83c1.26 2.867 2.63 9.209 2.04 12.983a15.097 15.097 0 0 1-6.34 9.876c-3.383 2.285-8.206 1.241-9.979-.676-1.773-1.917.343-2.919 1.61-4.279 1.268-1.361 4.19-5.358 5.406-6.847a1.06 1.06 0 0 0-.514-1.831l-4.112-1.524c2.793-4.715 11.89-7.702 11.89-7.702Zm21.26-114.755 3.89 4.485c-.163 8.635-6.853 11.271-6.853 11.271a66.864 66.864 0 0 0-1.413-13.822 14.674 14.674 0 0 0 4.377-1.934Zm.652-11.339v10.852a14.782 14.782 0 0 1-12.275 2.49c-7.221-1.737-6.724-12.101-6.724-12.101l-.077-1.241H74.96Z" fill="#8E4832"/>
  </g>
  <path fill-rule="evenodd" clip-rule="evenodd" d="M78.198 128.56c-.163 8.635-6.853 11.271-6.853 11.271a66.857 66.857 0 0 0-1.413-13.822 14.674 14.674 0 0 0 4.377-1.934l3.889 4.485Z" fill="url(#m)"/>
  <path fill-rule="evenodd" clip-rule="evenodd" d="M91.852 144.05v10.27a17.9 17.9 0 0 0-4.9-7.874l-12.326 6.462c0 .385 3.238 22.661-4.832 35.781-5.996-2.388-7.837-4.476-7.837-4.476 10.519-27.737 9.354-44.382 9.354-44.382 7.22-3.517 6.852-11.271 6.852-11.271a82.03 82.03 0 0 1 13.689 15.49Z" fill="#1A1160"/>
  <path fill-rule="evenodd" clip-rule="evenodd" d="M74.626 152.907c0 .463 4.625 32.187-10.947 42.192-15.573 10.004-19.882 20.017-17.132 29.26 2.75 9.242 6.476 14.471 6.476 14.471s23.427-15.55 38.837-38.032v-46.35s-.77-3.851-4.934-8.002l-12.3 6.461Z" fill="#1A1160"/>
  <path fill-rule="evenodd" clip-rule="evenodd" d="M54.136 113.643a3.35 3.35 0 0 1-3.152-2.396 5.553 5.553 0 0 1-2.733-5.392c.326-3.808 4.729-4.227 4.729-4.227a1.413 1.413 0 0 1 1.405-1.404s.17-3.817 3.82-4.81c3.649-.992 4.891 1.575 4.891 1.575s.994-3.235 4.232-2.987c3.237.249 3.811 2.49 3.811 2.49s2.57-2.156 5.234-.333c2.664 1.823 1.987 4.065 1.987 4.065s3.65-.753 2.322 2.73a4.728 4.728 0 0 1 2.99 2.49 5.523 5.523 0 0 1-.172 3.894s3.82 1.575 3.734 4.639a4.885 4.885 0 0 1-2.484 4.227s.908 3.646-1.824 5.632c-2.733 1.985-4.651 1.249-4.651 1.249s-5.388.993-5.14-5.058c0 0-2.99-.915-1.662-4.886a2.15 2.15 0 0 1-2.235-1.575 2.946 2.946 0 0 1-4.283.856s-3.152 4.467-6.801 0c0 0-.857 2.319-2.742 1.711a1.89 1.89 0 0 1-1.276-2.49Z" fill="#353CE1"/>
  <defs>
    <linearGradient id="a" x1="507.933" y1="277.785" x2="510.73" y2="278.211" gradientUnits="userSpaceOnUse">
      <stop stop-opacity=".2"/>
      <stop offset="1" stop-opacity="0"/>
    </linearGradient>
    <linearGradient id="c" x1="478.629" y1="110.382" x2="478.629" y2="119.137" gradientUnits="userSpaceOnUse">
      <stop stop-opacity=".1"/>
      <stop offset="1" stop-opacity="0"/>
    </linearGradient>
    <linearGradient id="d" x1="478.48" y1="161.554" x2="468.594" y2="153.627" gradientUnits="userSpaceOnUse">
      <stop stop-opacity=".15"/>
      <stop offset="1" stop-opacity="0"/>
    </linearGradient>
    <linearGradient id="e" x1="325.079" y1="390.92" x2="334.733" y2="395.878" gradientUnits="userSpaceOnUse">
      <stop stop-opacity="0"/>
      <stop offset="1" stop-opacity=".2"/>
    </linearGradient>
    <linearGradient id="f" x1="354.319" y1="278.125" x2="331.98" y2="278.125" gradientUnits="userSpaceOnUse">
      <stop stop-opacity=".1"/>
      <stop offset="1" stop-opacity="0"/>
    </linearGradient>
    <linearGradient id="g" x1="344.171" y1="158.155" x2="347.612" y2="163.467" gradientUnits="userSpaceOnUse">
      <stop stop-opacity="0"/>
      <stop offset="1" stop-opacity=".2"/>
    </linearGradient>
    <linearGradient id="h" x1="379.026" y1="169.567" x2="370.678" y2="175.155" gradientUnits="userSpaceOnUse">
      <stop stop-opacity="0"/>
      <stop offset="1" stop-opacity=".2"/>
    </linearGradient>
    <linearGradient id="j" x1="364.091" y1="111.371" x2="365.209" y2="117.432" gradientUnits="userSpaceOnUse">
      <stop stop-opacity=".3"/>
      <stop offset="1" stop-opacity="0"/>
    </linearGradient>
    <linearGradient id="m" x1="73.473" y1="124.075" x2="75.46" y2="129.873" gradientUnits="userSpaceOnUse">
      <stop stop-opacity=".1"/>
      <stop offset="1" stop-opacity="0"/>
    </linearGradient>
  </defs>
</svg>
