<svg width="544" height="405" viewBox="0 0 544 405" fill="none" xmlns="http://www.w3.org/2000/svg">
<path fill-rule="evenodd" clip-rule="evenodd" d="M521.754 373.884C521.754 373.884 521.515 381.124 518.011 385.746C514.508 390.367 513.942 392.07 507.955 394.218C501.967 396.366 500.383 398.497 499.929 403.812C499.929 403.812 511.458 403.812 516.315 403.7C521.172 403.589 524.881 403.7 530.663 397.376C536.445 391.052 544 381.236 544 381.236L521.729 373.884" fill="#1B1263"/>
<path fill-rule="evenodd" clip-rule="evenodd" d="M458.547 377.881C458.547 377.881 453.861 387.509 443.857 390.487C433.852 393.465 428.515 393.251 425.32 404H477.298L458.547 377.881Z" fill="#1B1263"/>
<path fill-rule="evenodd" clip-rule="evenodd" d="M521.754 373.884L492.69 315.792C492.579 293.002 488.604 272.078 488.724 264.444C488.827 257.829 488.142 253.379 489.212 244.555C489.658 247.26 492.236 261.397 499.277 270.94C507.106 281.534 521.446 299.506 529.078 315.595C536.924 332.164 536.659 361.013 521.754 373.884Z" fill="#343EE0"/>
<path fill-rule="evenodd" clip-rule="evenodd" d="M521.754 373.884L492.69 315.792C492.579 293.002 488.604 272.078 488.724 264.444C488.827 257.829 488.142 253.379 489.212 244.555C489.658 247.26 492.236 261.397 499.277 270.94C507.106 281.534 521.446 299.506 529.078 315.595C536.924 332.164 536.659 361.013 521.754 373.884Z" fill="url(#paint0_linear)"/>
<path fill-rule="evenodd" clip-rule="evenodd" d="M469.366 181.739C469.366 181.739 459.266 239.42 459.018 261.757C458.77 284.093 458.547 377.881 458.547 377.881C458.547 377.881 485.624 372.173 490.84 341.21C496.057 310.247 488.562 274.885 488.724 264.453C488.887 254.02 487.088 248.971 493.29 223.708C499.492 198.444 500.468 195.355 500.468 195.355L494.472 174.003L469.408 181.705" fill="#343EE0"/>
<path fill-rule="evenodd" clip-rule="evenodd" d="M437.937 253.122L475.413 266.866L483.285 244.675L446.229 230.76L437.937 253.122Z" fill="#FF7D75"/>
<mask id="mask0" style="mask-type:alpha" maskUnits="userSpaceOnUse" x="455" y="93" width="28" height="157">
<path d="M471.25 223.948C471.25 223.948 474.411 229.844 473.169 235.227C471.927 240.61 469.854 244.838 465.048 247.653C460.243 250.469 457.005 250.058 456.26 249.314C455.515 248.569 455.266 248.312 456.174 247.157C457.082 246.002 459.909 243.263 460.903 240.533C461.896 237.803 461.982 236.639 460.32 236.057C458.658 235.475 456.645 234.671 456.645 234.671C458.241 232.896 460.031 231.305 461.982 229.93C464.303 228.517 471.25 223.948 471.25 223.948ZM473.297 93.7198L479.533 97.4768L480.895 107.618C480.278 108.678 479.513 109.615 478.636 110.412L478.625 110.382C479.462 113.17 480.954 115.717 482.977 117.811C481.058 124.999 474.976 124.845 474.976 124.845C475.348 120.443 474.471 114.146 474.29 112.915C472.636 113.451 470.852 113.62 469.057 113.369C460.586 112.496 460.02 101.953 460.02 101.953L460.26 99.3082L473.297 93.7198Z" fill="white"/>
</mask>
<g mask="url(#mask0)">
<path d="M471.25 223.948C471.25 223.948 474.411 229.844 473.169 235.227C471.927 240.61 469.854 244.838 465.048 247.653C460.243 250.469 457.005 250.058 456.26 249.314C455.515 248.569 455.266 248.312 456.174 247.157C457.082 246.002 459.909 243.263 460.903 240.533C461.896 237.803 461.982 236.639 460.32 236.057C458.658 235.475 456.645 234.671 456.645 234.671C458.241 232.896 460.031 231.305 461.982 229.93C464.303 228.517 471.25 223.948 471.25 223.948ZM473.297 93.7198L479.533 97.4768L480.895 107.618C480.278 108.678 479.513 109.615 478.636 110.412L478.625 110.382C479.462 113.17 480.954 115.717 482.977 117.811C481.058 124.999 474.976 124.845 474.976 124.845C475.348 120.443 474.471 114.146 474.29 112.915C472.636 113.451 470.852 113.62 469.057 113.369C460.586 112.496 460.02 101.953 460.02 101.953L460.26 99.3082L473.297 93.7198Z" fill="#EFCECA"/>
</g>
<path fill-rule="evenodd" clip-rule="evenodd" d="M482.976 117.811C481.058 124.999 474.976 124.845 474.976 124.845C475.353 120.378 474.445 113.96 474.282 112.864C475.894 112.364 477.377 111.517 478.625 110.382C479.462 113.17 480.954 115.717 482.976 117.811Z" fill="url(#paint1_linear)"/>
<path fill-rule="evenodd" clip-rule="evenodd" d="M487.337 181.887C486.343 182.075 483.85 182.578 482.788 182.715C469.4 184.427 459.326 176.887 459.326 176.887C463.36 168.483 466.814 159.813 469.665 150.939C472.317 142.444 474.096 133.701 474.976 124.845C475.31 125.949 486.943 160.761 488.116 171.125C488.707 176.363 488.707 179.653 487.337 181.887Z" fill="#FF857B"/>
<path fill-rule="evenodd" clip-rule="evenodd" d="M487.337 181.887C486.343 182.075 483.85 182.578 482.788 182.715C469.4 184.427 459.326 176.887 459.326 176.887C463.36 168.483 466.814 159.813 469.665 150.939C472.317 142.444 474.096 133.701 474.976 124.845C475.31 125.949 486.943 160.761 488.116 171.125C488.707 176.363 488.707 179.653 487.337 181.887Z" fill="url(#paint2_linear)"/>
<path fill-rule="evenodd" clip-rule="evenodd" d="M471.25 223.948C471.25 223.948 464.038 213.421 467.944 204.204C471.85 194.987 476.021 191.812 480.244 187.901C484.467 183.99 488.527 182.227 487.345 171.709C486.163 161.191 474.976 124.845 474.976 124.845C474.976 124.845 481.024 124.94 482.977 117.811C482.977 117.811 495.98 126.557 504.845 148.423C513.711 170.289 514.782 174.191 515.981 182.107C517.18 190.024 515.03 188.012 510.062 193.567C505.094 199.121 484.861 216.382 471.25 223.948Z" fill="#FF857B"/>
<path fill-rule="evenodd" clip-rule="evenodd" d="M449.073 92.0082C449.073 92.0082 450.187 99.9158 456.183 101.679C462.179 103.442 468.903 97.7592 472.175 98.4011C475.447 99.0429 476.175 101.439 476.175 101.439C476.175 101.439 478.171 100.583 478.814 102.072C479.456 103.562 478.814 103.989 478.497 104.64C478.18 105.29 477.957 107.378 480.278 108.577C480.278 108.577 484.339 104.298 485.212 98.9659C486.386 91.7258 482.171 89.3039 480.253 88.6962C478.434 88.0485 476.496 87.8032 474.574 87.9774C472.415 88.0972 449.073 92.0082 449.073 92.0082Z" fill="#1E166E"/>
<path fill-rule="evenodd" clip-rule="evenodd" d="M271.4 140.909L282.818 163.956L324.577 149.578L313.159 128.174L271.4 140.909Z" fill="#FF897D"/>
<path fill-rule="evenodd" clip-rule="evenodd" d="M322.153 376.195C322.153 376.195 317.185 386.097 307.754 388.904C298.323 391.711 292.275 390.872 288.052 402.768H339.919L322.196 376.152" fill="#1721B1"/>
<path fill-rule="evenodd" clip-rule="evenodd" d="M322.153 376.195C322.153 376.195 317.185 386.097 307.754 388.904C298.323 391.711 292.275 390.872 288.052 402.768H339.919L322.196 376.152" fill="url(#paint3_linear)"/>
<path fill-rule="evenodd" clip-rule="evenodd" d="M364.982 376.195C364.982 376.195 360.014 386.097 350.583 388.904C341.152 391.711 335.105 390.872 330.882 402.768H382.748L365.025 376.152" fill="#1721B1"/>
<path fill-rule="evenodd" clip-rule="evenodd" d="M357.727 336.666L357.573 338.309C357.573 338.309 356.896 354.458 346.129 364.205C339.379 370.162 331.203 374.275 322.393 376.144C322.393 376.144 330.308 293.079 332.672 277.102C335.036 261.124 335.542 260.277 339.225 250.007C342.754 240.234 348.193 225.385 348.699 224.016C346.917 233.798 344.981 244.29 344.579 250.358C343.97 259.446 344.167 259.849 347.2 278.026C348.776 287.508 353.53 313.713 357.727 336.666Z" fill="#D0D7E0"/>
<path fill-rule="evenodd" clip-rule="evenodd" d="M357.727 336.666L357.573 338.309C357.573 338.309 356.896 354.458 346.129 364.205C339.379 370.162 331.203 374.275 322.393 376.144C322.393 376.144 330.308 293.079 332.672 277.102C335.036 261.124 335.542 260.277 339.225 250.007C342.754 240.234 348.193 225.385 348.699 224.016C346.917 233.798 344.981 244.29 344.579 250.358C343.97 259.446 344.167 259.849 347.2 278.026C348.776 287.508 353.53 313.713 357.727 336.666Z" fill="url(#paint4_linear)"/>
<path fill-rule="evenodd" clip-rule="evenodd" d="M393.901 346.507C389.447 363.675 378.131 369.528 364.991 376.195C364.991 376.195 350.232 296.22 347.2 278.043C344.168 259.866 343.971 259.463 344.579 250.375C345.187 241.286 349.221 222.304 351.046 210.589C352.048 204.119 352.682 199.463 353.05 196.656C353.419 196.391 353.727 196.168 353.907 196.023C356.631 193.751 359.146 191.239 361.419 188.517V188.56C368.663 188.185 375.844 187.02 382.834 185.086C383.279 186.036 385.541 192.077 381.121 210.76C376.272 231.359 372.426 246.301 374.85 261.252C377.275 276.203 381.121 284.068 384.761 294.774C388.402 305.48 398.347 329.34 393.901 346.507Z" fill="#D0D7E0"/>
<path fill-rule="evenodd" clip-rule="evenodd" d="M355.886 152.07C354.239 156.346 351.904 160.388 349.35 164.194C348.022 166.068 347.46 167.199 345.987 167.901L345.696 168.251L345.161 168.567L326.736 153.395C326.736 153.395 330.548 149.595 339.062 148.021C347.577 146.446 355.886 152.07 355.886 152.07Z" fill="#3640E7"/>
<path fill-rule="evenodd" clip-rule="evenodd" d="M355.886 152.07C354.239 156.346 351.904 160.388 349.35 164.194C348.022 166.068 347.46 167.199 345.987 167.901L345.696 168.251L345.161 168.567L326.736 153.395C326.736 153.395 330.548 149.595 339.062 148.021C347.577 146.446 355.886 152.07 355.886 152.07Z" fill="url(#paint5_linear)"/>
<path fill-rule="evenodd" clip-rule="evenodd" d="M393.961 180.832C393.961 181.508 379.613 187.679 361.462 188.534V188.492C362.935 186.566 374.448 173.361 375.459 155.808C376.435 138.786 368.315 121.337 367.801 120.25C368.075 120.626 369.711 122.869 370.49 123.673C372.819 126.408 375.001 129.265 377.026 132.231C378.662 134.721 381.754 139.54 383.313 143.416C385.038 147.393 386.534 151.465 387.793 155.612C389.661 161.645 393.935 175.791 393.961 180.832Z" fill="#3640E7"/>
<path fill-rule="evenodd" clip-rule="evenodd" d="M393.961 180.832C393.961 181.508 379.613 187.679 361.462 188.534V188.492C362.935 186.566 374.448 173.361 375.459 155.808C376.435 138.786 368.315 121.337 367.801 120.25C368.075 120.626 369.711 122.869 370.49 123.673C372.819 126.408 375.001 129.265 377.026 132.231C378.662 134.721 381.754 139.54 383.313 143.416C385.038 147.393 386.534 151.465 387.793 155.612C389.661 161.645 393.935 175.791 393.961 180.832Z" fill="url(#paint6_linear)"/>
<path fill-rule="evenodd" clip-rule="evenodd" d="M362.164 124.289C362.164 124.289 361.462 136.116 358.096 145.077C354.729 154.037 352.159 159.745 349.127 163.998C346.095 168.252 343.988 169.707 337.024 167.362C330.059 165.017 316.74 157.092 304.636 161.2C292.533 165.308 288.721 173.07 288.721 173.07C288.721 173.07 309.227 185.83 323.13 191.992C337.032 198.154 345.093 200.053 346.549 200.276C348.005 200.498 352.605 196.921 353.95 195.997C356.674 193.726 359.188 191.214 361.462 188.492C362.918 186.592 374.456 173.378 375.467 155.8C376.512 137.64 367.758 120.19 367.758 120.19C367.758 120.19 366.927 124.024 362.164 124.289Z" fill="#3640E7"/>
<mask id="mask1" style="mask-type:alpha" maskUnits="userSpaceOnUse" x="272" y="98" width="96" height="76">
<path d="M273.551 147.002C275.093 146.737 275.829 148.671 278.176 153.498C280.381 158.032 281.702 158.065 282.798 158.329L283.008 158.384C284.147 158.718 282.948 156.587 281.937 154.439C281.018 152.486 281.933 151.644 282.106 151.507L282.134 151.487C282.134 151.487 283.333 152.128 285.886 155.244C288.438 158.359 288.507 159.523 288.969 164.349C289.252 167.267 289.169 170.208 288.721 173.104C288.07 173.292 281.063 169.304 279.119 167.567C277.267 166.127 275.755 164.298 274.69 162.21C273.455 159.936 272.725 157.423 272.549 154.841C272.283 152.762 272.009 147.267 273.551 147.002ZM316.192 134.071C318.068 134.413 324.038 137.152 325.914 142.381C327.033 145.94 327.309 149.711 326.719 153.395C321.888 151.024 309.844 139.899 309.844 139.899C311.9 137.896 316.252 141.174 317.999 141.91C319.747 142.646 319.481 141.439 319.275 140.37C319.07 139.3 316.192 134.071 316.192 134.071ZM365.283 98.1786V110.836C365.283 110.836 365.206 110.925 365.054 111.069L365.308 110.836L365.365 111.409C366.004 117.421 367.792 120.173 367.792 120.173L367.681 120.543C366.401 124.372 362.165 124.332 362.165 124.332C362.344 116.921 360.974 113.207 360.974 113.207C361.197 113.155 361.418 113.094 361.636 113.026C359.97 113.54 357.748 113.72 355.004 112.847C348.305 110.716 350.438 99.4794 350.438 99.4794L350.378 98.1786H365.283Z" fill="white"/>
</mask>
<g mask="url(#mask1)">
<path d="M273.551 147.002C275.093 146.737 275.829 148.671 278.176 153.498C280.381 158.032 281.702 158.065 282.798 158.329L283.008 158.384C284.147 158.718 282.948 156.587 281.937 154.439C281.018 152.486 281.933 151.644 282.106 151.507L282.134 151.487C282.134 151.487 283.333 152.128 285.886 155.244C288.438 158.359 288.507 159.523 288.969 164.349C289.252 167.267 289.169 170.208 288.721 173.104C288.07 173.292 281.063 169.304 279.119 167.567C277.267 166.127 275.755 164.298 274.69 162.21C273.455 159.936 272.725 157.423 272.549 154.841C272.283 152.762 272.009 147.267 273.551 147.002ZM316.192 134.071C318.068 134.413 324.038 137.152 325.914 142.381C327.033 145.94 327.309 149.711 326.719 153.395C321.888 151.024 309.844 139.899 309.844 139.899C311.9 137.896 316.252 141.174 317.999 141.91C319.747 142.646 319.481 141.439 319.275 140.37C319.07 139.3 316.192 134.071 316.192 134.071ZM365.283 98.1786V110.836C365.283 110.836 365.206 110.925 365.054 111.069L365.308 110.836L365.365 111.409C366.004 117.421 367.792 120.173 367.792 120.173L367.681 120.543C366.401 124.372 362.165 124.332 362.165 124.332C362.344 116.921 360.974 113.207 360.974 113.207C361.197 113.155 361.418 113.094 361.636 113.026C359.97 113.54 357.748 113.72 355.004 112.847C348.305 110.716 350.438 99.4794 350.438 99.4794L350.378 98.1786H365.283Z" fill="#DE9F9E"/>
</g>
<path fill-rule="evenodd" clip-rule="evenodd" d="M360.974 113.207C360.974 113.207 362.344 116.921 362.165 124.332C362.165 124.332 366.67 124.375 367.792 120.173C367.792 120.173 365.891 117.246 365.308 110.836C364.107 112.007 362.608 112.826 360.974 113.207Z" fill="url(#paint7_linear)"/>
<mask id="mask2" style="mask-type:alpha" maskUnits="userSpaceOnUse" x="342" y="87" width="56" height="89">
<path d="M353.692 88.7049C351.988 88.404 350.31 87.9719 348.673 87.4127C347.131 86.7452 343.739 87.233 343.045 89.6549C342.473 91.6948 342.82 93.8826 343.996 95.6455C345.601 98.1361 348.389 99.6116 351.354 99.5394C355.637 99.4538 359.406 97.8963 361.821 100.489C364.237 103.082 364.597 105.676 364.939 108.354C365.282 111.033 365.796 118.127 368.751 121.671C371.706 125.214 380.426 134.559 385.626 149.253C388.701 157.903 391.216 166.742 393.155 175.715C393.155 175.715 397.995 172.077 397.31 166.301C396.624 160.524 394.106 158.521 390.988 155.175C387.87 151.829 386.491 150.597 385.968 148.329C385.446 146.061 387.613 142.621 389.258 141.063C390.902 139.505 395.571 132.591 392.196 125.847C388.821 119.103 382.653 118.795 379.912 111.016C377.171 103.236 375.801 95.2775 373.231 92.5389C370.661 89.8004 367.235 90.0314 365.787 89.9715C364.34 89.9116 353.692 88.7049 353.692 88.7049Z" fill="white"/>
</mask>
<g mask="url(#mask2)">
<path d="M353.692 88.7049C351.988 88.404 350.31 87.9719 348.673 87.4127C347.131 86.7452 343.739 87.233 343.045 89.6549C342.473 91.6948 342.82 93.8826 343.996 95.6455C345.601 98.1361 348.389 99.6116 351.354 99.5394C355.637 99.4538 359.406 97.8963 361.821 100.489C364.237 103.082 364.597 105.676 364.939 108.354C365.282 111.033 365.796 118.127 368.751 121.671C371.706 125.214 380.426 134.559 385.626 149.253C388.701 157.903 391.216 166.742 393.155 175.715C393.155 175.715 397.995 172.077 397.31 166.301C396.624 160.524 394.106 158.521 390.988 155.175C387.87 151.829 386.491 150.597 385.968 148.329C385.446 146.061 387.613 142.621 389.258 141.063C390.902 139.505 395.571 132.591 392.196 125.847C388.821 119.103 382.653 118.795 379.912 111.016C377.171 103.236 375.801 95.2775 373.231 92.5389C370.661 89.8004 367.235 90.0314 365.787 89.9715C364.34 89.9116 353.692 88.7049 353.692 88.7049Z" fill="#FE6261"/>
</g>
<path fill-rule="evenodd" clip-rule="evenodd" d="M131.768 4.66495C131.768 4.66495 117.609 1.03635 113.292 0.249006C108.975 -0.538333 100.126 0.249006 95.6033 6.92428C91.0806 13.5995 90.8836 21.8409 90.8836 21.8409V359.883C90.8836 359.883 89.6843 379.353 95.0808 387.86C100.477 396.366 105.463 400.928 118.534 400.928H221.616C221.616 400.928 229.864 401.227 228.58 354.055V48.1227C228.562 44.346 227.967 40.5942 226.815 36.9972C225.009 32.5239 221.459 28.9772 216.981 27.1726C213.418 25.7862 131.768 4.66495 131.768 4.66495Z" fill="#B5C1CF"/>
<path fill-rule="evenodd" clip-rule="evenodd" d="M136.094 10.6641C136.094 10.6641 124.29 7.69446 117.72 6.47922C112.949 5.62341 109.352 11.1348 109.035 15.6363C108.718 20.1378 109.035 110.22 109.035 110.22V356.597C109.035 356.597 108.409 375.587 112.512 382.271C117.138 389.837 132.034 389.118 135.863 389.118H214.763C214.763 389.118 226.4 391.701 226.233 354.124V59.9584C226.233 59.9584 226.695 44.708 222.806 37.7075C219.491 31.7597 204.972 28.7216 204.972 28.7216L136.094 10.6641Z" fill="#CFD7E0"/>
<path fill-rule="evenodd" clip-rule="evenodd" d="M128.916 3.75775C128.916 3.75775 133.704 12.3158 135.589 16.5948C137.473 20.8738 139.366 26.3681 147.581 28.4306C155.796 30.4931 191.361 38.0327 191.361 38.0327C191.361 38.0327 199.927 40.6001 202.925 34.9518L208.767 24.9303L128.916 3.75775Z" fill="#B5C1CF"/>
<path fill-rule="evenodd" clip-rule="evenodd" d="M160.464 197.195C160.464 209.176 155.076 218.017 145.945 218.847C137.97 219.566 128.119 209.253 128.119 197.298C128.119 185.342 136.068 175.963 144.086 175.963C152.104 175.963 160.464 185.24 160.464 197.195Z" fill="#1DBE9F"/>
<path fill-rule="evenodd" clip-rule="evenodd" d="M187.352 201.354C187.352 208.03 183.806 212.343 179.36 213.045C174.709 213.781 170.563 208.081 170.563 201.414C170.563 194.747 174.246 190.023 178.846 189.501C183.112 189.022 187.352 194.679 187.352 201.354Z" fill="#FFDD55"/>
<path fill-rule="evenodd" clip-rule="evenodd" d="M210.745 204.35C210.745 209.339 208.236 212.574 205.1 213.096C201.811 213.644 198.882 209.382 198.882 204.392C198.882 199.403 201.451 195.834 204.732 195.475C207.773 195.115 210.745 199.352 210.745 204.35Z" fill="#FF897D"/>
<path fill-rule="evenodd" clip-rule="evenodd" d="M208.202 359.379C208.202 359.379 216.108 369.922 216.622 376.135C217.136 382.348 216.887 385.712 211.054 389.203C206.168 392.228 203.371 397.717 203.799 403.444H222.472C224.185 403.444 229.325 404.351 231.544 397.625C233.762 390.898 241.78 354.903 241.78 354.903L208.219 359.379" fill="#FF6565"/>
<path fill-rule="evenodd" clip-rule="evenodd" d="M37.587 372.772C37.587 372.772 31.745 384.933 22.6738 387.269C13.6026 389.606 5.5421 389.725 0 402.408H57.0057L37.587 372.772Z" fill="#FF6565"/>
<path fill-rule="evenodd" clip-rule="evenodd" d="M92.0059 245.24L91.7403 295.459C86.5625 291.273 82.7291 285.661 80.7161 279.318C80.7589 278.882 80.8017 278.462 80.8446 278.12C81.8468 269.69 85.5472 254.175 92.0059 245.24Z" fill="#3640E8"/>
<path fill-rule="evenodd" clip-rule="evenodd" d="M171.934 335.433V297.23C171.934 297.23 189.768 305.737 198.085 316.058C206.403 326.379 210.172 342.588 208.193 359.404L171.934 335.433Z" fill="#3640E8"/>
<path fill-rule="evenodd" clip-rule="evenodd" d="M92.0055 245.24L91.8856 200.798C91.8856 200.798 85.7353 210.469 72.5353 222.998C72.5353 222.998 55.8576 268.467 54.3072 273.405C52.7568 278.343 37.5867 372.772 37.5867 372.772C37.5867 372.772 51.9859 369.195 61.8709 360.021C70.5309 351.976 75.4392 343.555 77.238 327.748C79.0368 311.941 79.8077 286.524 80.8442 278.112C81.8807 269.699 85.5469 254.175 92.0055 245.24Z" fill="#3640E8"/>
<path fill-rule="evenodd" clip-rule="evenodd" d="M18.0481 263.05L55.6008 277.102L63.7212 254.936L26.494 241.098L18.0481 263.05Z" fill="#FF887C"/>
<mask id="mask3" style="mask-type:alpha" maskUnits="userSpaceOnUse" x="38" y="112" width="41" height="151">
<path d="M53.0484 238.83C54.3076 241.697 55.6781 248.039 55.0871 251.813C54.3933 255.824 52.1076 259.385 48.7484 261.689C45.3649 263.974 40.5423 262.93 38.7692 261.013C36.996 259.096 39.1118 258.094 40.3795 256.734C41.6473 255.373 44.5682 251.376 45.7846 249.887C46.0847 249.617 46.2056 249.2 46.0966 248.812C45.9875 248.424 45.6675 248.13 45.2706 248.056L41.159 246.532C43.9515 241.817 53.0484 238.83 53.0484 238.83ZM74.3089 124.075L78.1978 128.56C78.035 137.195 71.3451 139.831 71.3451 139.831C71.3552 135.187 70.8816 130.555 69.9317 126.009C71.4868 125.608 72.9655 124.955 74.3089 124.075ZM74.9599 112.736V123.588C71.4407 126.196 66.9438 127.108 62.685 126.078C55.464 124.341 55.9608 113.977 55.9608 113.977L55.8837 112.736H74.9599Z" fill="white"/>
</mask>
<g mask="url(#mask3)">
<path d="M53.0484 238.83C54.3076 241.697 55.6781 248.039 55.0871 251.813C54.3933 255.824 52.1076 259.385 48.7484 261.689C45.3649 263.974 40.5423 262.93 38.7692 261.013C36.996 259.096 39.1118 258.094 40.3795 256.734C41.6473 255.373 44.5682 251.376 45.7846 249.887C46.0847 249.617 46.2056 249.2 46.0966 248.812C45.9875 248.424 45.6675 248.13 45.2706 248.056L41.159 246.532C43.9515 241.817 53.0484 238.83 53.0484 238.83ZM74.3089 124.075L78.1978 128.56C78.035 137.195 71.3451 139.831 71.3451 139.831C71.3552 135.187 70.8816 130.555 69.9317 126.009C71.4868 125.608 72.9655 124.955 74.3089 124.075ZM74.9599 112.736V123.588C71.4407 126.196 66.9438 127.108 62.685 126.078C55.464 124.341 55.9608 113.977 55.9608 113.977L55.8837 112.736H74.9599Z" fill="#8E4832"/>
</g>
<path fill-rule="evenodd" clip-rule="evenodd" d="M78.1977 128.56C78.0349 137.195 71.345 139.831 71.345 139.831C71.3552 135.187 70.8815 130.555 69.9316 126.009C71.4867 125.608 72.9654 124.955 74.3088 124.075L78.1977 128.56Z" fill="url(#paint8_linear)"/>
<path fill-rule="evenodd" clip-rule="evenodd" d="M91.8516 144.05V154.32C90.9387 151.311 89.2488 148.595 86.9519 146.446L74.6257 152.908C74.6257 153.293 77.8636 175.569 69.7945 188.689C63.7984 186.301 61.9568 184.213 61.9568 184.213C72.4757 156.476 71.3107 139.831 71.3107 139.831C78.5317 136.314 78.1634 128.56 78.1634 128.56C83.3617 133.126 87.9609 138.331 91.8516 144.05Z" fill="#1A1160"/>
<path fill-rule="evenodd" clip-rule="evenodd" d="M74.6258 152.907C74.6258 153.37 79.2514 185.094 63.6786 195.099C48.1059 205.103 43.7973 215.116 46.5469 224.359C49.2966 233.601 53.0227 238.83 53.0227 238.83C53.0227 238.83 76.4503 223.28 91.8603 200.798V154.448C91.8603 154.448 91.0894 150.597 86.9264 146.446L74.6258 152.907Z" fill="#1A1160"/>
<path fill-rule="evenodd" clip-rule="evenodd" d="M54.1361 113.643C52.6745 113.617 51.3986 112.647 50.9839 111.247C49.0885 110.145 48.0182 108.034 48.2514 105.855C48.5769 102.047 52.9797 101.628 52.9797 101.628C52.9844 100.854 53.6106 100.229 54.3845 100.224C54.3845 100.224 54.5558 96.4072 58.2049 95.4144C61.8539 94.4217 63.096 96.9891 63.096 96.9891C63.096 96.9891 64.0896 93.7542 67.3275 94.0024C70.5654 94.2505 71.1393 96.4927 71.1393 96.4927C71.1393 96.4927 73.7091 94.3361 76.373 96.159C79.037 97.9818 78.3603 100.224 78.3603 100.224C78.3603 100.224 82.0094 99.4709 80.6817 102.954C81.9898 103.317 83.0787 104.224 83.6711 105.444C84.0891 106.72 84.0282 108.104 83.4998 109.338C83.4998 109.338 87.3202 110.913 87.2345 113.977C87.2251 115.729 86.2773 117.342 84.7504 118.204C84.7504 118.204 85.6584 121.85 82.9259 123.836C80.1934 125.821 78.2747 125.085 78.2747 125.085C78.2747 125.085 72.8867 126.078 73.1351 120.027C73.1351 120.027 70.1457 119.112 71.4734 115.141C70.4469 115.218 69.5095 114.558 69.2377 113.566C68.8109 114.28 68.102 114.78 67.2861 114.943C66.4703 115.106 65.6234 114.917 64.9548 114.422C64.9548 114.422 61.8025 118.889 58.1535 114.422C58.1535 114.422 57.2969 116.741 55.4124 116.133C54.8979 115.994 54.4662 115.644 54.2232 115.17C53.9803 114.696 53.9486 114.142 54.1361 113.643Z" fill="#353CE1"/>
<defs>
<linearGradient id="paint0_linear" x1="507.933" y1="277.785" x2="510.73" y2="278.211" gradientUnits="userSpaceOnUse">
<stop stop-opacity="0.2"/>
<stop offset="1" stop-opacity="0"/>
</linearGradient>
<linearGradient id="paint1_linear" x1="478.629" y1="110.382" x2="478.629" y2="119.137" gradientUnits="userSpaceOnUse">
<stop stop-opacity="0.1"/>
<stop offset="1" stop-opacity="0"/>
</linearGradient>
<linearGradient id="paint2_linear" x1="478.48" y1="161.554" x2="468.594" y2="153.627" gradientUnits="userSpaceOnUse">
<stop stop-opacity="0.15"/>
<stop offset="1" stop-opacity="0"/>
</linearGradient>
<linearGradient id="paint3_linear" x1="325.079" y1="390.92" x2="334.733" y2="395.878" gradientUnits="userSpaceOnUse">
<stop stop-opacity="0"/>
<stop offset="1" stop-opacity="0.2"/>
</linearGradient>
<linearGradient id="paint4_linear" x1="354.319" y1="278.125" x2="331.98" y2="278.125" gradientUnits="userSpaceOnUse">
<stop stop-opacity="0.1"/>
<stop offset="1" stop-opacity="0"/>
</linearGradient>
<linearGradient id="paint5_linear" x1="344.171" y1="158.155" x2="347.612" y2="163.467" gradientUnits="userSpaceOnUse">
<stop stop-opacity="0"/>
<stop offset="1" stop-opacity="0.2"/>
</linearGradient>
<linearGradient id="paint6_linear" x1="379.026" y1="169.567" x2="370.678" y2="175.155" gradientUnits="userSpaceOnUse">
<stop stop-opacity="0"/>
<stop offset="1" stop-opacity="0.2"/>
</linearGradient>
<linearGradient id="paint7_linear" x1="364.091" y1="111.371" x2="365.209" y2="117.432" gradientUnits="userSpaceOnUse">
<stop stop-opacity="0.3"/>
<stop offset="1" stop-opacity="0"/>
</linearGradient>
<linearGradient id="paint8_linear" x1="73.4726" y1="124.075" x2="75.4597" y2="129.873" gradientUnits="userSpaceOnUse">
<stop stop-opacity="0.1"/>
<stop offset="1" stop-opacity="0"/>
</linearGradient>
</defs>
</svg>
