<svg xmlns="http://www.w3.org/2000/svg" width="24" height="24" fill="none" xmlns:v="https://vecta.io/nano"><style><![CDATA[.B{stroke-linecap:round}.C{fill:#fedf00}.D{stroke-width:.7}.E{stroke:#703d29}.F{stroke-width:.6}.G{fill:#d52b1e}.H{fill:#c7b37f}.I{stroke-width:.5}]]></style><mask id="A" mask-type="alpha" maskUnits="userSpaceOnUse" x="0" y="0" width="24" height="24"><circle cx="12" cy="12" r="12" fill="#c4c4c4"/></mask><g mask="url(#A)"><path d="M-4 0H28V24H-4V0Z" fill="#d0103a"/><path d="M-4 0H17.76V24H-4V0Z" class="C"/><path d="M-4 0H6.24v24H-4V0z" fill="#0018a8"/><path d="M11.02 6.83c.385 0 .545.33.93.33.235 0 .375-.075.585-.195.145-.08.235-.125.4-.125a.37.37 0 0 1 .365.2.53.53 0 0 1 .065.335 2 2 0 0 1-.135.415c-.035.08-.065.125-.065.2 0 .205.28.275.47.28.04 0 .385 0 .6-.2-.115-.005-.245-.1-.245-.215 0-.13.1-.215.215-.255.025-.005.065.015.085 0 .035-.015.02-.05.05-.07.06-.05.1-.08.18-.08.05 0 .08.005.125.035.02.02.03.04.05.04.06 0 .1-.04.15-.04a.25.25 0 0 1 .115.03c.03.015.03.075.07.075.02 0 .12-.045.175-.045.1 0 .17.04.24.125.02.025.03.07.05.07a.31.31 0 0 1 .24.15c.015.02.035.07.055.075.03.015.05.01.085.035a.3.3 0 0 1 .14.24c0 .035-.015.08-.025.1-.1.325-.315.43-.54.715-.1.12-.175.215-.175.37 0 .035.05.105.065.135-.01-.07.025-.16.1-.165a.2.2 0 0 1 .2.18c.001.03-.004.06-.015.1a.48.48 0 0 1 .2-.07h.095c.165 0 .35.095.465.2a1.05 1.05 0 0 1 .365.84c-.04.26-.015.74-.7.93.125.05.2.15.2.26.001.03-.003.06-.014.088s-.026.054-.047.076-.045.04-.073.052-.057.02-.087.02a.22.22 0 0 1-.175-.07c-.14.14-.165.285-.165.485a.63.63 0 0 0 .07.3.62.62 0 0 0 .185.255c.05-.075.105-.13.2-.13.085 0 .16.03.195.1.01.025 0 .045.015.07s.04.035.055.065c.025.05 0 .1.025.135.015.035.045.04.06.07a.31.31 0 0 1 .025.135c0 .15-.135.26-.285.26-.05 0-.07-.02-.115-.015.085.085.15.125.215.225.102.152.154.332.15.515a1.1 1.1 0 0 1-.14.56 1 1 0 0 1-.35.425 1.75 1.75 0 0 1-.8.32c-.18.037-.365.06-.55.07l-.705.04c-.36.02-.6.075-.865.33.12.085.2.175.2.32s-.1.265-.235.3c-.035.01-.06 0-.095.02s-.035.065-.07.085a.31.31 0 0 1-.19.05.4.4 0 0 1-.32-.125c-.1.1-.15.17-.275.245-.04.02-.06.05-.105.05-.075 0-.1-.05-.17-.1a1.15 1.15 0 0 1-.22-.2c-.115.065-.18.12-.315.12a.35.35 0 0 1-.2-.05c-.03-.025-.04-.06-.075-.08-.035-.025-.065-.015-.105-.035-.15-.065-.25-.175-.25-.34 0-.145.1-.235.22-.3-.25-.25-.5-.3-.85-.3l-.7-.04c-.22-.015-.34-.035-.55-.07-.165-.025-.26-.035-.4-.105-.5-.24-.84-.565-.9-1.125-.01-.05-.01-.075-.01-.125 0-.3.115-.47.32-.675-.05-.015-.085 0-.14-.015-.125-.05-.22-.135-.22-.275 0-.05 0-.085.025-.13.02-.03.05-.035.06-.07.01-.05 0-.08.02-.125.015-.025.04-.03.05-.06.05-.095.1-.17.205-.17.1 0 .15.05.2.125.1-.04.1-.105.16-.185.06-.1.098-.2.1-.325s-.002-.23-.04-.34c-.02-.075-.03-.125-.1-.185-.05.05-.1.07-.17.07-.145 0-.25-.125-.25-.265a.24.24 0 0 1 .15-.23c-.08-.07-.15-.075-.235-.13-.13-.08-.175-.17-.26-.3-.06-.08-.075-.14-.1-.235a.95.95 0 0 1-.05-.39c.03-.25.075-.4.23-.595a.66.66 0 0 1 .29-.245c.115-.05.185-.085.3-.085l.1.005c.05.003.097.017.14.04.02.01.055.045.055.02s-.015-.04-.015-.065c0-.1.075-.2.18-.2.075 0 .105.07.145.135.02-.04.035-.07.035-.115 0-.17-.095-.26-.2-.395-.235-.3-.525-.425-.525-.8 0-.1.05-.185.15-.245.025-.015.065 0 .1-.015s.02-.05.035-.07c.025-.035.05-.05.08-.08.05-.05.1-.03.155-.075.03-.02.04-.05.06-.07.065-.08.125-.12.23-.12.05 0 .08 0 .125.02l.05.025c.015-.01.04-.04.075-.055a.2.2 0 0 1 .11-.03c.055 0 .1.03.15.03.015 0 .02-.02.04-.03.05-.035.075-.05.135-.05s.1.015.14.05c.05.025.05.065.1.1.025.015.05.01.075.02.13.045.225.13.225.265 0 .075-.015.125-.07.175-.045.035-.085.03-.14.05a.8.8 0 0 0 .565.175c.2 0 .465-.085.465-.295 0-.1-.05-.15-.1-.24a.94.94 0 0 1-.105-.425.49.49 0 0 1 .095-.335c.08-.115.18-.145.325-.145z" class="H"/><g class="E"><g class="D"><path d="M9.62 7.95a.18.18 0 0 0 .12.12c.04.015.135.01.2-.07.05-.06.05-.14.03-.2-.017-.044-.046-.083-.085-.1l-.255.26z" stroke-linejoin="round"/><path d="M16.05 11.805c-.06-.145-.215-.08-.22 0-.025.185.135.24.25.2a.2.2 0 0 0 .073-.037c.022-.017.04-.04.052-.063.03-.05.04-.12.02-.185-.008-.03-.022-.056-.04-.08a.25.25 0 0 0-.065-.06c-.045-.03-.095-.03-.17-.03-.275 0-.52.325-.6.67a1.43 1.43 0 0 0-.015.6 1.12 1.12 0 0 0 .295.565c.14.133.3.232.495.3.065.02.134.02.2.005.16-.035.235-.2.15-.35-.065-.125-.265-.2-.36-.03-.005.015-.02.045-.02.075 0 .045.02.1.05.12.075.045.2.03.185-.1" class="B"/></g><path d="M15.2 13.7c.085-.098.202-.163.33-.185a.63.63 0 0 1 .41.1c.163.074.3.194.396.345s.146.326.144.505-.05.375-.1.47c-.04.085-.15.45-.765.7-.355.15-.9.18-1.285.2-.52.015-1 .035-1.275.38" stroke-width=".8"/><g class="D"><path d="M12.525 8.135c.04.07.065.115.04.195-.03.085-.1.14-.18.14a.27.27 0 0 1-.225-.39c.16-.265.465-.115.75.015-.015-.065-.04-.1-.035-.175.005-.2.16-.3.225-.5.035-.115.05-.215-.035-.3-.075-.065-.16-.065-.255-.03-.2.075-.425.295-.83.3-.4-.005-.64-.225-.835-.3-.1-.035-.18-.035-.255.035-.085.08-.07.18-.035.3.065.2.22.285.225.5 0 .08-.02.1-.035.17.285-.13.6-.295.75-.015.085.16-.025.385-.225.385-.1 0-.15-.05-.18-.135-.02-.075 0-.14.04-.2m3.9 6.155c-.015-.05 0-.105.04-.165.06-.08.185-.105.3-.05a.37.37 0 0 1 .125.11l.055.08c.035.055.05.1.05.125.125.35-.07.725-.325.88-.2.12-.435.17-.72.2-.125.02-.2.015-.325.025h-.48c-.12-.006-.24-.006-.36 0l-.38.04c-.08.01-.17.025-.27.05-.03 0-.06.01-.1.02l-.06.015c-.18.055-.35.12-.5.2-.04.025-.1.05-.125.085l-.065.06c-.1.1-.195.2-.22.335v.08c0 .1.07.215.27.25l3.07-2.35z"/><path d="M11.83 8.28c-.005.075-.035.125-.115.155m.015-.44c.04.027.074.064.095.108s.03.093.025.142c-.01.125-.04.155-.14.225l.02-.475z" class="B"/></g></g><path d="M9.835 7.665l.035.025.04.04.025.05.01.04v.095l-.01.04-.025.03-.03.03-.045.025-.1.02-.05-.025-.045-.03-.025-.04-.02-.05v-.02l.24-.23z" class="H"/><g class="E"><g class="D"><path d="M9.76 7.86c-.015-.085-.1-.1-.15-.05-.055.075-.015.2.1.235a.2.2 0 0 0 .195-.07c.05-.065.045-.14.025-.2-.016-.045-.046-.083-.085-.1-.135-.1-.355-.08-.43.1-.1.22.1.4.3.515.23.16.5.2.7.2.46-.005.8-.225 1.035-.35.05-.03.105-.025.135.01a.1.1 0 0 1-.015.135" class="B"/><path d="M9 14.07l-.005.1-.015.06-.05.1-.065.1-.075.06-.055.025-.08.02M8.4 14.06l-.1.035-.1.08-.05.065-.055.1-.025.075-.02.1-.01.07.36-.515z"/></g><path d="M11.985 16.455c-.015.085-.095.18-.265.2l-.03.01" stroke-width=".8"/><path d="M16.2 13.8c.1.087.162.192.2.308s.072.24.07.367c0 .18-.05.375-.1.47-.04.085-.15.45-.765.7a4.25 4.25 0 0 1-1.28.2c-.515.015-1 .035-1.27.365" stroke-width=".9"/><path d="M15.375 14.145c.04-.05.175-.12.3-.055a.31.31 0 0 1 .115.1" class="F"/><path d="M16.08 13.7l.07.025a.35.35 0 0 0 .2 0c.14-.04.23-.17.16-.345a.3.3 0 0 0-.09-.105" stroke-width=".9"/><path d="M9.945 7.9c0 .1-.06.14-.15.16M8.015 10c-.1.055-.165.07-.24.155-.058.107-.102.222-.13.34l.37-.495z" class="B D"/><path d="M15.855 9.6a.95.95 0 0 1 .673.299.95.95 0 0 1 .257.691c0 .8-.495.925-.7.98" class="F"/><path d="M15.92 9.6c.405-.015.825.285.845 1.035.015.585-.4.85-.6.9" class="D"/><g class="F"><path d="M8.62 9.525v.05m7.07 2.845l.005-.08.03-.125.035-.1.045-.08.05-.065-.165.45zm.555-.62v.075l-.025.05-.035.055-.04.03-.06.025h-.055L16 12.03l.255-.23zm-.97-2.4l.015-.085.04-.08.05-.075.08-.1.07-.07.1-.1.1-.095.055-.065.075-.095.07-.1.04-.085.025-.1.005-.135v-.04L15.275 9.4zm.1 5.155l.08-.02.06-.03.035-.035.025-.04.015-.06v-.045l-.215.23zM7.68 13.7h.135l.08-.03-.215.03zm.465-1.855l-.01.07-.04.06L8.06 12l-.035.015-.05.005h-.03l.2-.175zm.295-.6l-.015.105-.025.05-.04.06-.06.045-.06.03-.115.025.315-.315zm.45-1.67l-.025.065-.025.05-.04.05-.05.05-.06.025-.055.015-.03-.005.285-.25z"/><path d="M16.135 13.5l.025.01c.07.04.2-.01.17-.12m-7.615-2.2c-.03.03-.066.053-.105.07l.105-.07z" class="B"/><path d="M12.37 16.835a.85.85 0 0 1-.38.305c-.153-.064-.284-.17-.38-.305m4.28-4.855c.05.065.145.085.22.065.027-.007.05-.02.073-.037a.2.2 0 0 0 .052-.063c.03-.05.04-.12.02-.185-.01-.03-.025-.056-.045-.08a.34.34 0 0 0-.065-.075l-.02-.01-.235.385zm.555 1.315c.003-.01.004-.023.005-.035a.2.2 0 0 0-.065-.15l-.04-.04.1.225zm-.08-.2c0-.1-.075-.16-.17-.175l.17.175zm-.38-.035L15.92 13c-.137-.145-.214-.336-.215-.535 0-.2.08-.42.18-.5l.1 1.085zM13.06 16.2l.1-.08.06-.05.115-.07.1-.05.08-.025.15-.03.18-.03-.785.335z"/><path d="M11.72 16.63a.5.5 0 0 1-.11.21" class="B"/><path d="M12.35 16.82c-.065.1-.215.25-.38.3-.153-.066-.285-.173-.38-.3m.145-.295l-.02.1.02-.1zm-.135.325l-.05.05-.085.045-.1.03.235-.125zm-.515-8.765c.015-.04.025-.07.025-.13-.005-.2-.16-.305-.225-.5-.035-.115-.05-.215.035-.3.07-.07.16-.07.25-.03.2.075.43.3.835.3-.405-.01-.64-.225-.83-.3-.1-.04-.2-.05-.265.025-.085.08-.06.2-.025.305.065.195.2.3.215.5 0 .06-.015.1-.025.13h.01zM12 7.4c.4-.02.745-.3.855-.315.1-.02.15-.01.225.055-.07-.065-.15-.06-.25-.025-.2.075-.42.3-.83.3V7.4zm3.98 5.66c-.096-.072-.174-.166-.228-.273s-.082-.226-.082-.347c0-.205.085-.42.18-.5l.13 1.12z"/><path d="M11.335 8.185l.115-.065c.05-.03.115-.025.145.01s.035.1-.01.14" class="B"/><path d="M8.76 9.755c.043.034.077.077.1.127s.035.104.034.158c0 .155-.13.4-.45.5-.106.03-.22.015-.315-.04m2.605-2.035c.275-.06.5-.18.67-.275l-.67.275zm2.28 7.935c.025.015.04.05.04.05.005.01.015.025.015.04.015.075-.035.12-.1.13-.085.01-.15-.04-.175-.1l.22-.12zM10.72 8.45c.275-.055.5-.18.67-.275l-.67.275zm5.55 5.07c-.05.02-.08.015-.15-.01l-.1-.05c-.182-.104-.33-.26-.42-.45-.038-.073-.067-.15-.085-.23a.6.6 0 0 1-.025-.165 1.28 1.28 0 0 1 .235-.765c.055-.08.105-.125.2-.13l.325 1.8z"/><path d="M8.815 10.28c.055.04.08.085.08.165 0 .05-.035.12-.095.185a.62.62 0 0 1-.44.2.53.53 0 0 1-.3-.085.45.45 0 0 1-.19-.27"/><path d="M8.9 9.635c-.014.044-.037.085-.068.12s-.07.062-.112.08c-.095.04-.2 0-.26-.04m.36.82c.065.06.085.135.085.23 0 .135-.055.24-.185.35-.03.03-.06.05-.1.075l.2-.655zm6.275-.45v.175-.175zm-.015-.045v.25-.25zm.015-.54v.33-.33zm-.015-.07v.445V9.5zm-.095 4.545c-.052.106-.123.2-.2.28a.98.98 0 0 1-.29.205 1.23 1.23 0 0 1-.33.11c-.11.027-.225.042-.34.045-.125 0-.195 0-.32-.01l-.335-.04c-.1-.01-.17-.02-.28-.015-.187-.007-.374.024-.55.1a1.02 1.02 0 0 0-.315.19 1.1 1.1 0 0 0-.32-.19 1.1 1.1 0 0 0-.255-.07c-.115-.02-.175-.02-.3-.02s-.17.005-.28.015l-.335.04-.32.01a1.65 1.65 0 0 1-.67-.15c-.122-.057-.23-.14-.32-.24l5.76-.25zm-3.655 2.92l.1-.01-.1.01zm1.605-.13l.1-.005.085-.035.06-.04.085-.1.015-.03.015-.085v-.04l-.35.335zm2.7-7.17c.035-.13-.01-.27-.14-.265l.14.265zm-6.74 2.06a.41.41 0 0 1-.175.235l.175-.235z"/><path d="M8.2 10.12c.075.04.155-.02.14-.12-.007-.03-.023-.055-.045-.075s-.05-.032-.08-.035" class="B"/><path d="M8.5 14.33c.015.015.02.035.04.04.035.01.06.02.095-.025.04-.055.015-.14-.025-.195a.25.25 0 0 0-.29-.05c-.04.025-.085.05-.13.1l-.055.08a.43.43 0 0 0-.055.12c-.1.295.02.6.205.785"/><path d="M13 16.4l.035.04.01.045c.015.075-.035.12-.1.13-.08.01-.14-.04-.165-.1" class="B"/><path d="M16.345 13.07c-.008-.042-.03-.08-.063-.107s-.074-.042-.117-.043c-.05 0-.096.02-.13.054s-.054.082-.054.13a.19.19 0 0 0 .05.13m-.56-5.495a.37.37 0 0 1 .315.35c0 .22-.075.3-.2.46-.125.17-.535.48-.535.835 0 .215.06.35.215.42.1.05.215 0 .27-.05.13-.12.075-.325-.06-.35-.16-.03-.195.23-.035.215l.02-1.88z"/><path d="M8.7 11.205c.135.1.195.2.195.375a.42.42 0 0 1-.2.375m6.5-2.2c-.043.034-.078.077-.1.127s-.035.104-.034.158c0 .155.13.4.45.5.12.035.24.03.3-.015l-.625-.77zM8.02 10a.47.47 0 0 0-.24.175c-.12.19-.16.417-.1.635a.79.79 0 0 0 .115.28c.015.022.03.042.05.06l.06.05.125-1.2zm3.075 5.8c.245.105.42.185.57.425a.5.5 0 0 1 .06.245c0 .135-.05.285-.165.38-.045.04-.1.07-.156.087s-.12.022-.18.013c-.095-.01-.185-.08-.2-.13l.07-1.02z"/><path d="M8.575 11.82c.2.255.315.405.32.705a.98.98 0 0 1-.25.685" class="B"/><path d="M15.085 12.775v.8l-.005.125-.015.085M12.5 8.465c.037-.027.063-.066.075-.1.025-.075.025-.14-.01-.2.05.07.05.125.035.2-.005.05-.04.075-.08.115v-.005z"/><path d="M9.005 14.025c.008.07.002.138-.018.204s-.053.128-.097.18c-.04.045-.13.13-.25.13-.185 0-.24-.125-.25-.16m6.68-1.68v.995l-.025.13.025-1.125zm0-1.025v.73-.73zm.015.06v.6-.6zm0-.75v.44-.44zm-.015-.055v.55-.55zm.015-.4v.175-.175zm-.015-.035v.25-.25zm-.1 3.5l-.02.035c-.05.107-.12.204-.205.285a.98.98 0 0 1-.295.2 1.23 1.23 0 0 1-.325.11 1.63 1.63 0 0 1-.345.045c-.125 0-.195 0-.315-.01l-.34-.04-.28-.015c-.1 0-.175 0-.285.02a1.1 1.1 0 0 0-.26.07c-.135.055-.285.15-.32.2-.03-.04-.185-.135-.315-.2a1.1 1.1 0 0 0-.26-.07c-.1-.02-.175-.02-.3-.02-.1 0-.17.005-.28.015l-.335.04-.315.01a1.65 1.65 0 0 1-.675-.15c-.108-.05-.207-.12-.3-.205a1.1 1.1 0 0 1-.125-.14l5.875-.18z"/><path d="M12.4 16.85l.035.035c.045.04.1.07.156.087s.12.022.178.013c.04-.005.08-.018.114-.04s.064-.05.086-.085l.025-.035m-4.205-2.88a.63.63 0 0 1 .095.125c.05.1.03.24-.005.3a.23.23 0 0 1-.015.02l-.075-.455zM7.84 15.3a1.53 1.53 0 0 0 .545.355c.355.15.905.18 1.285.2.5.015.965.035 1.25.35L7.84 15.3zm3.945.705a.6.6 0 0 1 .2.275l-.2-.275zm-.165.85a.4.4 0 0 1-.035.035c-.045.04-.097.07-.154.086s-.117.022-.176.014c-.1-.01-.2-.08-.215-.13l.58-.005zm-.85-.14l.015.02a.38.38 0 0 0 .255.12l-.27-.14zm1.62.14a.9.9 0 0 1-.385.305c-.153-.064-.284-.17-.38-.305l-.015-.025.78.025z"/><path d="M12.95 16.83l-.035.06-.055.05-.085.035h-.08"/><path d="M14.45 7.65a.3.3 0 0 1 .11.13c.1.225-.1.395-.3.52-.125.084-.267.14-.415.165m-.695 7.8c.05.038.093.087.12.145.015.035.02.075.025.115a.29.29 0 0 1-.075.21c-.035.037-.076.067-.123.088s-.097.032-.147.032l.2-.6zm-.2.58a.34.34 0 0 1-.26-.11l.26.1zm2.925-3.505a1.19 1.19 0 0 1-.24-.32c-.038-.07-.066-.147-.085-.225a.6.6 0 0 1-.025-.165 1.3 1.3 0 0 1 .23-.765c.035-.04.07-.1.105-.1l.015 1.585zm-.08-5.38c.125.01.24.15.24.285 0 .2-.065.275-.22.465-.13.16-.53.45-.515.725 0 .05.025.1.055.14l.44-1.615zm-.6 1.8a.35.35 0 0 0 .1.07.25.25 0 0 0 .215-.015l-.315-.055z"/><path d="M13.3 8.2a.23.23 0 0 1-.06-.05c-.05-.05-.075-.115-.04-.22.03-.095.185-.36.2-.545.01-.28-.1-.45-.265-.5M14.23 8.08a.21.21 0 0 1-.155-.075.17.17 0 0 1-.035-.05l.2.125z"/><path d="M15.065 14.35l.03.04a.41.41 0 0 0 .275.15c.185 0 .23-.13.235-.16.025-.145-.025-.18-.1-.225 0 0-.04-.02-.095-.01m-2.045-6.82l-.005.1-.03.1-.05.15-.05.095-.04.095-.02.065-.01.05.005.045.2-.7z" class="B"/><path d="M8.83 10.3c.025.02.045.045.055.065M7.85 13.72c-.06.017-.124.017-.185 0-.145-.045-.26-.18-.2-.35l.385.35zm.285-1.94c.015.015.02.035.02.05.02.2-.14.24-.25.2a.28.28 0 0 1-.15-.115c-.02-.035-.034-.074-.035-.115l.415-.03zm.685-1.15c.03.025.05.05.065.085l-.065-.085z"/><path d="M8.895 10.525c-.02.044-.047.085-.08.12a.62.62 0 0 1-.44.2.53.53 0 0 1-.3-.085c-.1-.065-.17-.165-.2-.28" class="B"/><path d="M8.77 9.765a.39.39 0 0 1 .12.17"/><path d="M8.9 10.16c-.045.15-.175.33-.43.395-.12.03-.28-.01-.33-.05" class="B"/><path d="M8 10.13c.015.13.1.23.27.23.235.005.38-.335.17-.575"/><path d="M8.15 11.585c.2-.025.33-.185.3-.365-.015-.14-.14-.25-.23-.255m-.75.3a.68.68 0 0 0 .12.12.84.84 0 0 0 .3.165l-.42-.285z" class="B"/><path d="M8.5 9.405c.095 0 .15.08.145.15"/><path d="M15.93 9.995c.085.115.03.35-.2.35a.26.26 0 0 1-.225-.125M8.47 8.15c.047.124.135.228.25.295l-.25-.295z" class="B"/><path d="M15.085 8.455V9.25"/><g class="B"><path d="M14.7 7.545c.135-.07.24-.06.315.05s.1.234.08.36a.46.46 0 0 1-.175.29m-6.73 1.87c.07.05.165-.035.125-.13-.025-.06-.1-.13-.235-.045-.14.095-.1.4.16.395.235 0 .38-.34.17-.58-.2-.23-.565-.18-.8.01a1.07 1.07 0 0 0-.36.585c-.032.152-.032.308 0 .46.025.134.076.26.15.375l.065.085c.04.04.05.06.1.1a.75.75 0 0 0 .52.185c.23-.01.365-.17.34-.365-.02-.2-.2-.285-.335-.195-.085.06-.115.245.035.3.08.025.155-.085.1-.15l-.035-1.02z"/><path d="M15.025 7.6a.29.29 0 0 1 .415.08.46.46 0 0 1 .08.305.56.56 0 0 1-.285.46"/></g><path d="M15.75 7.96c.13.01.23.125.23.255 0 .2-.05.275-.2.465-.135.165-.53.45-.52.73 0 .105.1.2.165.2"/><path d="M15.77 10.115c-.075.05-.165-.03-.125-.12.025-.06.1-.14.235-.055.135.095.1.4-.165.395-.235 0-.4-.33-.17-.58.2-.23.585-.185.825.005.1.08.305.3.35.6.05.35.045.78-.32 1.05a.91.91 0 0 1-.53.15c-.23-.01-.365-.175-.34-.37.025-.2.2-.27.335-.195s.115.27-.035.3c-.085.01-.155-.085-.1-.15" class="B"/><path d="M15.645 9.995c.04-.175.185-.2.3-.2.325.005.555.4.56.775 0 .475-.2.76-.55.775-.095 0-.25-.04-.25-.15"/><path d="M15.85 9.915c.345.08.465.4.465.7 0 .245-.025.58-.5.695" stroke-linecap="square"/><path d="M16.42 13.265c.006-.034.002-.07-.01-.1s-.032-.06-.06-.082-.058-.036-.092-.04-.07-.002-.1.01-.06.033-.082.06-.036.058-.04.092-.002.07.01.1.033.06.06.082"/><g class="B"><path d="M15.97 13.795c-.16-.1-.475-.25-.75-.1a.38.38 0 0 0-.22.22.5.5 0 0 0 .09.475c.045.05.135.13.25.135.2 0 .235-.13.24-.16.02-.14-.06-.195-.1-.205-.035-.015-.14-.01-.16.065-.01.025-.01.065.01.1m.4-1.345c.07.1.15.205.315.3l-.315-.3z"/><path d="M13.025 16.42c.05.1-.01.16-.08.17-.1.015-.165-.07-.17-.15a.22.22 0 0 1 .057-.164c.02-.022.044-.04.072-.052a.22.22 0 0 1 .086-.02c.115 0 .205.075.25.175.015.035.025.075.025.12a.29.29 0 0 1-.07.205.36.36 0 0 1-.122.09c-.046.02-.097.033-.148.034-.2.005-.375-.2-.375-.4 0-.385.57-.6.8-.65a4.2 4.2 0 0 1 .895-.12l.505-.025a2.87 2.87 0 0 0 .45-.065 1.36 1.36 0 0 0 .63-.32.96.96 0 0 0 .295-.41.85.85 0 0 0-.065-.695c-.055-.1-.13-.17-.22-.228s-.2-.097-.296-.112c-.185-.025-.35.055-.45.24-.05.1-.03.24.005.3a.3.3 0 0 0 .24.15c.2 0 .235-.13.24-.16.02-.14-.06-.195-.1-.2-.035-.01-.14-.005-.16.07-.01.025-.01.065.01.1M12.86 15.8c-.24.105-.42.185-.57.425a.52.52 0 0 0-.06.245c0 .135.055.285.165.38a.42.42 0 0 0 .157.087c.057.017.12.022.178.013.1-.01.185-.08.2-.13"/></g><path d="M15.255 11.205c-.115.04-.195.2-.195.375a.42.42 0 0 0 .2.375"/><path d="M15.38 11.82c-.2.255-.315.405-.32.705 0 .285.085.48.255.685" class="B"/><path d="M14.295 7.6l.015-.025c.085-.12.235-.155.345-.075.13.1.165.27.13.45-.025.1-.1.205-.2.275"/><path d="M9.255 7.54c-.13-.06-.235-.05-.315.05-.04.05-.066.11-.08.17s-.014.127 0 .19c.03.135.07.2.175.3" class="B"/><path d="M8.93 7.6a.29.29 0 0 0-.415.08.46.46 0 0 0-.08.305.56.56 0 0 0 .29.46m-.24-.705a.34.34 0 0 0-.3.33c0 .225.05.315.175.48s.535.48.535.835c0 .215-.06.35-.215.42-.1.05-.215 0-.27-.05-.13-.12-.075-.325.06-.35.165-.03.195.23.035.215"/><path d="M8.2 7.96c-.125.01-.25.115-.25.25 0 .2.075.28.23.47.13.165.505.45.495.725 0 .1-.075.23-.145.215"/><path d="M7.9 11.805c.065-.145.22-.08.23 0 .02.185-.14.24-.255.2a.2.2 0 0 1-.125-.1.24.24 0 0 1-.02-.185c.01-.03.025-.056.045-.08a.25.25 0 0 1 .06-.06c.05-.03.095-.03.17-.03.275 0 .52.325.6.67a1.43 1.43 0 0 1 .015.6 1.12 1.12 0 0 1-.29.565 1.29 1.29 0 0 1-.5.29.35.35 0 0 1-.195.005c-.14-.045-.23-.175-.16-.35.06-.13.27-.2.365-.03.01.015.02.045.02.075 0 .045-.02.1-.05.12-.07.045-.185.03-.18-.1" class="B"/><path d="M7.535 13.27c-.006-.034-.004-.07.008-.1s.03-.06.058-.084.058-.037.092-.043.07-.003.1.01.06.032.083.058.037.058.042.092.002.07-.01.1-.033.06-.06.082m-.16.135c.05.02.08.015.145-.01l.1-.05c.13-.075.28-.2.42-.455a.94.94 0 0 0 .085-.225c.015-.05.025-.1.03-.165a1.28 1.28 0 0 0-.24-.765c-.055-.08-.1-.125-.2-.13l-.32 1.8z"/><path d="M7.6 13.07c.008-.043.03-.08.065-.1s.076-.042.12-.04.094.02.128.056.052.08.052.13a.19.19 0 0 1-.05.13m.055-.17a.78.78 0 0 0 .228-.273.77.77 0 0 0 .082-.347c0-.205-.08-.42-.18-.5"/><path d="M8.235 12.97c-.076.126-.185.23-.315.3" class="B"/><path d="M8.73 13.685c-.05-.1-.14-.16-.3-.175a.7.7 0 0 0-.41.095.93.93 0 0 0-.54.85 1.25 1.25 0 0 0 .1.475c.045.08.15.45.765.7.416.13.85.195 1.285.195.52.02 1 .04 1.28.38"/><path d="M7.985 13.795c.165-.1.475-.25.755-.1a.4.4 0 0 1 .215.22.5.5 0 0 1-.09.475c-.045.05-.135.13-.25.135-.2 0-.235-.13-.24-.16-.02-.14.06-.195.1-.2.035-.01.14-.005.16.07.01.025.01.065-.01.1" class="B"/><path d="M8.635 14.285c.015-.05.01-.1-.04-.165-.038-.04-.088-.066-.142-.075s-.1 0-.158.025c-.035.025-.08.05-.12.1-.02.02-.05.055-.06.08-.035.055-.05.1-.05.125-.125.35.075.72.325.88.22.14.44.18.72.2l.325.025h.48a3.6 3.6 0 0 1 .36 0l.38.04a2.09 2.09 0 0 1 .27.05c.03 0 .06.01.1.02l.06.015a2.82 2.82 0 0 1 .5.2c.04.025.1.05.125.085l.065.06c.1.1.2.2.22.335v.08c0 .1-.07.215-.265.25m-.8-.195c-.05.1.01.16.08.17.1.015.165-.07.175-.15a.22.22 0 0 0-.22-.235c-.054.001-.107.02-.152.05s-.08.075-.098.125c-.015.038-.024.08-.025.12a.29.29 0 0 0 .07.205.36.36 0 0 0 .122.09c.046.02.097.033.148.034.2.005.375-.2.375-.4 0-.385-.57-.6-.8-.65a4.2 4.2 0 0 0-.895-.12c-.175-.005-.3 0-.505-.025a2.87 2.87 0 0 1-.45-.065 1.36 1.36 0 0 1-.625-.32.85.85 0 0 1-.235-1.1c.054-.092.13-.17.218-.23s.2-.1.297-.114c.2-.025.35.055.45.24.05.1.03.24-.005.3a.3.3 0 0 1-.24.15c-.2 0-.235-.13-.24-.16-.02-.14.06-.195.1-.2.035-.01.14-.005.16.07.01.025.01.065-.01.1"/><path d="M9.665 7.6l-.02-.025C9.56 7.455 9.4 7.42 9.3 7.5c-.13.1-.165.27-.125.45a.45.45 0 0 0 .2.275" class="B"/><path d="M14.34 7.98c-.2.22-.405.3-.705.3-.1 0-.275-.03-.38-.105-.065-.05-.14-.13-.095-.275.03-.095.185-.36.2-.545.015-.28-.095-.435-.265-.495-.3-.1-.65.2-.85.27-.105.035-.16.04-.255.04a.7.7 0 0 1-.26-.04c-.2-.07-.535-.38-.85-.27-.17.06-.275.215-.265.5.005.18.16.45.2.54.05.145-.025.225-.095.275-.1.075-.285.105-.375.1-.3-.005-.505-.075-.705-.295"/><path d="M10.865 15.72c.04.015.01-.01.265.1a1.1 1.1 0 0 1 .565.445c.06.112.075.242.045.365" class="B"/><path d="M10.885 16.8a.4.4 0 0 0 .16.045c.2.005.375-.2.375-.4 0-.14-.075-.26-.18-.35"/><path d="M10.93 16.42c-.05.115.02.175.1.185.1.01.17-.07.18-.15.003-.042-.006-.084-.025-.12s-.05-.068-.085-.09" class="B"/><path d="M15.505 7.74c.16 0 .3.18.3.36 0 .215-.1.345-.195.44-.065.08-.135.15-.22.235"/><path d="M7.7 13.2c.06 0 .125.045.165.115.005.01.02.04.02.075 0 .045-.02.1-.05.1-.075.05-.2.025-.2-.1m7.7-5.84a.45.45 0 0 1 .14.12c.065.1.085.185.08.3-.01.2-.16.355-.3.45l.08-.88zm-.315 0l.03.035c.095.1.1.27.08.36a.41.41 0 0 1-.19.27L15 7.57zm-.33-.055c.13.1.17.27.125.45-.03.125-.1.2-.2.26l.085-.7zm.47 2.765c.015.05.045.065.075.1.086.085.193.145.3.175.12.035.23.01.315-.045l-.7-.23z" class="B"/><path d="M7.795 12.925c.1 0 .2.095.2.2a.19.19 0 0 1-.05.13m.14-1.7c.25.05.485.345.56.665.03.115.065.365.015.6a1.12 1.12 0 0 1-.3.57c-.032.035-.067.066-.105.095l-.05.035-.12-1.965z"/><path d="M7.73 13.035c.105 0 .205.1.205.2 0 .03-.006.057-.018.083s-.03.05-.052.067"/><path d="M8.9 12.785c-.017.07-.042.137-.075.2a.89.89 0 0 1-.18.235m.065-1.245a.9.9 0 0 1 .19.385l-.2-.385z" class="B"/><path d="M8.715 11.215c.1.075.15.15.175.24"/><path d="M8.265 10.345l.1-.03.065-.05.04-.055.035-.1.015-.075m.365.93a.5.5 0 0 1-.17.23l.17-.23z" class="B"/><path d="M8.05 9.965c-.035.01-.08.02-.125.04a.45.45 0 0 0-.175.15.85.85 0 0 0-.11.635.79.79 0 0 0 .115.28l.05.07c.07.065.13.1.23.085"/><path d="M8.65 9.5c-.015.065-.05.145-.15.135" class="B"/><path d="M8.285 9.925c-.1-.095-.3-.12-.505.01L7.7 10a.44.44 0 0 0-.07.08c-.053.076-.094.16-.12.25a1.07 1.07 0 0 0-.03.315c0 .05.01.095.015.135.03.14.07.24.115.3s.15.25.385.27c.1.005.24-.035.25-.15"/><g class="B"><path d="M14.2 7.85c.015-.08.115-.095.15-.05.06.08.02.2-.1.245a.2.2 0 0 1-.19-.07c-.05-.065-.045-.14-.025-.2.01-.04.045-.075.085-.1.135-.1.355-.08.43.1.1.22-.1.4-.3.515-.23.16-.5.2-.7.185-.46 0-.805-.22-1.035-.35-.05-.025-.105-.02-.135.015a.1.1 0 0 0 .015.135"/><path d="M15.145 10.635c-.175.2-.01.515.12.6.045.035.065.015.1.035M14.28 7.775c.05 0 .06.02.075.04.06.075.015.205-.1.245l.025-.285z"/></g><path d="M15.155 10.27c-.055.04-.075.085-.08.165-.003.036.002.073.014.107s.03.066.056.093a.7.7 0 0 0 .465.185.53.53 0 0 0 .3-.085.45.45 0 0 0 .19-.27l-.945-.195zm-.095 3.285l-.01.125c-.01.122-.044.24-.1.35s-.123.2-.2.28a.98.98 0 0 1-.295.2 1.23 1.23 0 0 1-.325.115 2.19 2.19 0 0 1-.66.03l-.34-.04-.28-.015c-.186-.005-.37.028-.545.095a1.06 1.06 0 0 0-.32.19c-.03-.045-.185-.14-.315-.2a1.1 1.1 0 0 0-.26-.075c-.1-.02-.175-.02-.3-.02-.1 0-.17.01-.28.02l-.335.035-.315.01a1.65 1.65 0 0 1-.35-.04c-.113-.02-.222-.058-.325-.1a.98.98 0 0 1-.29-.205c-.088-.08-.16-.178-.2-.285a.95.95 0 0 1-.1-.345c-.01-.05-.01-.125-.01-.125v-5.1h6.16v5.1h.005z"/></g></g><g class="H"><path d="M8.4 14.28c0-.033.013-.065.037-.088s.055-.037.088-.037.065.013.088.037.037.055.037.088-.013.065-.037.088-.055.037-.088.037-.065-.013-.088-.037-.037-.055-.037-.088zm-.775-.88c0-.065.04-.115.1-.115s.085.05.085.115-.04.1-.085.1-.1-.05-.1-.1z" stroke="#c7b37f" stroke-width=".3"/><path d="M8.065 11.18c0-.05.04-.1.085-.1s.085.04.085.1-.035.1-.085.1-.085-.04-.085-.1zM9.6 7.9c0-.05.025-.1.07-.1s.085.03.1.08-.025.1-.07.1-.08-.03-.1-.08z"/></g><g stroke="#c7b37f" class="F"><path d="M8.7 11.9l-.04-.04-.05-.04-.045-.04m-.6-.1c-.02.005-.03.01-.04.025s-.02.02-.03.045l-.01.06.08-.13zm.155 1.465l.05-.05.03-.05.025-.05.035-.065-.14.215zm.075.485l-.075.035-.055.03-.065.04-.06.05.255-.155z" class="B"/><path d="M8.7 11.25l-.06.025c-.024.01-.05.014-.075.015"/><path d="M9.15 7.985c.015.035.015.05.035.08.01.025.02.04.04.06L9.3 8.2c.035.03.06.035.1.055M7.87 10.42c.01.03.01.05.025.075.01.035.025.055.045.085.032.054.077.1.13.135l.075.04-.275-.335zm.225.045l.065.03a.37.37 0 0 0 .15.03l.1-.005-.305-.055zm.665-1.98l-.1-.06c-.045-.025-.065-.045-.1-.075-.02-.02-.04-.042-.055-.065l-.04-.065.295.265zM8.84 8l.03.085a.39.39 0 0 0 .07.1c.05.05.085.065.14.1L8.84 8z" class="B"/></g><g fill="#703d29"><path d="M12.665 7.58c0-.085-.085-.1-.12-.1-.1 0-.115.055-.23.115-.1.066-.216.1-.335.1a.6.6 0 0 1-.335-.1c-.115-.06-.135-.115-.23-.115-.015.001-.03.004-.044.01s-.026.015-.036.027-.018.024-.023.038-.008.03-.007.044v.045l.015.01c0-.04.005-.06.025-.085a.11.11 0 0 1 .036-.029c.014-.007.03-.01.044-.01.1 0 .125.06.24.12.15.08.2.095.335.1a.6.6 0 0 0 .34-.1c.115-.06.15-.125.24-.125.03 0 .05.02.065.05v.045l.01.005c0-.015.01-.02.01-.05V7.58z" stroke-width=".2" class="E"/><path d="M9.22 14.7c.025-.025.045-.015.05-.03 0-.01 0-.01-.015-.015l-.045-.01-.04-.02c-.005 0-.02-.01-.025 0-.005.02.05.02.03.07-.01.022-.023.043-.04.06l-.13.15-.01.005v-.215l.005-.1c.01-.02.04 0 .045-.02 0-.005 0-.01-.015-.015-.01 0-.025 0-.055-.015l-.05-.025c-.01 0-.025-.01-.03 0l.005.015c.02.01.025.02.025.05v.37c0 .025.005.03.01.035.005 0 .01 0 .02-.015l.265-.285z"/><path d="M9.375 14.76c.015-.055.05-.02.05-.04l-.075-.035c-.02 0-.04-.015-.06-.02-.025.025.035.025.02.075l-.085.275c-.015.05-.05.03-.055.05v.005l.06.02.08.025h.015c.01-.02-.06-.015-.035-.085l.085-.27zm.185.05c.01-.03.025-.025.045-.02.05.015.07.065.05.125-.01.03-.02.06-.1.04-.015-.005-.035-.01-.03-.025l.035-.115V14.8zm-.14.25c-.025.07-.06.04-.065.06 0 .01.01.01.015.015l.08.02.04.015h.02c.005-.025-.05-.015-.035-.075l.03-.1c.005-.02.005-.025.03-.015.03.005.035.015.04.04l.015.1c.01.045.015.085.05.1.025 0 .06 0 .07-.02H9.7h-.015s-.015 0-.015-.015l-.035-.18c0-.01.02-.01.04-.015a.1.1 0 0 0 .05-.065c.005-.025.02-.1-.1-.145l-.105-.025-.06-.02h-.015c-.005.025.055.02.035.085l-.075.25h.005zm.42.125c-.02.07-.07.025-.075.05 0 .01.005.015.015.015l.075.015.07.02c.015 0 .025.01.03-.005 0-.015-.065-.015-.05-.1l.065-.26c0-.03.01-.03.03-.025l.05.01c.055.015.025.075.05.08.01 0 .01-.02.01-.03l.005-.05v-.02l-.165-.035-.16-.04-.035.085c-.005.005-.01.02 0 .02.025.005.025-.075.085-.06l.045.01c.02.005.025.01.02.04l-.065.27zm.635-.165c.02-.03.04-.025.045-.035s-.01-.01-.02-.015h-.045l-.045-.015c-.005 0-.02-.005-.02.005-.005.02.05.01.04.065 0 .01-.005.03-.03.065l-.1.165-.015.01v-.01l-.035-.2a.27.27 0 0 1-.005-.09c0-.025.035-.01.035-.025 0-.01 0-.01-.02-.015l-.055-.005c-.02 0-.035-.01-.05-.015-.01 0-.025-.005-.03.005l.005.01c.025.01.03.02.035.045l.065.365c.005.025.01.035.015.035s.01 0 .02-.015l.2-.33zm.03.34c0 .015 0 .015.01.025.03.01.05.03.085.035.07.01.13-.035.14-.1.015-.075-.015-.105-.07-.145-.065-.045-.1-.055-.085-.1.005-.035.035-.05.07-.05.1.015.08.13.1.13.015 0 .015-.005.015-.02l.01-.08v-.02h-.03c-.02 0-.035-.025-.08-.035-.06-.01-.115.035-.125.1s.02.1.06.12c.08.055.1.07.1.12s-.045.07-.085.065c-.06-.01-.08-.07-.1-.13-.02-.015-.02 0-.02.01v.085h.005zm.8-.225c.015-.035.04-.03.04-.045 0-.01-.005-.005-.02-.01h-.045l-.045-.005c-.005 0-.02 0-.02.01 0 .02.05 0 .05.055 0 .01-.005.03-.025.07l-.1.175-.005.015-.005-.015-.055-.2a.27.27 0 0 1-.015-.08c0-.025.035-.015.035-.03 0-.01 0-.01-.02-.01h-.06l-.05-.01c-.01 0-.025-.005-.03.005l.01.01c.02.01.03.015.035.04l.105.355.02.035c.005 0 .01 0 .015-.02l.175-.35v.005z"/><path d="M11.38 15.425c0 .06-.05.05-.05.075l.125.005.02-.005c0-.03-.07.01-.07-.1v-.2l.005-.005.01.005.255.315.015.005v-.015-.335c0-.065.05-.05.05-.065l-.13-.01c-.01.03.055.02.055.075v.2l-.005.02-.02-.015-.2-.265c-.01-.015-.005-.015-.02-.015h-.1l-.01.005c0 .03.06-.01.06.105v.23zm.52-.275c0-.055.04-.035.04-.055 0-.005 0-.01-.02-.01h-.13c-.015.03.04.01.04.07v.285c0 .055-.04.04-.04.06h.15c.015-.03-.045 0-.045-.075l.005-.285zm.225.275c0 .075-.06.05-.06.07 0 .01.01.01.02.01h.15c.015 0 .025 0 .025-.015s-.07 0-.07-.07v-.27c0-.03 0-.03.025-.03h.05c.06-.005.04.06.065.06.01 0 .005-.02.005-.03l-.005-.05c0-.01 0-.02-.01-.02l-.165.005H12l-.01.015-.005.08.005.02c.025 0 .01-.08.07-.08h.045c.02 0 .025 0 .03.03v.275zm.315-.1h-.02l.005-.025.035-.1v-.01l.01.005.05.105.01.02c0 .01-.01.01-.02.01h-.07v.005zm.1.025c.015 0 .015 0 .04.05l.01.04c0 .035-.035.03-.035.05h.08l.065-.005c.015 0 .02 0 .02-.01 0-.02-.03 0-.05-.035l-.17-.35-.015-.02c-.01 0-.01.01-.015.02l-.1.37c-.01.035-.04.035-.035.05h.115c.01-.005.025 0 .025-.015s-.06 0-.065-.045v-.05c.01-.04.02-.04.03-.04l.105-.01h-.005zm.415-.25c-.005-.04 0-.04.06-.05.1-.01.07.065.1.06.01 0 0-.02 0-.03l-.005-.055c-.065-.01-.1 0-.135.005l-.14.02c-.01.035.05.01.055.06l.035.275c.01.075-.035.05-.03.075l.08-.005.06-.005c.015 0 .025 0 .025-.015s-.06.005-.07-.06l-.01-.085c-.005-.035-.005-.045.015-.05h.04c.055-.01.05.055.065.05.015 0 .01-.02.005-.025l-.015-.105c-.025-.015-.015.04-.06.045l-.035.005c-.025.005-.025 0-.03-.025l-.01-.085zm.2.14c.02.115.105.185.2.165.17-.035.175-.18.16-.265-.025-.125-.115-.185-.22-.165-.125.025-.175.135-.15.265zm.055-.05c-.015-.08 0-.17.085-.185.07-.015.15.04.17.17.015.1 0 .18-.1.2-.095.02-.15-.1-.165-.18v-.005zm.415-.205c-.005-.035.01-.04.03-.045.05-.01.1.025.105.08.01.035.015.07-.065.1-.015 0-.035.005-.04-.01l-.025-.115h-.005zm0 .285c.02.07-.025.065-.025.08.005.015.015.01.02.005.03 0 .05-.015.08-.02l.05-.01c.01-.03-.04.005-.055-.06l-.025-.1c0-.02-.01-.02.02-.025.025-.01.035-.005.055.015l.065.08c.025.03.05.065.1.055.025-.005.05-.025.05-.045l-.01-.005-.015.005-.14-.145.025-.03c.01-.02.02-.045.01-.08-.005-.025-.035-.105-.15-.08l-.105.03-.06.01c-.01.035.045 0 .06.06l.06.26zm.435-.1c.015.07-.05.06-.045.08 0 .015.015.01.025.01l.07-.025.075-.015c.015 0 .025 0 .02-.02 0-.015-.065.02-.085-.05l-.065-.265c-.01-.025 0-.03.015-.035l.05-.01c.055-.02.055.05.075.045.015 0 0-.025 0-.035l-.02-.05-.17.035-.16.035v.015l.005.08c0 .01 0 .02.015.02.025-.005-.015-.08.05-.095l.04-.01c.02-.005.03 0 .035.025l.07.265zm.275-.365c-.015-.05.03-.045.02-.065h-.015l-.07.02-.06.015c-.01.03.045 0 .06.05l.08.28c.01.05-.03.05-.025.065l.065-.01.08-.02c.015 0 .015-.005.015-.015-.005-.015-.055.025-.075-.045l-.075-.275zm.115.135c.035.115.13.17.235.135.16-.055.15-.205.12-.285-.04-.12-.14-.165-.24-.135-.12.045-.16.16-.115.285zm.05-.05c-.03-.085-.03-.175.055-.2.065-.025.15.02.195.145.03.1.025.18-.06.2s-.16-.075-.2-.16v.005zm.38-.275c-.01-.035 0-.04.02-.05.05-.015.1.015.12.07.01.03.02.065-.055.095-.015 0-.035.01-.04 0l-.045-.115zm.04.28c.03.07-.02.07-.01.085 0 .015.01.005.02.005l.075-.035.045-.01c0-.035-.04.005-.06-.055l-.04-.095c-.01-.02-.01-.025.015-.035s.035-.005.055.015l.08.07c.025.025.055.055.1.04.015-.01.045-.035.035-.05l-.01-.005-.01.01h-.025l-.14-.125.02-.035a.1.1 0 0 0 0-.08c-.005-.03-.05-.1-.155-.06l-.1.045-.06.02h-.01c.01.02.055-.02.08.04l.1.25-.005-.005z"/></g><path d="M9.206 8.778h2.627v2.624H9.206V8.778z" class="G"/><path d="M10.438 10.842s0 .096-.026.17c-.032.086-.032.086-.06.128a.42.42 0 0 1-.122.128c-.064.038-.128.058-.192.05-.173-.013-.256-.205-.294-.358-.042-.163-.16-.256-.24-.192-.045.032-.045.1-.01.147.034.042.08.073.13.1l-.093.118s-.202-.026-.24-.237c-.016-.08.022-.227.157-.272.17-.058.275.064.33.166.07.14.102.397.3.358.11-.022.16-.18.16-.253l.077-.083.118.038h.003z" fill="#fff"/><path d="M10.755 9.728l.346-.374s.05-.042.05-.11l-.07.013-.016-.038-.003-.035.096-.022V9.12l.01-.042-.102.006.01-.045.016-.032.06-.013h.06c.058-.11.294-.205.46-.032.122.128.096.358-.064.422-.036.016-.075.02-.114.015s-.075-.024-.104-.05l.064-.128c.086.054.16-.01.154-.077-.006-.086-.064-.138-.138-.144s-.128.032-.16.096c-.02.042-.01.07-.016.115s0 .074-.016.122a.28.28 0 0 1-.077.115l-.352.384-1.376 1.485-.102-.096 1.382-1.494z" class="C"/><path d="M9.744 9.856s.086.43.38 1.072c.15-.054.237-.1.397-.1s.243.032.394.1c.164-.343.29-.703.38-1.072l-.774-.992-.78.992h.003z" fill="#fff"/><g class="C"><path d="M10.595 9.197l.538.694s-.07.336-.288.842a1.59 1.59 0 0 0-.25-.042V9.197zm-.15 0l-.538.694a4.89 4.89 0 0 0 .288.842 1.59 1.59 0 0 1 .25-.042V9.197zm1.67-.422h2.63V11.4h-2.63V8.775z"/></g><path d="M12.485 8.775h.4V11.4h-.4V8.775zm.75 0h.4V11.4h-.4V8.775zm.75 0h.395V11.4h-.395V8.775z" class="G"/><path d="M9.215 13.675c.005.05.025.13.07.215.05.075.03.07.135.2.058.06.126.108.2.145.236.102.493.146.75.13.135-.005.24-.02.33-.035.182-.024.366-.034.55-.03.075 0 .15.015.235.03.175.035.35.1.35.1v-2.735h-2.63v1.865l.01.12v.005z" class="C"/><path d="M9.52 14.155l.125.075.17.06v-2.6H9.52v2.475zm1.46.12V11.68h-.3v2.64l.3-.035v-.01zm.585-2.595h-.3v2.605c.095.01.2.03.3.05V11.68zm-1.17 0v2.67s-.2.01-.3 0v-2.67h.3z" stroke="#d52b1e" stroke-width=".3" class="G"/><path d="M14.736 13.677c-.01.074-.035.145-.07.21-.048.074-.032.074-.138.192a.84.84 0 0 1-.416.224 1.66 1.66 0 0 1-.531.051c-.138-.006-.24-.022-.33-.032-.122-.02-.214-.03-.352-.032a1.99 1.99 0 0 0-.198 0c-.2.023-.396.068-.586.134V11.68h2.63v1.872l-.01.122v.003z" class="C"/><path d="M12.787 11.904l-.02.006-.026.026c-.013.013-.022.016-.038.026l-.02.016c-.01.01 0 .02-.01.032-.003.013-.01.02-.02.032s-.022.016-.032.032l-.038.032-.01.003h-.02c-.013.006-.016.02-.026.026l.01.02.026.045c.006.01.006.022.016.026.016.006.03.006.042.003.026.006.042.006.064.016l.048.026c.016.01.026.013.042.016h.058v.01l.064.032c-.006.022-.01.035-.006.038.02.06.038.096.048.102.02.006.026.03.035.048l-.01.01c-.02.02-.038.032-.054.058-.022.038-.038.038-.01.1l.048.077c.013.022.02.038.026.064s.01.038.01.064l.032.01.022-.02.02-.038v-.032c-.006-.003-.01-.013-.006-.022s.016-.01.022-.02c.01-.016-.013-.026-.022-.035-.02-.022-.045-.03-.05-.06 0-.006 0-.013.013-.022l.064-.058c.006.003.02.006.032.003l.042.013c.02.006.03 0 .038 0h.013l.003.02c.003.032-.003.096.006.112l.01.02.006.02v.064l-.006.054c0 .013-.006.022-.016.032s-.02.013-.032.022v.032l.035.016.042.01.022-.01.003-.02.016-.016c.013-.006.026 0 .03-.003.006-.01 0-.013 0-.026 0-.02-.006-.032-.01-.05a.38.38 0 0 1-.003-.09c0-.02 0-.032.006-.048.003-.032.013-.045.02-.07.01-.032.01-.05.013-.08a.78.78 0 0 0 .323-.019c.026.022.054.038.086.05v.032c0 .01 0 .013.006.022l.01.01c.01 0 .016 0 .022-.006s.006-.013.006-.022v-.022h.058v.035c.003.01.01.013.016.013.03-.006.026-.02.03-.032v-.022l.032-.013c.001.01.001.02 0 .03l-.01.03c-.006.02-.016.026-.026.045s-.016.032-.032.048l-.02.022-.02.03-.03.032c-.022.02-.038.006-.064.03l-.01.032.045.02.042.006.013-.006c0-.01 0-.02.01-.026s.013-.01.022-.013.026 0 .032-.006c.013-.01.013-.032.022-.048.023-.047.056-.1.096-.125l.054-.045c.006-.013.016-.016.016-.032l-.006-.02-.006-.032c.048.022.032.022.038.045s0 .032.003.054.016.035.016.06-.003.045-.01.074-.003.042-.016.064c-.008.02-.02.035-.035.048l-.02.016-.003.032.035.013.05.013.013-.01c.006-.022 0-.054.013-.054s.022 0 .026-.01V12.9l.022-.144.013-.06.013-.054c.022-.064-.006-.074-.032-.115-.016-.022-.022-.032-.022-.048v-.182l.013-.006c.038-.022.054-.03.077-.08.007-.015.01-.03.01-.048v-.032l-.013-.032c-.005-.01-.01-.018-.02-.026-.022-.032-.054-.035-.086-.048-.048-.016-.08-.013-.128-.016a.52.52 0 0 0-.141 0c-.064 0-.1.013-.163.022l-.157.013c-.074 0-.14-.016-.186-.013-.077.006-.08.026-.198.035l-.122.006-.07-.022c.03-.01.035-.016.048-.032s.006-.022.02-.035l.022-.032a.07.07 0 0 0-.029-.013h-.032c-.013.001-.026.004-.038.01l-.026.02-.07-.038a.28.28 0 0 0-.096-.029v.006z" class="G"/><g stroke="#fedf00"><path d="M14.202 12.304l-.026.01c-.03.013-.05.013-.083.016-.083.006-.138-.035-.224-.03-.045.003-.064.038-.112.05a.3.3 0 0 1-.054.006l.016-.032s-.038.01-.064.01c-.017 0-.034-.002-.05-.006l.032-.032-.042-.006c-.012-.006-.023-.013-.032-.022l.054-.01c.048-.013.064-.038.125-.045.035 0 .096 0 .243.026.096.016.14.006.176-.01.026-.01.032-.032.035-.058s-.013-.045-.026-.058c-.003 0-.016-.01-.035-.013" class="B"/><path d="M12.794 12.02c-.016 0-.03 0-.042.01s-.02.022-.032.035c.016.003.026.013.038.01s.016-.006.026-.016.013-.022.013-.038h-.003z" fill="#fcd900" class="I"/><path d="M13.014 12.454c.03.006.02.106.06.128m.077-.14c.008.026.02.05.032.074.006.026 0 .038.006.064v.05l-.038-.19zm.256-.035l-.01.042-.032.112v.022l.042-.176z" class="B"/><path d="M13.923 12.634l.013-.01c.032-.013.062-.033.086-.058"/><path d="M13.792 12.435h.026c.048-.01.054.02.086.038.06.032.067.074.138.11l.013.003.026.013m-.403-.022c.112-.03.19-.083.243-.093l-.243.093z" class="B"/><path d="M12.566 12.144h.022l.026-.006c.01 0 .016 0 .022.006.01.016.016.02.013.026s-.01.013-.02.013c-.017-.012-.017-.014-.017-.016-.018-.003-.023-.004-.027-.006-.014-.01-.017-.012-.02-.016z" fill="#fcd900" class="I"/></g><path d="M12.803 12.454l-.064-.03c.013-.006.022-.006.032-.016s.01-.026.016-.042.006-.032.022-.045c.01-.006.026-.006.035-.003s.026.013.03.022c0 .02-.006.032-.01.048s-.01.03-.006.045.006.02.013.032l-.064-.013h-.003zm-.032.032c.003-.014.006-.017.01-.02.015-.003.018-.002.02.001.008.012.008.016.008.02-.008.012-.012.014-.015.015-.018-.006-.02-.008-.02-.01l-.002-.005zm-.054-.53H12.7c-.013-.013-.013-.026-.02-.038s-.008-.025-.01-.038v-.064c0-.01 0-.02-.006-.03.016-.013.022-.01.035 0s.016.02.02.032l.013.048.01.026.016.02-.022.026-.03.02zm.115.34l.07.032c.048-.03.087-.07.112-.122.03-.058.032-.086.045-.14l-.058-.016h-.013c-.016.058-.022.086-.05.134a.36.36 0 0 1-.083.096l-.022.016zm.16.582l.026-.042.045-.035h.013a.28.28 0 0 1-.016.09l-.013.032-.016.016c-.016-.026-.042-.042-.042-.064l.003.003zm1.056.058l.045.02.048.03v.016l-.048.006c-.014.001-.028.001-.042 0h-.032l-.02-.013c.016-.022.026-.05.045-.058h.003zm-.314-.064l.045.016.048.032c-.028.02-.057.024-.086.022l-.032-.003-.022-.01c.02-.022.03-.054.048-.058zm-.557.067l.048.016.048.032v.016c-.03.007-.06.01-.1.006h-.032l-.02-.013c.016-.022.026-.05.045-.058zm-.288-.954c-.02-.01-.032-.032-.02-.05.003-.006.013-.006.02-.013s.003-.016 0-.026l-.003-.032-.006-.032c0-.02 0-.032.013-.05.006-.01.022-.02.026-.02s0 .016 0 .026c0 .016.003.022.01.038l.022.042c.006.02.013.026.013.045s0 .022-.006.038c-.004.01-.01.02-.02.026s-.016.01-.026.013l-.022-.003z" fill="#0065bd"/><path d="M9.205 8.775h2.63V11.4h-2.63V8.775zm2.9 0h2.63V11.4h-2.63V8.775zm-2.9 4.9c.005.05.025.13.07.215.05.075.03.07.135.2.058.06.126.108.2.145.236.102.493.146.75.13.135-.005.24-.02.33-.035a3.56 3.56 0 0 1 .55-.03c.075 0 .15.015.235.03.175.035.35.1.35.1v-2.735h-2.63v1.865l.01.12v.005zm5.52 0a.65.65 0 0 1-.07.215c-.05.075-.03.07-.135.2a.77.77 0 0 1-.2.145c-.065.035-.115.05-.22.08a1.63 1.63 0 0 1-.53.05c-.135-.005-.24-.025-.325-.035l-.36-.03c-.065-.003-.13-.003-.195 0-.075 0-.15.015-.235.03-.175.035-.35.1-.35.1v-2.74h2.635v1.875l-.01.12h-.005z" class="E I"/></g></svg>