<svg width="15" height="13" viewBox="0 0 15 13" fill="none" xmlns="http://www.w3.org/2000/svg">
  <path fill-rule="evenodd" clip-rule="evenodd" d="M9.00016 3C6.4275 3 4.3335 5.09333 4.3335 7.66667C4.3335 10.24 6.4275 12.3333 9.00016 12.3333C11.5728 12.3333 13.6668 10.24 13.6668 7.66667C13.6668 5.09333 11.5728 3 9.00016 3ZM9.00016 11C7.16216 11 5.66683 9.50467 5.66683 7.66667C5.66683 5.82867 7.16216 4.33334 9.00016 4.33334C10.8382 4.33334 12.3335 5.82867 12.3335 7.66667C12.3335 9.50467 10.8382 11 9.00016 11ZM8.3335 5.66667H9.66683V8.33334H8.3335V5.66667ZM7.00016 0.333336H11.0002V1.66667H7.00016V0.333336ZM1.00016 4.33334H3.66683V5.66667H1.00016V4.33334ZM1.00016 9.66667H3.66683V11H1.00016V9.66667ZM0.333496 7H2.9935V8.33333H0.333496V7ZM13.1955 3.47134L11.8622 2.138L12.8048 1.19534L14.1382 2.52867L13.1955 3.47134Z" fill="#2B2D33"/>
</svg>

