<svg width="42" height="26" viewBox="0 0 42 26" fill="none" xmlns="http://www.w3.org/2000/svg">
<g clip-path="url(#clip0)">
<path fill-rule="evenodd" clip-rule="evenodd" d="M0.444336 1.40331C0.444336 0.628283 1.07262 0 1.84764 0H40.1521C40.9272 0 41.5554 0.628281 41.5554 1.4033V23.8562C41.5554 24.6312 40.9272 25.2595 40.1521 25.2595H1.84764C1.07262 25.2595 0.444336 24.6312 0.444336 23.8562V1.40331ZM4.53732 20.2316C4.53732 20.1096 4.63621 20.0107 4.75821 20.0107H37.2416C37.3636 20.0107 37.4625 20.1096 37.4625 20.2316V21.2829C37.4625 21.4049 37.3636 21.5038 37.2416 21.5038H4.75821C4.63621 21.5038 4.53732 21.4049 4.53732 21.2829V20.2316ZM25.7106 17.2179C25.5886 17.2179 25.4897 17.3168 25.4897 17.4388V18.4901C25.4897 18.6121 25.5886 18.711 25.7106 18.711H37.2416C37.3636 18.711 37.4625 18.6121 37.4625 18.4901V17.4388C37.4625 17.3168 37.3636 17.2179 37.2416 17.2179H25.7106Z" fill="white"/>
</g>
<defs>
<clipPath id="clip0">
<rect width="41.1111" height="25.2595" fill="white" transform="translate(0.444336)"/>
</clipPath>
</defs>
</svg>
