<svg width="49" height="36" viewBox="0 0 49 36" fill="none" xmlns="http://www.w3.org/2000/svg">
<g clip-path="url(#clip0)">
<path fill-rule="evenodd" clip-rule="evenodd" d="M45.1716 14.4648L48.3536 17.6468C48.5488 17.842 48.5488 18.1586 48.3536 18.3539L45.1716 21.5359C44.9763 21.7311 44.6597 21.7311 44.4645 21.5359C44.2692 21.3406 44.2692 21.024 44.4645 20.8288L46.7929 18.5003L38 18.5003L38 17.5003L46.7929 17.5003L44.4645 15.1719C44.2692 14.9767 44.2692 14.6601 44.4645 14.4648C44.6597 14.2695 44.9763 14.2695 45.1716 14.4648Z" fill="white"/>
<path fill-rule="evenodd" clip-rule="evenodd" d="M31.9091 5.97701C32.836 6.17068 33.5 6.98782 33.5 7.93472V26.7535C33.5 27.6686 32.8789 28.467 31.9919 28.6921L3.73781 35.861C1.84183 36.3421 0 34.9092 0 32.9532V3.0011C0 1.09743 1.75019 -0.32485 3.61362 0.0645221L31.9091 5.97701ZM10.5 19.9991C8.01472 19.9991 6 17.3128 6 13.9991C6 10.6854 8.01472 7.99906 10.5 7.99906C12.9853 7.99906 15 10.6854 15 13.9991C15 17.3128 12.9853 19.9991 10.5 19.9991ZM2.99997 29.9987C2.99997 28.1757 4 22.9991 7.5 21.9978C9.13341 21.5305 12.9502 21.1511 14.5 21.9982C16.7354 23.2201 17.8897 26.0809 17.5 27.4991L2.99997 29.9987ZM30.7568 13.606C31.191 13.6365 31.5182 14.0131 31.4877 14.4472C31.4573 14.8813 31.0807 15.2086 30.6466 15.1781L22.7861 14.6268C22.3519 14.5963 22.0247 14.2197 22.0551 13.7856C22.0856 13.3514 22.4622 13.0242 22.8963 13.0547L30.7568 13.606ZM31.4676 19.7869C31.4603 19.3518 31.1017 19.0049 30.6666 19.0122L27.675 19.0621C27.2399 19.0693 26.893 19.428 26.9003 19.8631C26.9075 20.2982 27.2662 20.6451 27.7013 20.6378L30.6928 20.5879C31.128 20.5807 31.4748 20.2221 31.4676 19.7869ZM30.6421 16.2587C31.0771 16.2685 31.4219 16.6291 31.4122 17.0642C31.4024 17.4993 31.0418 17.8441 30.6067 17.8343L19.7878 17.5916C19.3527 17.5819 19.0079 17.2213 19.0177 16.7862C19.0274 16.3511 19.3881 16.0063 19.8231 16.0161L30.6421 16.2587Z" fill="white"/>
</g>
<defs>
<clipPath id="clip0">
<rect width="49" height="36" fill="white"/>
</clipPath>
</defs>
</svg>
