<svg width="49" height="36" viewBox="0 0 49 36" fill="none" xmlns="http://www.w3.org/2000/svg">
<g clip-path="url(#clip0)">
<path fill-rule="evenodd" clip-rule="evenodd" d="M3.82843 14.4648L0.646446 17.6468C0.451184 17.842 0.451184 18.1586 0.646446 18.3539L3.82843 21.5359C4.02369 21.7311 4.34027 21.7311 4.53553 21.5359C4.7308 21.3406 4.7308 21.024 4.53553 20.8288L2.20711 18.5003L11 18.5003L11 17.5003L2.20711 17.5003L4.53553 15.1719C4.7308 14.9767 4.7308 14.6601 4.53553 14.4648C4.34027 14.2695 4.02369 14.2695 3.82843 14.4648Z" fill="white"/>
<path fill-rule="evenodd" clip-rule="evenodd" d="M17.0909 5.97701C16.164 6.17068 15.5 6.98782 15.5 7.93472V26.7535C15.5 27.6686 16.1211 28.467 17.0081 28.6921L45.2622 35.861C47.1582 36.3421 49 34.9092 49 32.9532V3.0011C49 1.09743 47.2498 -0.32485 45.3864 0.0645221L17.0909 5.97701ZM21.5 18.9991C22.8807 18.9991 24 16.7605 24 13.9991C24 11.2376 22.8807 8.99906 21.5 8.99906C20.1193 8.99906 19 11.2376 19 13.9991C19 16.7605 20.1193 18.9991 21.5 18.9991ZM22 20.0348C18.8 19.637 18 22.8525 18 24.51L26 26.001C26 24.178 25.2 20.4326 22 20.0348ZM33.4976 10.5793C32.9466 10.618 32.5313 11.0959 32.57 11.6468C32.6086 12.1978 33.0866 12.6131 33.6375 12.5744L43.613 11.8747C44.1639 11.836 44.5792 11.3581 44.5406 10.8072C44.5019 10.2562 44.024 9.84094 43.473 9.87958L33.4976 10.5793ZM32.4833 18.9363C32.4925 18.384 32.9477 17.9439 33.4999 17.9531L43.4985 18.1198C44.0507 18.129 44.4909 18.5841 44.4817 19.1363C44.4725 19.6885 44.0173 20.1287 43.4651 20.1195L33.4665 19.9528C32.9143 19.9436 32.4741 19.4885 32.4833 18.9363ZM29.4998 14.4159C28.9476 14.4283 28.51 14.8859 28.5224 15.4381C28.5348 15.9902 28.9925 16.4278 29.5446 16.4154L43.2745 16.1075C43.8267 16.0951 44.2642 15.6374 44.2518 15.0853C44.2395 14.5331 43.7818 14.0956 43.2297 14.108L29.4998 14.4159Z" fill="white"/>
</g>
<defs>
<clipPath id="clip0">
<rect width="49" height="36" fill="white" transform="matrix(-1 0 0 1 49 0)"/>
</clipPath>
</defs>
</svg>
