<?xml version="1.0" encoding="UTF-8"?>
<svg version="1.1" viewBox="0 0 12 12" xmlns="http://www.w3.org/2000/svg" xmlns:xlink="http://www.w3.org/1999/xlink">
  <title>message-detail</title>
  <desc>Created with Sketch.</desc>
  <defs>
    <path id="a" d="m5.6433 7.5287c0.75533-0.75533 2.0727-0.75533 2.828 0l0.47133 0.47133 0.94267-0.94267-0.47133-0.47133c-0.62867-0.62933-1.466-0.97667-2.3567-0.97667-0.89067 0-1.728 0.34733-2.3567 0.97667l-1.4147 1.414c-1.2988 1.303-1.2988 3.411 0 4.714 0.6246 0.62549 1.4727 0.97626 2.3567 0.97467 0.88419 0.0018349 1.7326-0.34896 2.3573-0.97467l0.47133-0.47133-0.94267-0.94267-0.47133 0.47133c-0.78214 0.77864-2.0465 0.77864-2.8287 0-0.77937-0.78184-0.77937-2.0468 0-2.8287l1.4147-1.414zm5.656 1.8853 1.4147-1.414c1.2988-1.303 1.2988-3.411 0-4.714-1.3027-1.2995-3.4113-1.2995-4.714 0l-0.47133 0.47133 0.94267 0.94267 0.47133-0.47133c0.78214-0.77864 2.0465-0.77864 2.8287 0 0.77937 0.78184 0.77937 2.0468 0 2.8287l-1.4147 1.414c-0.75533 0.75533-2.0727 0.75533-2.828 0l-0.47133-0.47133-0.94267 0.94267 0.47133 0.47133c0.62867 0.62933 1.466 0.97667 2.3567 0.97667 0.89067 0 1.728-0.34733 2.3567-0.97667z"/>
  </defs>
  <g fill="none" fill-rule="evenodd">
    <g transform="translate(-296 -518)">
      <g transform="translate(141 512)">
        <g transform="translate(153)">
          <g transform="translate(0 4)">
            <mask fill="white">
              <use xlink:href="#a"/>
            </mask>
            <use fill="#3640F5" fill-rule="evenodd" xlink:href="#a"/>
          </g>
        </g>
      </g>
    </g>
  </g>
</svg>
