<svg width="16" height="16" viewBox="0 0 16 16" xmlns="http://www.w3.org/2000/svg">
  <title>
    Spinner
  </title>
  <path d="M8 0c.32727985 0 .5925926.26531274.5925926.5925926v2.96296296c0 .32727985-.26531275.5925926-.5925926.5925926-.32727985 0-.5925926-.26531275-.5925926-.5925926V.5925926C7.4074074.26531273 7.67272016 0 8 0zm4 1.07179677c.2834327.16363993.3805439.52606387.2169039.80949654l-1.4814814 2.5660012c-.16364.28343267-.5260639.38054387-.80949657.21690394-.28343267-.16363992-.38054387-.52606387-.21690395-.80949653l1.48148152-2.5660012c.1636399-.28343265.5260638-.38054386.8094965-.21690393zM14.9282032 4c.16364.28343267.0665288.6458566-.2169039.80949654l-2.5660012 1.48148148c-.2834327.16363992-.6458566.06652872-.8094965-.21690395-.16364-.28343266-.0665288-.6458566.2169039-.80949653l2.5660012-1.48148148c.2834327-.16363993.6458566-.06652873.8094965.21690394zM16 8c0 .32727985-.2653127.5925926-.5925926.5925926h-2.962963c-.3272798 0-.5925925-.26531275-.5925925-.5925926 0-.32727985.2653127-.5925926.5925925-.5925926h2.962963C15.7346873 7.4074074 16 7.67272016 16 8zm-1.0717968 4c-.1636399.2834327-.5260638.3805439-.8094965.2169039l-2.5660012-1.4814814c-.2834327-.16364-.3805439-.5260639-.2169039-.80949657.1636399-.28343267.5260638-.38054387.8094965-.21690395l2.5660012 1.48148152c.2834327.1636399.3805439.5260638.2169039.8094965zM12 14.9282032c-.2834327.16364-.6458566.0665288-.8094965-.2169039l-1.48148152-2.5660012c-.16363992-.2834327-.06652872-.6458566.21690395-.8094965.28343267-.16364.64585657-.0665288.80949657.2169039l1.4814814 2.5660012c.16364.2834327.0665288.6458566-.2169039.8094965zM8 16c-.32727985 0-.5925926-.2653127-.5925926-.5925926v-2.962963c0-.3272798.26531275-.5925925.5925926-.5925925.32727985 0 .5925926.2653127.5925926.5925925v2.962963C8.5925926 15.7346873 8.32727984 16 8 16zm-4-1.0717968c-.28343267-.1636399-.38054387-.5260638-.21690394-.8094965l1.48148148-2.5660012c.16363992-.2834327.52606387-.3805439.80949653-.2169039.28343267.1636399.38054387.5260638.21690395.8094965l-1.48148148 2.5660012c-.16363993.2834327-.52606387.3805439-.80949654.2169039zM1.07179677 12c-.16363993-.2834327-.06652872-.6458566.21690394-.8094965l2.5660012-1.48148152c.28343267-.16363992.64585662-.06652872.80949654.21690395.16363993.28343267.06652873.64585657-.21690394.80949657l-2.5660012 1.4814814c-.28343266.16364-.6458566.0665288-.80949653-.2169039zM0 8c0-.32727985.26531274-.5925926.5925926-.5925926h2.96296296c.32727985 0 .5925926.26531275.5925926.5925926 0 .32727985-.26531275.5925926-.5925926.5925926H.5925926C.26531273 8.5925926 0 8.32727984 0 8zm1.07179677-4c.16363993-.28343267.52606387-.38054387.80949654-.21690394l2.5660012 1.48148148c.28343267.16363992.38054387.52606387.21690394.80949653-.16363992.28343267-.52606387.38054387-.80949653.21690395L1.2887007 4.80949654C1.00526806 4.6458566.90815685 4.28343267 1.07179678 4zM4 1.07179677c.28343267-.16363993.6458566-.06652872.80949654.21690394l1.48148148 2.5660012c.16363992.28343267.06652872.64585662-.21690395.80949654-.28343266.16363993-.6458566.06652873-.80949653-.21690394L3.78309606 1.8812933C3.61945613 1.59786065 3.71656733 1.2354367 4 1.07179678z" fill-rule="evenodd"/>
</svg>
