<svg xmlns="http://www.w3.org/2000/svg" xmlns:xlink="http://www.w3.org/1999/xlink" width="144" height="144" xmlns:v="https://vecta.io/nano"><defs><rect id="A" width="96" height="64" rx="8"/><rect id="B" width="48" height="80" rx="8"/><circle id="C" cx="24" cy="69" r="5"/></defs><g fill="none" fill-rule="evenodd"><g transform="translate(46 35)"><use fill="#fff" xlink:href="#A"/><rect stroke="#2c3e4f" stroke-width="4" x="2" y="2" width="92" height="60" rx="8"/><g fill="#2c3e4f"><rect x="24" y="72" width="48" height="4" rx="2"/><path d="M25 54h46a1 1 0 1 1 0 2H25a1 1 0 1 1 0-2z"/><rect x="46" y="60" width="4" height="16" rx="2"/></g></g><g transform="translate(14 53)"><use fill="#fff" xlink:href="#B"/><rect stroke="#2c3e4f" stroke-width="4" x="2" y="2" width="44" height="76" rx="8"/><use fill="#fff" xlink:href="#C"/><circle stroke="#283e4f" stroke-width="2" cx="24" cy="69" r="4"/><rect fill="#2c3e4f" x="15" y="8" width="18" height="2" rx="1"/></g><path d="M51 19c0-1.1.9-2 2.02-2 1.1 0 1.98.9 1.98 2s-.88 2-1.98 2C51.9 21 51 20.1 51 19m8 0c0-1.1.9-2 2-2 1.12 0 2 .9 2 2s-.88 2-2 2c-1.1 0-2-.9-2-2m8 0c0-1.1.88-2 1.98-2 1.12 0 2.02.9 2.02 2s-.9 2-2.02 2c-1.1 0-1.98-.9-1.98-2m8 0c0-1.1.9-2 2-2 1.12 0 2 .9 2 2s-.88 2-2 2c-1.1 0-2-.9-2-2m8 0c0-1.1.9-2 2.02-2 1.1 0 1.98.9 1.98 2s-.88 2-1.98 2C83.9 21 83 20.1 83 19m8 0c0-1.1.9-2 2-2 1.12 0 2 .9 2 2s-.88 2-2 2c-1.1 0-2-.9-2-2m-47.98.142c-.02-.04-.02-.1-.02-.16.02-1.018.82-1.897 1.88-1.977 1.1-.08 2.04.76 2.12 1.858v.16c0 1.038-.8 1.897-1.84 1.977h-.14c-1.06 0-1.94-.8-2-1.858M98.398 23.2C98.14 22.84 98 22.42 98 22c0-.6.28-1.202.8-1.602.88-.66 2.14-.48 2.8.4.28.36.4.78.4 1.2 0 .62-.28 1.222-.8 1.602-.36.28-.78.4-1.2.4-.602 0-1.2-.28-1.602-.8M38.04 24.76c-.66-.36-1.04-1.063-1.04-1.764 0-.32.08-.66.24-.962.54-.962 1.74-1.323 2.72-.782.66.36 1.04 1.042 1.04 1.764 0 .32-.08.64-.24.942h-.02C40.38 24.638 39.7 25 39 25c-.32 0-.66-.08-.96-.24M100 30c0-1.1.9-2 2-2s2 .9 2 2-.9 2-2 2-2-.9-2-2m-64 1c0-1.1.9-2 2-2s2 .9 2 2-.9 2-2 2-2-.9-2-2m0 8c0-1.1.9-2 2-2s2 .9 2 2-.9 2-2 2-2-.9-2-2m0 8c0-1.1.9-2 2-2s2 .9 2 2-.9 2-2 2-2-.9-2-2" fill="#2c3e4f"/><circle fill="#ff5457" cx="68" cy="18" r="12"/><path d="M65.914 18l-3.482 3.48a1.48 1.48 0 0 0 0 2.088c.577.576 1.51.576 2.087 0L68 20.086l3.48 3.482a1.48 1.48 0 0 0 2.088 0c.576-.577.576-1.51 0-2.087L70.086 18l3.482-3.48a1.48 1.48 0 0 0 0-2.088c-.577-.576-1.51-.576-2.087 0L68 15.914l-3.48-3.482a1.48 1.48 0 0 0-2.088 0c-.576.577-.576 1.51 0 2.087L65.914 18z" fill="#fff"/></g></svg>