<svg xmlns="http://www.w3.org/2000/svg" width="144" height="144" fill="none">
  <path d="M125.953 35H55.476a7.05 7.05 0 0 0-7.048 7.048v42.286a7.05 7.05 0 0 0 7.048 7.048h70.477A7.05 7.05 0 0 0 133 84.333V42.048A7.05 7.05 0 0 0 125.953 35z" fill="#fff"/>
  <g fill="#2b2d33">
    <path d="M55.476 38.524a3.524 3.524 0 0 0-3.524 3.524v42.286a3.524 3.524 0 0 0 3.524 3.524h70.477a3.523 3.523 0 0 0 3.523-3.524V42.048a3.523 3.523 0 0 0-3.523-3.524H55.476zm0-3.524h70.477A7.05 7.05 0 0 1 133 42.048v42.286a7.05 7.05 0 0 1-7.047 7.048H55.476a7.05 7.05 0 0 1-7.048-7.048V42.048A7.05 7.05 0 0 1 55.476 35zm54.62 63.429H71.334a1.761 1.761 0 1 0 0 3.523h38.762a1.761 1.761 0 1 0 0-3.523z"/>
    <path fill-rule="evenodd" d="M70.453 82.572h40.524a.88.88 0 1 1 0 1.762H70.453a.88.88 0 1 1 0-1.762z"/>
    <path d="M92.476 89.619a1.76 1.76 0 1 0-3.524 0v10.572a1.76 1.76 0 1 0 3.524 0V89.619z"/>
  </g>
  <g fill="#fff" stroke="#2b2d33">
    <path d="M53.714 52.619H29.048A7.05 7.05 0 0 0 22 59.667v52.857a7.05 7.05 0 0 0 7.048 7.048h24.667a7.05 7.05 0 0 0 7.048-7.048V59.667a7.05 7.05 0 0 0-7.048-7.048z" stroke-width="3.524"/>
    <path d="M41.381 115.167a3.524 3.524 0 1 0 0-7.049 3.524 3.524 0 0 0 0 7.049z" stroke-width="1.762"/>
  </g>
  <g fill="#2b2d33">
    <path d="M48.428 57.905H34.333a.88.88 0 1 0 0 1.762h14.095a.88.88 0 1 0 0-1.762z"/>
    <path fill-rule="evenodd" d="M51 19a2.01 2.01 0 0 1 2.02-2c1.1 0 1.98.9 1.98 2s-.88 2-1.98 2A2.01 2.01 0 0 1 51 19zm8 0c0-1.1.9-2 2-2 1.12 0 2 .9 2 2s-.88 2-2 2c-1.1 0-2-.9-2-2zm8 0c0-1.1.88-2 1.98-2A2.01 2.01 0 0 1 71 19a2.01 2.01 0 0 1-2.02 2c-1.1 0-1.98-.9-1.98-2zm8 0c0-1.1.9-2 2-2 1.12 0 2 .9 2 2s-.88 2-2 2c-1.1 0-2-.9-2-2zm8 0a2.01 2.01 0 0 1 2.02-2c1.1 0 1.98.9 1.98 2s-.88 2-1.98 2A2.01 2.01 0 0 1 83 19zm8 0c0-1.1.9-2 2-2 1.12 0 2 .9 2 2s-.88 2-2 2c-1.1 0-2-.9-2-2zm-47.98.142c-.02-.04-.02-.1-.02-.16a2.033 2.033 0 0 1 1.88-1.977c1.1-.08 2.04.759 2.12 1.858v.16c0 1.039-.8 1.898-1.84 1.977h-.14c-1.06 0-1.94-.799-2-1.858zM98.398 23.2A2.07 2.07 0 0 1 98 21.999c0-.6.28-1.201.8-1.601.88-.66 2.14-.48 2.8.4.28.36.4.78.4 1.201 0 .62-.28 1.221-.8 1.601-.36.28-.78.4-1.2.4a2.03 2.03 0 0 1-1.602-.8zM38.04 24.76a2.023 2.023 0 0 1-.8-2.726 1.999 1.999 0 0 1 2.72-.782 2 2 0 0 1 .8 2.706h-.02A1.948 1.948 0 0 1 39 25c-.32 0-.66-.08-.96-.241zM100 30c0-1.1.9-2 2-2s2 .9 2 2-.9 2-2 2-2-.9-2-2zm-64 1c0-1.1.9-2 2-2s2 .9 2 2-.9 2-2 2-2-.9-2-2zm0 8c0-1.1.9-2 2-2s2 .9 2 2-.9 2-2 2-2-.9-2-2zm0 8c0-1.1.9-2 2-2s2 .9 2 2-.9 2-2 2-2-.9-2-2z"/>
  </g>
  <path d="M68 30c6.627 0 12-5.373 12-12S74.627 6 68 6s-12 5.373-12 12 5.373 12 12 12z" fill="#e61c1c"/>
  <path fill-rule="evenodd" d="M73.568 12.433c.576.576.576 1.51 0 2.086l-3.481 3.482 3.481 3.481a1.475 1.475 0 0 1-2.086 2.086l-3.481-3.481-3.482 3.481a1.475 1.475 0 0 1-2.086-2.086l3.482-3.481-3.482-3.482a1.475 1.475 0 0 1 2.086-2.086l3.482 3.482 3.481-3.482a1.475 1.475 0 0 1 2.086 0z" fill="#fff"/>
</svg>
