<svg width="144" height="144" viewBox="0 0 144 144" xmlns="http://www.w3.org/2000/svg" xmlns:xlink="http://www.w3.org/1999/xlink"><title>connection-large</title><defs><rect id="a" width="96" height="64" rx="8"/><rect id="b" width="48" height="80" rx="8"/><circle id="c" cx="24" cy="69" r="5"/></defs><g fill="none" fill-rule="evenodd"><circle fill="#00C8A0" cx="72" cy="72" r="72"/><g transform="translate(43 32)"><use fill="#FFF" xlink:href="#a"/><rect stroke="#2C3E4F" stroke-width="4" x="2" y="2" width="92" height="60" rx="8"/><rect fill="#2C3E4F" x="24" y="72" width="48" height="4" rx="2"/><path d="M25 54h46c.552 0 1 .448 1 1s-.448 1-1 1H25c-.552 0-1-.448-1-1s.448-1 1-1z" fill="#2C3E4F"/><rect fill="#2C3E4F" x="46" y="60" width="4" height="16" rx="2"/></g><g transform="translate(11 50)"><use fill="#FFF" xlink:href="#b"/><rect stroke="#2C3E4F" stroke-width="4" x="2" y="2" width="44" height="76" rx="8"/><use fill="#FFF" xlink:href="#c"/><circle stroke="#283E4F" stroke-width="2" cx="24" cy="69" r="4"/><rect fill="#2C3E4F" x="15" y="8" width="18" height="2" rx="1"/></g><path d="M48 16c0-1.1.9-2 2.02-2 1.1 0 1.98.9 1.98 2s-.88 2-1.98 2C48.9 18 48 17.1 48 16m8 0c0-1.1.9-2 2-2 1.12 0 2 .9 2 2s-.88 2-2 2c-1.1 0-2-.9-2-2m8 0c0-1.1.88-2 1.98-2 1.12 0 2.02.9 2.02 2s-.9 2-2.02 2c-1.1 0-1.98-.9-1.98-2m8 0c0-1.1.9-2 2-2 1.12 0 2 .9 2 2s-.88 2-2 2c-1.1 0-2-.9-2-2m8 0c0-1.1.9-2 2.02-2 1.1 0 1.98.9 1.98 2s-.88 2-1.98 2C80.9 18 80 17.1 80 16m8 0c0-1.1.9-2 2-2 1.12 0 2 .9 2 2s-.88 2-2 2c-1.1 0-2-.9-2-2m-47.98.142c-.02-.04-.02-.1-.02-.16.02-1.018.82-1.897 1.88-1.977 1.1-.08 2.04.76 2.12 1.858v.16c0 1.038-.8 1.897-1.84 1.977h-.14c-1.06 0-1.94-.8-2-1.858M95.398 20.2C95.14 19.84 95 19.42 95 19c0-.6.28-1.202.8-1.602.88-.66 2.14-.48 2.8.4.28.36.4.78.4 1.2 0 .62-.28 1.222-.8 1.602-.36.28-.78.4-1.2.4-.602 0-1.2-.28-1.602-.8M35.04 21.76c-.66-.36-1.04-1.063-1.04-1.764 0-.32.08-.66.24-.962.54-.962 1.74-1.323 2.72-.782.66.36 1.04 1.042 1.04 1.764 0 .32-.08.64-.24.942h-.02C37.38 21.638 36.7 22 36 22c-.32 0-.66-.08-.96-.24M97 27c0-1.1.9-2 2-2s2 .9 2 2-.9 2-2 2-2-.9-2-2m-64 1c0-1.1.9-2 2-2s2 .9 2 2-.9 2-2 2-2-.9-2-2m0 8c0-1.1.9-2 2-2s2 .9 2 2-.9 2-2 2-2-.9-2-2m0 8c0-1.1.9-2 2-2s2 .9 2 2-.9 2-2 2-2-.9-2-2" fill="#2C3E4F"/></g></svg>
