<?xml version="1.0" encoding="UTF-8" standalone="no"?>
<svg width="90px" height="90px" viewBox="0 0 90 90" version="1.1" xmlns="http://www.w3.org/2000/svg" xmlns:xlink="http://www.w3.org/1999/xlink">
    <!-- Generator: Sketch 3.6.1 (26313) - http://www.bohemiancoding.com/sketch -->
    <title>noun_425859_cc</title>
    <desc>Created with Sketch.</desc>
    <defs></defs>
    <g id="Page-1" stroke="none" stroke-width="1" fill="none" fill-rule="evenodd">
        <g id="noun_425859_cc" fill="#00AB35">
            <path d="M45,0 C20.187,0 0,20.187 0,45 C0,69.813 20.186,90 45,90 C69.813,90 90,69.812 90,45 C90,20.187 69.813,0 45,0 L45,0 Z M45,86.816 C21.943,86.816 3.183,68.057 3.183,45 C3.183,21.943 21.943,3.183 45,3.183 C68.057,3.183 86.816,21.943 86.816,45 C86.816,68.057 68.057,86.816 45,86.816 L45,86.816 Z" id="Shape"></path>
            <path d="M64.325,30.059 C63.641,29.509 62.639,29.617 62.088,30.302 L47.145,48.87 L41.092,56.392 L34.102,50.102 L27.737,44.374 C27.082,43.786 26.076,43.839 25.489,44.493 C24.902,45.147 24.954,46.153 25.608,46.743 L31.973,52.471 L39.494,59.24 C39.956,59.657 40.559,59.888 41.175,59.888 C41.239,59.888 41.305,59.884 41.37,59.879 C42.052,59.824 42.69,59.486 43.12,58.948 L49.622,50.868 L64.567,32.3 C65.118,31.612 65.011,30.611 64.325,30.059 L64.325,30.059 Z" id="Shape"></path>
        </g>
    </g>
</svg>