<?xml version="1.0" encoding="UTF-8" standalone="no"?>
<svg width="60px" height="78px" viewBox="0 0 60 78" version="1.1" xmlns="http://www.w3.org/2000/svg" xmlns:xlink="http://www.w3.org/1999/xlink">
    <!-- Generator: Sketch 3.6.1 (26313) - http://www.bohemiancoding.com/sketch -->
    <title>Group 2</title>
    <desc>Created with Sketch.</desc>
    <defs></defs>
    <g id="Page-1" stroke="none" stroke-width="1" fill="none" fill-rule="evenodd">
        <g id="noun_155800_cc" fill="#4A88C2">
            <g id="Group">
                <g id="Group-2">
                    <path d="M2.3,77.5 L50.4,77.5 C55.3,77.5 59.3,73.5 59.3,68.6 L59.3,9.4 C59.3,4.5 55.3,0.5 50.4,0.5 L2.3,0.5 C1.5,0.5 0.8,1.2 0.8,2 L0.8,76 C0.8,76.8 1.4,77.5 2.3,77.5 L2.3,77.5 Z M3.8,3.5 L50.4,3.5 C53.7,3.5 56.3,6.1 56.3,9.4 L56.3,68.6 C56.3,71.9 53.7,74.5 50.4,74.5 L3.8,74.5 L3.8,3.5 L3.8,3.5 Z" id="Shape"></path>
                    <path d="M44.9,25.7 L44.9,25.7 L44.9,25.7 C44.5,25.3 44.3,25 44,24.7 C40.2,21 35.2,19 30,19 C24.7,19 19.7,21 16,24.8 L15.3,25.5 L15.2,25.7 L15.2,25.7 L15.2,25.7 L15.2,25.7 L15.2,25.7 C11.8,29.3 10,34.1 10,39 C10,44.2 12,49.1 15.6,52.9 L15.6,52.9 L15.7,53 C19.5,56.9 24.6,59 29.9,59 C35.3,59 40.4,56.9 44.1,53.1 C44.2,53.1 44.2,53 44.2,52.9 L44.2,52.9 C48,49.1 50,44.2 50,39 C50,34.1 48.2,29.3 44.9,25.7 L44.9,25.7 Z M43,50 C42.9,50 42.9,49.9 42.8,49.9 C42.6,49.8 42.4,49.7 42.2,49.6 C41.9,49.5 41.6,49.3 41.3,49.2 C41.1,49.1 40.9,49 40.7,48.9 C40.4,48.8 40.1,48.7 39.8,48.5 C39.6,48.4 39.3,48.3 39.1,48.3 C38.8,48.2 38.5,48.1 38.1,48 C37.9,47.9 37.6,47.9 37.4,47.8 C37.2,47.8 37,47.7 36.8,47.7 C37.2,45.4 37.4,43 37.5,40.5 L47,40.5 C46.6,44 45.3,47.3 43,50 L43,50 Z M18.6,49.2 C18.3,49.3 18,49.5 17.7,49.6 C17.5,49.7 17.3,49.8 17.1,49.9 C17,49.9 17,50 16.9,50 C14.6,47.3 13.3,44 13,40.5 L22.5,40.5 C22.6,43 22.8,45.4 23.2,47.7 C23,47.7 22.8,47.8 22.6,47.8 C22.4,47.9 22.1,47.9 21.9,48 C21.6,48.1 21.2,48.2 20.9,48.3 C20.7,48.4 20.4,48.4 20.2,48.5 C19.9,48.6 19.6,48.7 19.3,48.9 C19.1,49 18.9,49.1 18.6,49.2 L18.6,49.2 Z M16.6,28.6 C16.6,28.6 16.7,28.7 16.8,28.7 C17,28.8 17.2,28.9 17.3,29 C17.6,29.2 17.9,29.3 18.2,29.5 C18.4,29.6 18.6,29.7 18.8,29.8 C19.1,29.9 19.4,30.1 19.8,30.2 C20,30.3 20.3,30.4 20.5,30.4 C20.8,30.5 21.2,30.6 21.5,30.7 C21.7,30.8 22,30.8 22.2,30.9 C22.5,31 22.7,31 23,31.1 C22.7,33.1 22.5,35.3 22.5,37.5 L13.1,37.5 C13.4,34.3 14.6,31.2 16.6,28.6 L16.6,28.6 Z M40.5,26.8 C40.4,26.8 40.3,26.9 40.2,26.9 C39.8,27.1 39.3,27.3 38.8,27.4 C38.7,27.4 38.5,27.5 38.4,27.5 C38,27.6 37.7,27.7 37.3,27.8 C37.2,28 37,28 36.8,28.1 C36.7,28.1 36.5,28.2 36.4,28.2 C35.9,26.1 35.3,24.2 34.5,22.7 C37,23.4 39.4,24.7 41.4,26.4 C41.1,26.5 40.8,26.6 40.5,26.8 L40.5,26.8 Z M33.8,47.2 C33.4,47.2 33,47.1 32.5,47.1 C32.3,47.1 32.1,47.1 31.9,47 L30,47 C29.4,47 28.7,47 28.1,47.1 C27.9,47.1 27.7,47.1 27.5,47.2 C27.1,47.2 26.7,47.3 26.2,47.3 L26.1,47.3 C25.8,45.4 25.6,43.1 25.5,40.6 L34.5,40.6 C34.4,43 34.2,45.3 33.8,47.2 L33.8,47.2 L33.8,47.2 Z M25.5,37.5 C25.6,35.3 25.7,33.4 26,31.6 L26,31.6 C26.4,31.7 26.9,31.7 27.3,31.7 C27.5,31.7 27.7,31.7 27.9,31.8 C28.6,31.8 29.2,31.9 29.9,31.9 C30.6,31.9 31.2,31.9 31.9,31.8 C32.1,31.8 32.3,31.8 32.6,31.7 C33,31.7 33.5,31.6 33.9,31.6 L33.9,31.6 C34.2,33.3 34.3,35.3 34.4,37.5 L25.5,37.5 L25.5,37.5 Z M33.5,28.7 C33.1,28.7 32.7,28.8 32.4,28.8 L31.8,28.8 C31.2,28.8 30.6,28.9 30,28.9 C29.4,28.9 28.8,28.9 28.2,28.8 L27.6,28.8 C27.2,28.8 26.8,28.7 26.5,28.7 C27.5,24.3 29,22 30,22 C31,22 32.4,24.3 33.5,28.7 L33.5,28.7 Z M23.6,28.1 C23.5,28.1 23.3,28 23.2,28 C23,28 22.8,27.9 22.6,27.9 C22.2,27.8 21.9,27.7 21.5,27.6 C21.4,27.6 21.2,27.5 21.1,27.5 C20.6,27.3 20.2,27.1 19.7,26.9 C19.6,26.9 19.5,26.8 19.4,26.8 C19.1,26.7 18.8,26.5 18.5,26.4 C20.5,24.6 22.8,23.3 25.4,22.7 C24.7,24.1 24.1,26 23.6,28.1 L23.6,28.1 Z M19.8,51.9 C19.9,51.8 20.1,51.8 20.2,51.7 C20.6,51.5 21,51.4 21.4,51.3 C21.4,51.3 21.5,51.3 21.5,51.2 C22,51 22.4,50.9 22.9,50.8 C23,50.8 23.2,50.7 23.4,50.7 C23.5,50.7 23.6,50.7 23.7,50.6 C24.2,52.4 24.7,54 25.4,55.4 C23.1,54.8 21,53.7 19.1,52.2 C19.5,52.1 19.6,52 19.8,51.9 L19.8,51.9 Z M26.7,50.1 C27.1,50.1 27.4,50 27.8,50 L28.3,50 L30,50 L31.7,50 L32.2,50 C32.6,50 32.9,50.1 33.3,50.1 C32.3,54 30.9,56 30,56 C29.1,56 27.7,54 26.7,50.1 L26.7,50.1 Z M36.2,50.6 C36.3,50.6 36.4,50.6 36.5,50.7 C36.6,50.7 36.8,50.8 37,50.8 C37.5,50.9 38,51.1 38.4,51.2 C38.5,51.2 38.5,51.2 38.6,51.3 C39,51.4 39.4,51.6 39.8,51.7 C39.9,51.8 40.1,51.8 40.2,51.9 C40.4,52 40.6,52.1 40.8,52.2 C38.9,53.7 36.8,54.8 34.5,55.4 C35.2,54.1 35.7,52.5 36.2,50.6 L36.2,50.6 Z M37.5,37.5 C37.4,35.3 37.3,33.1 37,31.1 C37.3,31 37.5,31 37.8,30.9 C38.1,30.8 38.3,30.8 38.6,30.7 C38.9,30.6 39.3,30.5 39.6,30.4 C39.8,30.3 40.1,30.2 40.3,30.1 C40.6,30 40.9,29.9 41.2,29.7 C41.4,29.6 41.6,29.5 41.9,29.4 C42.2,29.3 42.5,29.1 42.8,28.9 C43,28.8 43.2,28.7 43.4,28.6 L43.5,28.5 C45.5,31.1 46.7,34.2 47,37.4 L37.5,37.4 L37.5,37.5 Z" id="Shape"></path>
                </g>
            </g>
        </g>
    </g>
</svg>