<?xml version="1.0" encoding="UTF-8" standalone="no"?>
<svg width="90px" height="58px" viewBox="0 0 90 58" version="1.1" xmlns="http://www.w3.org/2000/svg" xmlns:xlink="http://www.w3.org/1999/xlink">
    <!-- Generator: Sketch 3.6.1 (26313) - http://www.bohemiancoding.com/sketch -->
    <title>noun_166645_cc</title>
    <desc>Created with Sketch.</desc>
    <defs></defs>
    <g id="Page-1" stroke="none" stroke-width="1" fill="none" fill-rule="evenodd">
        <g id="noun_166645_cc" fill="#4A88C2">
            <g id="Group">
                <path d="M81.3,57.5 L8.7,57.5 C3.9,57.5 0,53.6 0,48.8 L0,9.3 C0,4.5 3.9,0.6 8.7,0.6 L81.2,0.6 C86,0.6 89.9,4.5 89.9,9.3 L89.9,48.8 C90,53.6 86.1,57.5 81.3,57.5 L81.3,57.5 Z M8.7,4 C5.8,4 3.5,6.4 3.5,9.2 L3.5,48.7 C3.5,51.6 5.9,53.9 8.7,53.9 L81.2,53.9 C84.1,53.9 86.4,51.5 86.4,48.7 L86.4,9.3 C86.4,6.4 84,4.1 81.2,4.1 L8.7,4.1 L8.7,4 Z" id="Shape"></path>
                <g transform="translate(28.000000, 13.000000)" id="Shape">
                    <path d="M17,33 C7.9,33 0.6,25.6 0.6,16.6 C0.6,7.6 7.9,0.1 17,0.1 C26.1,0.1 33.4,7.5 33.4,16.5 C33.4,25.5 26.1,33 17,33 L17,33 Z M17,3.6 C9.9,3.6 4.1,9.4 4.1,16.5 C4.1,23.6 9.9,29.5 17,29.5 C24.1,29.5 29.9,23.7 29.9,16.6 C29.9,9.5 24.1,3.6 17,3.6 L17,3.6 Z"></path>
                    <path d="M25.6,18.3 C24.6,18.3 23.9,17.5 23.9,16.6 C23.9,12.8 20.8,9.8 17.1,9.8 C16.1,9.8 15.4,9 15.4,8.1 C15.4,7.1 16.2,6.4 17.1,6.4 C22.8,6.4 27.4,11 27.4,16.7 C27.3,17.5 26.5,18.3 25.6,18.3 L25.6,18.3 Z"></path>
                </g>
                <path d="M12,48 C11,48 10,47.2 10,46.3 L10,11.7 C10,10.7 11,10 12,10 C13,10 14,10.8 14,11.7 L14,46.3 C14,47.3 13,48 12,48 L12,48 Z" id="Shape"></path>
                <path d="M75.9,21.3 L67.5,21.3 C65.4,21.3 63.7,19.6 63.7,17.5 L63.7,13.8 C63.7,11.7 65.4,10 67.5,10 L75.9,10 C78,10 79.7,11.7 79.7,13.8 L79.7,17.5 C79.8,19.6 78.1,21.3 75.9,21.3 L75.9,21.3 Z M67.5,13.4 C67.3,13.4 67.2,13.6 67.2,13.7 L67.2,17.4 C67.2,17.6 67.4,17.7 67.5,17.7 L75.9,17.7 C76.1,17.7 76.2,17.5 76.2,17.4 L76.2,13.7 C76.2,13.5 76,13.4 75.9,13.4 L67.5,13.4 L67.5,13.4 Z" id="Shape"></path>
            </g>
        </g>
    </g>
</svg>