<?xml version="1.0" encoding="UTF-8" standalone="no"?>
<svg width="63px" height="89px" viewBox="0 0 63 89" version="1.1" xmlns="http://www.w3.org/2000/svg" xmlns:xlink="http://www.w3.org/1999/xlink">
    <!-- Generator: sketchtool 3.8.3 (29802) - http://www.bohemiancoding.com/sketch -->
    <title>F77EEE2B-8A2B-4921-A637-F630BD911287</title>
    <desc>Created with sketchtool.</desc>
    <defs>
        <rect id="path-1" x="0" y="0" width="140" height="140" rx="5"></rect>
    </defs>
    <g id="Page-1" stroke="none" stroke-width="1" fill="none" fill-rule="evenodd">
        <g id="02" transform="translate(-690.000000, -541.000000)">
            <g id="Group-5" transform="translate(651.000000, 515.000000)">
                <g id="Group" transform="translate(39.000000, 26.000000)">
                    <path d="M37.322,37.1444826 L32.699,37.1444826 L32.699,43.3274826 L38.493,43.3274826 C38.417,41.1514826 38.012,39.0754826 37.322,37.1444826 L37.322,37.1444826 Z" id="Shape" fill="#DADADA"></path>
                    <path d="M32.699,30.0954826 L32.699,35.6144826 L36.706,35.6144826 C35.709,33.4394826 34.331,31.5544826 32.699,30.0954826 L32.699,30.0954826 Z" id="Shape" fill="#DADADA"></path>
                    <path d="M38.494,44.8534826 L32.699,44.8534826 L32.699,51.0384826 L37.323,51.0384826 C38.012,49.1074826 38.417,47.0314826 38.494,44.8534826 L38.494,44.8534826 Z" id="Shape" fill="#DADADA"></path>
                    <path d="M31.183,58.0874826 L31.183,52.5684826 L27.176,52.5684826 C28.173,54.7434826 29.549,56.6284826 31.183,58.0874826 L31.183,58.0874826 Z" id="Shape" fill="#DADADA"></path>
                    <path d="M36.706,52.5674826 L32.699,52.5674826 L32.699,58.0864826 C34.333,56.6284826 35.709,54.7434826 36.706,52.5674826 L36.706,52.5674826 Z" id="Shape" fill="#DADADA"></path>
                    <path d="M43.112,35.6154826 C41.259,33.1724826 38.46,31.1984826 35.186,30.4614826 C36.454,31.9304826 37.554,33.7034826 38.354,35.6154826 L43.112,35.6154826 L43.112,35.6154826 Z" id="Shape" fill="#DADADA"></path>
                    <path d="M35.187,57.7224826 C38.46,56.9844826 41.26,55.0114826 43.113,52.5684826 L38.356,52.5684826 C37.555,54.4804826 36.454,56.2534826 35.187,57.7224826 L35.187,57.7224826 Z" id="Shape" fill="#DADADA"></path>
                    <path d="M40.009,44.8534826 C39.938,47.0284826 39.561,49.1084826 38.928,51.0314826 L44.116,51.0364826 C45.168,49.1964826 45.815,47.0944826 45.936,44.8534826 L40.009,44.8534826 L40.009,44.8534826 L40.009,44.8534826 Z" id="Shape" fill="#DADADA"></path>
                    <path d="M26.56,51.0384826 L31.184,51.0384826 L31.184,44.8534826 L25.39,44.8534826 C25.465,47.0314826 25.87,49.1074826 26.56,51.0384826 L26.56,51.0384826 Z" id="Shape" fill="#DADADA"></path>
                    <path d="M40.009,43.3294826 L45.936,43.3294826 C45.816,41.0864826 45.169,38.9864826 44.116,37.1444826 L38.928,37.1504826 C39.559,39.0744826 39.937,41.1534826 40.009,43.3294826 L40.009,43.3294826 Z" id="Shape" fill="#DADADA"></path>
                    <path d="M23.873,44.8534826 L17.946,44.8534826 L17.946,44.8534826 C18.066,47.0944826 18.713,49.1964826 19.766,51.0384826 L24.954,51.0334826 C24.321,49.1084826 23.945,47.0274826 23.873,44.8534826 L23.873,44.8534826 Z" id="Shape" fill="#DADADA"></path>
                    <path d="M24.953,37.1494826 L19.765,37.1434826 C18.713,38.9854826 18.066,41.0864826 17.945,43.3284826 L23.872,43.3284826 C23.945,41.1534826 24.321,39.0744826 24.953,37.1494826 L24.953,37.1494826 Z" id="Shape" fill="#DADADA"></path>
                    <path d="M26.56,37.1444826 C25.872,39.0744826 25.465,41.1514826 25.389,43.3274826 L31.183,43.3274826 L31.183,37.1444826 L26.56,37.1444826 L26.56,37.1444826 Z" id="Shape" fill="#DADADA"></path>
                    <path d="M28.695,57.7224826 C27.428,56.2534826 26.327,54.4804826 25.527,52.5684826 L20.77,52.5684826 C22.623,55.0114826 25.424,56.9844826 28.695,57.7224826 L28.695,57.7224826 Z" id="Shape" fill="#DADADA"></path>
                    <path d="M28.695,30.4604826 C25.422,31.1984826 22.623,33.1714826 20.769,35.6144826 L25.526,35.6144826 C26.327,33.7024826 27.428,31.9284826 28.695,30.4604826 L28.695,30.4604826 Z" id="Shape" fill="#DADADA"></path>
                    <path d="M31.183,35.6154826 L31.183,30.0964826 C29.551,31.5564826 28.173,33.4414826 27.176,35.6154826 L31.183,35.6154826 L31.183,35.6154826 Z" id="Shape" fill="#DADADA"></path>
                    <path d="M59.117,0.0914825785 L4.765,0.0914825785 C2.62,0.0914825785 0.882,1.82948258 0.882,3.97348258 L0.882,84.2084826 C0.882,86.3534826 2.62,88.0914826 4.765,88.0914826 L59.118,88.0914826 C61.262,88.0914826 63,86.3534826 63,84.2094826 L63,3.97348258 C63,1.82948258 61.262,0.0914825785 59.117,0.0914825785 L59.117,0.0914825785 Z M31.941,28.5624826 C40.517,28.5624826 47.47,35.5154826 47.47,44.0914826 C47.47,52.6674826 40.517,59.6204826 31.941,59.6204826 C23.365,59.6204826 16.412,52.6674826 16.412,44.0914826 C16.412,35.5154826 23.365,28.5624826 31.941,28.5624826 L31.941,28.5624826 Z" id="Shape" fill="#DADADA"></path>
                </g>
            </g>
        </g>
    </g>
</svg>
