<?xml version="1.0" encoding="UTF-8" standalone="no"?>
<svg width="80px" height="74px" viewBox="0 0 80 74" version="1.1" xmlns="http://www.w3.org/2000/svg" xmlns:xlink="http://www.w3.org/1999/xlink">
    <!-- Generator: Sketch 3.6.1 (26313) - http://www.bohemiancoding.com/sketch -->
    <title>noun_148000_cc</title>
    <desc>Created with Sketch.</desc>
    <defs></defs>
    <g id="Page-1" stroke="none" stroke-width="1" fill="none" fill-rule="evenodd">
        <g id="noun_148000_cc" fill="#4A88C2">
            <path d="M79.523,39.069 C79.523,44.071 77.649,48.89 74.248,52.638 C70.822,56.413 66.222,58.683 61.294,59.031 C61.248,59.034 61.202,59.036 61.156,59.036 L49.014,59.036 C47.933,59.036 47.057,58.16 47.057,57.079 C47.057,55.998 47.933,55.122 49.014,55.122 L61.084,55.122 C69.1,54.519 75.609,47.333 75.609,39.069 C75.609,31.28 70.026,24.451 62.623,23.185 C61.752,23.036 61.089,22.322 61.005,21.442 C60.078,11.723 51.998,4.394 42.211,4.394 C34.93,4.394 28.223,8.645 25.127,15.223 C24.694,16.143 23.628,16.578 22.676,16.224 C21.769,15.888 20.801,15.717 19.798,15.717 C15.138,15.717 11.348,19.508 11.348,24.167 C11.348,25.182 11.519,26.157 11.855,27.063 C12.185,27.954 11.827,28.954 11.006,29.434 C6.926,31.814 4.392,36.221 4.392,40.937 C4.392,48.227 10.143,54.709 16.961,55.121 L30.976,55.121 C32.057,55.121 32.933,55.997 32.933,57.078 C32.933,58.159 32.057,59.035 30.976,59.035 L16.903,59.035 C16.867,59.035 16.83,59.034 16.794,59.032 C12.411,58.788 8.287,56.714 5.181,53.194 C2.147,49.756 0.477,45.403 0.477,40.938 C0.477,35.355 3.222,30.106 7.731,26.895 C7.533,26.012 7.433,25.1 7.433,24.168 C7.433,17.351 12.979,11.804 19.796,11.804 C20.666,11.804 21.522,11.893 22.354,12.069 C26.362,4.978 33.982,0.481 42.21,0.481 C47.918,0.481 53.379,2.6 57.588,6.446 C61.408,9.937 63.906,14.576 64.716,19.632 C73.252,21.803 79.523,29.904 79.523,39.069 L79.523,39.069 Z M50.321,42.847 C50.703,43.229 51.204,43.42 51.705,43.42 C52.206,43.42 52.707,43.229 53.088,42.847 C53.852,42.083 53.852,40.844 53.088,40.08 L41.384,28.375 C40.62,27.611 39.381,27.611 38.617,28.375 L26.912,40.079 C26.148,40.843 26.148,42.082 26.912,42.846 C27.294,43.228 27.795,43.419 28.296,43.419 C28.797,43.419 29.298,43.228 29.679,42.846 L38.044,34.481 L38.044,71.562 C38.044,72.643 38.92,73.519 40.001,73.519 C41.082,73.519 41.958,72.643 41.958,71.562 L41.958,34.482 L50.321,42.847 L50.321,42.847 Z" id="Shape"></path>
        </g>
    </g>
</svg>