<svg width="326" height="205" viewBox="0 0 326 205" fill="none" xmlns="http://www.w3.org/2000/svg">
  <rect opacity="0.8" x="245.507" y="93.7908" width="59.0288" height="12.0588" rx="2" fill="#F7F9FA" />
  <rect opacity="0.8" x="142.206" y="71.0131" width="162.329" height="12.0588" rx="2" fill="#F7F9FA" />
  <rect opacity="0.8" x="183.795" y="48.2353" width="120.741" height="12.0588" rx="2" fill="#F7F9FA" />
  <g opacity="0.8">
    <path fill-rule="evenodd" clip-rule="evenodd" d="M21.4648 52.2353C21.4648 50.0262 23.2557 48.2353 25.4648 48.2353H103.325C105.534 48.2353 107.325 50.0262 107.325 52.2353V155.425C107.325 138.405 89.4855 124.608 72.4443 124.608H56.3455C39.3042 124.608 21.4648 138.405 21.4648 155.425V52.2353ZM88.543 89.7712C88.543 106.051 75.329 119.248 64.3949 119.248C53.4608 119.248 40.2467 106.051 40.2467 89.7712C40.2467 73.4915 48.0945 60.2941 64.3949 60.2941C80.6952 60.2941 88.543 73.4915 88.543 89.7712Z" fill="#F7F9FA" />
  </g>
</svg>
