<svg xmlns="http://www.w3.org/2000/svg" width="740" height="1000"><path fill-opacity=".66" d="M0 1000V0h740v1000H0zm237-514.056c0 71.601 59.106 175.672 132.021 175.672 72.915 0 132.022-101.453 132.022-175.672 0-83.917-59.107-151.944-132.022-151.944C296.108 334 237 402.027 237 485.944z"/><path fill="none" stroke="#FFF" stroke-width="2" d="M237 485.944c0 71.601 59.106 175.672 132.021 175.672 72.915 0 132.022-101.453 132.022-175.672 0-83.917-59.107-151.944-132.022-151.944C296.108 334 237 402.027 237 485.944z"/></svg>