<svg width="328" height="160" viewBox="0 0 328 160" fill="none" xmlns="http://www.w3.org/2000/svg">
  <g opacity="0.8">
    <path fill-rule="evenodd" clip-rule="evenodd" d="M44.8135 89C44.8135 86.7909 46.6043 85 48.8135 85H90.3949C92.604 85 94.3949 86.7909 94.3949 89V150C94.3949 139.679 84.0932 131.312 74.2524 131.312H64.9559C55.1151 131.312 44.8135 139.679 44.8135 150V89ZM83.5489 110.188C83.5489 120.06 75.9183 128.062 69.6042 128.062C63.2901 128.062 55.6594 120.06 55.6594 110.188C55.6594 100.315 60.1913 92.3125 69.6042 92.3125C79.0171 92.3125 83.5489 100.315 83.5489 110.188Z" fill="white" />
  </g>
  <line x1="108.651" y1="160" x2="108.651" y2="-4.37114e-08" stroke="white" stroke-width="2" stroke-dasharray="8 8" />
  <line x1="218.303" y1="160" x2="218.303" y2="-4.37114e-08" stroke="white" stroke-width="2" stroke-dasharray="8 8" />
</svg>
