<svg width="328" height="240" viewBox="0 0 328 240" fill="none" xmlns="http://www.w3.org/2000/svg">
  <line x1="163" y1="240" x2="163" y2="4.17957e-08" stroke="white" stroke-width="2" stroke-dasharray="8 8" />
  <g opacity="0.8">
    <path fill-rule="evenodd" clip-rule="evenodd" d="M201.187 40.3345C201.187 38.1253 202.977 36.3345 205.187 36.3345H283C285.21 36.3345 287 38.1253 287 40.3345V143.426C287 126.422 269.171 112.637 252.139 112.637H236.048C219.016 112.637 201.187 126.422 201.187 143.426V40.3345ZM268.229 77.8325C268.229 94.0974 255.022 107.283 244.093 107.283C233.165 107.283 219.958 94.0974 219.958 77.8325C219.958 61.5676 227.802 48.3823 244.093 48.3823C260.385 48.3823 268.229 61.5676 268.229 77.8325Z" fill="white" />
  </g>
</svg>
