<svg width="326" height="230" viewBox="0 0 326 230" fill="none" xmlns="http://www.w3.org/2000/svg">
  <mask id="a" maskUnits="userSpaceOnUse" x="0" y="0" width="326" height="230">
    <path d="M0 2a2 2 0 012-2h322a2 2 0 012 2v219.305a8 8 0 01-8 8H8a8 8 0 01-8-8V2z" fill="#A2A8B3" />
  </mask>
  <g mask="url(#a)">
    <path opacity=".8" fill-rule="evenodd" clip-rule="evenodd" d="M0 178.655h326v50.65H0v-50.65zm24.78 30.39l-2.831 2.83 2.827 2.356-.664.797-3.263-2.719a.521.521 0 01-.035-.765l3.232-3.232.733.733zm5.73 0l-.734-.733-3.232 3.232a.518.518 0 00.035.765l3.263 2.719.664-.797-2.827-2.356 2.83-2.83zm91.68 0l-2.83 2.83 2.827 2.356-.664.797-3.263-2.719a.522.522 0 01-.035-.765l3.232-3.232.733.733zm97.411 0l-.733-.733-3.231 3.232a.517.517 0 00.034.765l3.264 2.719.663-.797-2.827-2.356 2.83-2.83zm-143.251 0l-2.83 2.83 2.827 2.356-.664.797-3.264-2.719a.521.521 0 01-.034-.765l3.231-3.232.734.733zm91.681 0l-.733-.733-3.232 3.232a.516.516 0 00.035.765l3.263 2.719.664-.797-2.827-2.356 2.83-2.83zm97.411 0l-2.83 2.83 2.827 2.356-.664.797-3.263-2.719a.519.519 0 01-.035-.765l3.232-3.232.733.733zm-212.013 0l-.733-.733-3.231 3.232a.518.518 0 00.034.765l3.264 2.719.663-.797-2.827-2.356 2.83-2.83zm91.682 0l-2.831 2.83 2.828 2.356-.664.797-3.264-2.719a.52.52 0 01-.034-.765l3.231-3.232.734.733zm97.411 0l-.734-.733-3.231 3.232a.52.52 0 00.034.765l3.264 2.719.664-.797-2.827-2.356 2.83-2.83zm-143.252 0l-2.83 2.83 2.827 2.356-.664.797-3.263-2.719a.521.521 0 01-.035-.765l3.232-3.232.733.733zm91.681 0l-.733-.733-3.232 3.232a.516.516 0 00.035.765l3.263 2.719.664-.797-2.827-2.356 2.83-2.83zm97.411 0l-2.83 2.83 2.827 2.356-.664.797-3.263-2.719a.522.522 0 01-.035-.765l3.232-3.232.733.733zm-246.393 0l-.733-.733-3.232 3.232a.518.518 0 00.035.765l3.263 2.719.664-.797-2.827-2.356 2.83-2.83zm91.681 0l-2.83 2.83 2.827 2.356-.663.797-3.264-2.719a.522.522 0 01-.035-.765l3.232-3.232.733.733zm97.412 0l-.734-.733-3.231 3.232a.52.52 0 00.034.765l3.264 2.719.664-.797-2.828-2.356 2.831-2.83zm-143.252 0l-2.83 2.83 2.827 2.356-.664.797-3.263-2.719a.521.521 0 01-.035-.765l3.232-3.232.733.733zm91.681 0l-.733-.733-3.232 3.232a.516.516 0 00.035.765l3.263 2.719.664-.797-2.827-2.356 2.83-2.83zm97.411 0l-2.83 2.83 2.827 2.356-.664.797-3.263-2.719a.519.519 0 01-.035-.765l3.232-3.232.733.733zm-212.012 0l-.734-.733-3.231 3.232a.518.518 0 00.034.765l3.264 2.719.664-.797-2.828-2.356 2.83-2.83zm91.681 0l-2.831 2.83 2.828 2.356-.664.797-3.264-2.719a.52.52 0 01-.034-.765l3.231-3.232.734.733zm97.411 0l-.733-.733-3.232 3.232a.516.516 0 00.035.765l3.263 2.719.664-.797-2.827-2.356 2.83-2.83zm-143.252 0l-2.83 2.83 2.827 2.356-.664.797-3.263-2.719a.519.519 0 01-.035-.765l3.232-3.232.733.733zm91.681 0l-.733-.733-3.232 3.232a.516.516 0 00.035.765l3.263 2.719.664-.797-2.827-2.356 2.83-2.83zm97.411 0l-2.83 2.83 2.827 2.356-.663.797-3.264-2.719a.522.522 0 01-.035-.765l3.232-3.232.733.733zm-263.583 0l-.733-.733-3.232 3.232a.518.518 0 00.035.765l3.263 2.719.664-.797-2.827-2.356 2.83-2.83zm91.681 0l-2.83 2.83 2.827 2.356-.664.797-3.263-2.719a.522.522 0 01-.035-.765l3.232-3.232.733.733zm97.412 0l-.734-.733-3.231 3.232a.52.52 0 00.034.765l3.264 2.719.664-.797-2.828-2.356 2.831-2.83zm-143.252 0l-2.83 2.83 2.827 2.356-.664.797-3.263-2.719a.521.521 0 01-.035-.765l3.232-3.232.733.733zm91.681 0l-.733-.733-3.232 3.232a.516.516 0 00.035.765l3.263 2.719.664-.797-2.827-2.356 2.83-2.83zm97.411 0l-2.83 2.83 2.827 2.356-.664.797-3.263-2.719a.519.519 0 01-.035-.765l3.232-3.232.733.733zm-212.013 0l-.733-.733-3.232 3.232a.518.518 0 00.035.765l3.264 2.719.663-.797-2.827-2.356 2.83-2.83zm91.682 0l-2.831 2.83 2.828 2.356-.664.797-3.264-2.719a.52.52 0 01-.034-.765l3.231-3.232.734.733zm97.411 0l-.733-.733-3.232 3.232a.52.52 0 00.035.765l3.263 2.719.664-.797-2.827-2.356 2.83-2.83zm-143.252 0l-2.83 2.83 2.827 2.356-.664.797-3.263-2.719a.519.519 0 01-.035-.765l3.232-3.232.733.733zm91.681 0l-.733-.733-3.232 3.232a.516.516 0 00.035.765l3.263 2.719.664-.797-2.827-2.356 2.83-2.83zm97.411 0l-2.83 2.83 2.827 2.356-.663.797-3.264-2.719a.522.522 0 01-.035-.765l3.232-3.232.733.733zm-246.393 0l-.733-.733-3.232 3.232a.518.518 0 00.035.765l3.264 2.719.663-.797-2.827-2.356 2.83-2.83zm91.682 0l-2.831 2.83 2.828 2.356-.664.797-3.264-2.719a.52.52 0 01-.034-.765l3.231-3.232.734.733zm97.411 0l-.734-.733-3.231 3.232a.52.52 0 00.034.765l3.264 2.719.664-.797-2.827-2.356 2.83-2.83zm-143.252 0l-2.83 2.83 2.827 2.356-.664.797-3.263-2.719a.521.521 0 01-.035-.765l3.232-3.232.733.733zm91.681 0l-.733-.733-3.232 3.232a.516.516 0 00.035.765l3.263 2.719.664-.797-2.827-2.356 2.83-2.83zm97.411 0l-2.83 2.83 2.827 2.356-.664.797-3.263-2.719a.522.522 0 01-.035-.765l3.232-3.232.733.733zm-212.012 0l-.734-.733-3.231 3.232a.518.518 0 00.034.765l3.264 2.719.664-.797-2.828-2.356 2.83-2.83zm91.681 0l-2.83 2.83 2.827 2.356-.664.797-3.264-2.719a.52.52 0 01-.034-.765l3.231-3.232.734.733zm97.411 0l-.733-.733-3.232 3.232a.516.516 0 00.035.765l3.263 2.719.664-.797-2.827-2.356 2.83-2.83zm-143.252 0l-2.83 2.83 2.827 2.356-.664.797-3.263-2.719a.522.522 0 01-.035-.765l3.232-3.232.733.733zm97.411 0l-.733-.733-3.232 3.232a.516.516 0 00.035.765l3.263 2.719.664-.797-2.827-2.356 2.83-2.83zm-5.73 0l-2.83 2.83 2.827 2.356-.664.797-3.263-2.719a.522.522 0 01-.035-.765l3.232-3.232.733.733zm97.412 0l-.734-.733-3.231 3.232a.52.52 0 00.034.765l3.264 2.719.664-.797-2.828-2.356 2.831-2.83zM24.779 192.469l-2.83 2.83 2.827 2.356-.664.797-3.263-2.72a.518.518 0 01-.035-.765l3.232-3.231.733.733zm5.73 0l-.733-.733-3.232 3.231a.519.519 0 00.035.765l3.263 2.72.664-.797-2.827-2.356 2.83-2.83zm91.681 0l-2.83 2.83 2.827 2.356-.664.797-3.263-2.72a.519.519 0 01-.035-.765l3.232-3.231.733.733zm97.411 0l-.733-.733-3.231 3.231a.518.518 0 00.034.765l3.264 2.72.663-.797-2.827-2.356 2.83-2.83zm-143.251 0l-2.83 2.83 2.827 2.356-.664.797-3.264-2.72a.518.518 0 01-.034-.765l3.231-3.231.734.733zm91.681 0l-.733-.733-3.232 3.231a.517.517 0 00.035.765l3.263 2.72.664-.797-2.827-2.356 2.83-2.83zm97.411 0l-2.83 2.83 2.827 2.356-.664.797-3.263-2.72a.517.517 0 01-.035-.765l3.232-3.231.733.733zm-212.013 0l-.733-.733-3.231 3.231a.52.52 0 00.034.765l3.264 2.72.663-.797-2.827-2.356 2.83-2.83zm91.682 0l-2.831 2.83 2.828 2.356-.664.797-3.264-2.72a.519.519 0 01-.034-.765l3.231-3.231.734.733zm97.411 0l-.734-.733-3.231 3.231a.522.522 0 00-.152.39.522.522 0 00.186.375l3.264 2.72.664-.797-2.827-2.356 2.83-2.83zm-143.252 0l-2.83 2.83 2.827 2.356-.664.797-3.263-2.72a.518.518 0 01-.035-.765l3.232-3.231.733.733zm91.681 0l-.733-.733-3.232 3.231a.517.517 0 00.035.765l3.263 2.72.664-.797-2.827-2.356 2.83-2.83zm97.411 0l-2.83 2.83 2.827 2.356-.664.797-3.263-2.72a.519.519 0 01-.035-.765l3.232-3.231.733.733zm-246.393 0l-.733-.733-3.232 3.231a.52.52 0 00.035.765l3.263 2.72.664-.797-2.827-2.356 2.83-2.83zm91.681 0l-2.83 2.83 2.827 2.356-.663.797-3.264-2.72a.519.519 0 01-.035-.765l3.232-3.231.733.733zm97.412 0l-.734-.733-3.231 3.231a.519.519 0 00.034.765l3.264 2.72.664-.797-2.828-2.356 2.831-2.83zm-143.252 0l-2.83 2.83 2.827 2.356-.664.797-3.263-2.72a.518.518 0 01-.035-.765l3.232-3.231.733.733zm91.681 0l-.733-.733-3.232 3.231a.517.517 0 00.035.765l3.263 2.72.664-.797-2.827-2.356 2.83-2.83zm97.411 0l-2.83 2.83 2.827 2.356-.664.797-3.263-2.72a.517.517 0 01-.035-.765l3.232-3.231.733.733zm-212.012 0l-.734-.733-3.231 3.231a.519.519 0 00.034.765l3.264 2.72.664-.797-2.828-2.356 2.83-2.83zm91.681 0l-2.831 2.83 2.828 2.356-.664.797-3.264-2.72a.519.519 0 01-.034-.765l3.231-3.231.734.733zm97.411 0l-.733-.733-3.232 3.231a.517.517 0 00.035.765l3.263 2.72.664-.797-2.827-2.356 2.83-2.83zm-143.252 0l-2.83 2.83 2.827 2.356-.664.797-3.263-2.72a.517.517 0 01-.035-.765l3.232-3.231.733.733zm91.681 0l-.733-.733-3.232 3.231a.517.517 0 00.035.765l3.263 2.72.664-.797-2.827-2.356 2.83-2.83zm97.411 0l-2.83 2.83 2.827 2.356-.663.797-3.264-2.72a.519.519 0 01-.035-.765l3.232-3.231.733.733zm-263.583 0l-.733-.733-3.232 3.231a.519.519 0 00.035.765l3.263 2.72.664-.797-2.827-2.356 2.83-2.83zm91.681 0l-2.83 2.83 2.827 2.356-.664.797-3.263-2.72a.519.519 0 01-.035-.765l3.232-3.231.733.733zm97.412 0l-.734-.733-3.231 3.231a.519.519 0 00.034.765l3.264 2.72.664-.797-2.828-2.356 2.831-2.83zm-143.252 0l-2.83 2.83 2.827 2.356-.664.797-3.263-2.72a.518.518 0 01-.035-.765l3.232-3.231.733.733zm91.681 0l-.733-.733-3.232 3.231a.517.517 0 00.035.765l3.263 2.72.664-.797-2.827-2.356 2.83-2.83zm97.411 0l-2.83 2.83 2.827 2.356-.664.797-3.263-2.72a.517.517 0 01-.035-.765l3.232-3.231.733.733zm-212.013 0l-.733-.733-3.232 3.231a.519.519 0 00.035.765l3.264 2.72.663-.797-2.827-2.356 2.83-2.83zm91.682 0l-2.831 2.83 2.828 2.356-.664.797-3.264-2.72a.519.519 0 01-.034-.765l3.231-3.231.734.733zm97.411 0l-.733-.733-3.232 3.231a.52.52 0 00.035.765l3.263 2.72.664-.797-2.827-2.356 2.83-2.83zm-143.252 0l-2.83 2.83 2.827 2.356-.664.797-3.263-2.72a.517.517 0 01-.035-.765l3.232-3.231.733.733zm91.681 0l-.733-.733-3.232 3.231a.517.517 0 00.035.765l3.263 2.72.664-.797-2.827-2.356 2.83-2.83zm97.411 0l-2.83 2.83 2.827 2.356-.663.797-3.264-2.72a.519.519 0 01-.035-.765l3.232-3.231.733.733zm-246.393 0l-.733-.733-3.232 3.231a.519.519 0 00.035.765l3.264 2.72.663-.797-2.827-2.356 2.83-2.83zm91.682 0l-2.831 2.83 2.828 2.356-.664.797-3.264-2.72a.519.519 0 01-.034-.765l3.231-3.231.734.733zm97.411 0l-.734-.733-3.231 3.231a.519.519 0 00.034.765l3.264 2.72.664-.797-2.827-2.356 2.83-2.83zm-143.252 0l-2.83 2.83 2.827 2.356-.664.797-3.263-2.72a.518.518 0 01-.035-.765l3.232-3.231.733.733zm91.681 0l-.733-.733-3.232 3.231a.517.517 0 00.035.765l3.263 2.72.664-.797-2.827-2.356 2.83-2.83zm97.411 0l-2.83 2.83 2.827 2.356-.664.797-3.263-2.72a.519.519 0 01-.035-.765l3.232-3.231.733.733zm-212.012 0l-.734-.733-3.231 3.231a.519.519 0 00.034.765l3.264 2.72.664-.797-2.828-2.356 2.83-2.83zm91.681 0l-2.83 2.83 2.827 2.356-.664.797-3.264-2.72a.522.522 0 01-.186-.375.522.522 0 01.152-.39l3.231-3.231.734.733zm97.411 0l-.733-.733-3.232 3.231a.517.517 0 00.035.765l3.263 2.72.664-.797-2.827-2.356 2.83-2.83zm-143.252 0l-2.83 2.83 2.827 2.356-.664.797-3.263-2.72a.519.519 0 01-.035-.765l3.232-3.231.733.733zm97.411 0l-.733-.733-3.232 3.231a.517.517 0 00.035.765l3.263 2.72.664-.797-2.827-2.356 2.83-2.83zm-5.73 0l-2.83 2.83 2.827 2.356-.664.797-3.263-2.72a.519.519 0 01-.035-.765l3.232-3.231.733.733zm97.412 0l-.734-.733-3.231 3.231a.519.519 0 00.034.765l3.264 2.72.664-.797-2.828-2.356 2.831-2.83z" fill="#fff" />
  </g>
  <path fill-rule="evenodd" clip-rule="evenodd" d="M22.102 40.836a4 4 0 014-4h82.248a4 4 0 014 4v108.35c0-17.839-18.75-32.3-36.663-32.3H58.765c-17.912 0-36.663 14.461-36.663 32.3V40.836zm70.506 39.536c0 17.064-13.889 30.896-25.382 30.896-11.493 0-25.382-13.832-25.382-30.896s8.248-30.896 25.382-30.896c17.133 0 25.382 13.832 25.382 30.896z" fill="#fff" opacity=".8" />
</svg>
