<svg width="144" height="144" viewBox="0 0 144 144" xmlns="http://www.w3.org/2000/svg" xmlns:xlink="http://www.w3.org/1999/xlink">
  <title>
    return-to-computer-large
  </title>
  <defs>
    <rect id="a" width="48" height="80" rx="8"/>
    <circle id="b" cx="24" cy="69" r="5"/>
    <rect id="c" width="96" height="64" rx="8"/>
  </defs>
  <g fill="none" fill-rule="evenodd">
    <circle fill="#00C8A0" cx="72" cy="72" r="72"/>
    <g transform="translate(10 10)">
      <use fill="#FFF" xlink:href="#a"/>
      <rect stroke="#2C3E4F" stroke-width="4" x="2" y="2" width="44" height="76" rx="8"/>
      <use fill="#FFF" xlink:href="#b"/>
      <circle stroke="#283E4F" stroke-width="2" cx="24" cy="69" r="4"/>
      <rect fill="#2C3E4F" x="15" y="8" width="18" height="2" rx="1"/>
    </g>
    <g transform="translate(22 37)">
      <circle fill="#00C8A0" cx="12" cy="12" r="12"/>
      <path d="M16.1670887 7.5171121L10.299503 13.743607l-1.46659167-1.5566237c-.64816117-.6852529-1.69903565-.6852529-2.34679045 0-.64816117.6894828-.64816117 1.8061911 0 2.4914439l2.64019006 2.8044607c.64816117.6894828 1.69862926.6894828 2.34679046 0l7.0407777-7.4743319c.6481612-.68948274.6481612-1.80619107 0-2.4914439-.6481612-.6894828-1.6986293-.6894828-2.3467904 0z" fill="#FFF"/>
    </g>
    <g transform="translate(42 48)">
      <use fill="#FFF" xlink:href="#c"/>
      <rect stroke="#2C3E4F" stroke-width="4" x="2" y="2" width="92" height="60" rx="8"/>
      <rect fill="#2C3E4F" x="24" y="72" width="48" height="4" rx="2"/>
      <path d="M25 54h46c.5522847 0 1 .4477153 1 1s-.4477153 1-1 1H25c-.5522847 0-1-.4477153-1-1s.4477153-1 1-1z" fill="#2C3E4F"/>
      <rect fill="#2C3E4F" x="46" y="60" width="4" height="16" rx="2"/>
    </g>
    <g stroke="#2C3E4F" stroke-width="3" stroke-linecap="round" stroke-linejoin="round">
      <path d="M75.12451127 59.37311873c2.36366195-9.3790174-3.2625653-19.12392887-12.56686363-21.7664463-4.65318504-1.3215529-9.34402693-.6173294-13.16709608 1.5899206"/>
      <path d="M79.28706152 59.3536116l-5.19615243 3-3-5.19615244"/>
    </g>
  </g>
</svg>
