<svg xmlns="http://www.w3.org/2000/svg" width="99" height="16" viewBox="0 0 99 16">
  <path d="M66.658 11.219c1.658 0 3.054-1.198 3.054-3.026 0-1.827-1.396-2.988-3.054-2.988-1.646 0-3.03 1.16-3.03 2.988s1.384 3.026 3.03 3.026zm15.993-5.89h-2.678v-.532c0-.728.187-1.383 1.035-1.383h.636V2.192h-.636c-1.596 0-2.331 1.025-2.331 2.605v.531h-1.06v1.05h1.06v4.717h1.296V6.378h2.678v4.717h1.272V5.328h-1.272zm-15.96 4.7c-.96 0-1.757-.703-1.757-1.79 0-1.062.798-1.741 1.758-1.741.972 0 1.77.68 1.77 1.741 0 1.087-.798 1.79-1.77 1.79zm5.699-1.99c0-1.136.735-1.544 1.496-1.544.748 0 1.221.519 1.221 1.433v3.21h1.285V7.78c0-1.63-.81-2.532-2.22-2.532-.648 0-1.446.321-1.782.988v-.864h-1.285v5.767h1.285v-3.1zm10.037-5.236c0 .457.399.802.86.802.474 0 .848-.345.848-.802 0-.457-.374-.803-.848-.803-.461 0-.86.346-.86.803zm7.795 8.292h1.272V2.192h-1.272v3.964c-.361-.63-1.147-.951-1.97-.951-1.57 0-2.904 1.16-2.904 3.013 0 1.815 1.334 3 2.904 3 .798 0 1.609-.345 1.97-.962v.84zm-.025-2.902c0 1.124-.835 1.79-1.783 1.79-.972 0-1.745-.728-1.745-1.79s.773-1.753 1.745-1.753c.873 0 1.783.617 1.783 1.753zm8.8 0c0-1.827-1.397-2.988-3.055-2.988-1.646 0-3.03 1.16-3.03 2.988s1.384 3.026 3.03 3.026c1.658 0 3.054-1.198 3.054-3.026zM56.688 5.32a4.375 4.375 0 0 0-3.291-1.482c-2.412 0-4.368 1.937-4.368 4.327 0 2.389 1.956 4.326 4.368 4.326 2.412 0 4.367-1.937 4.367-4.326 0-.077-.002-.112-.002-.112a.309.309 0 0 1 .08-.201l1.394-1.38c.047-.047.1-.033.118.03a6.07 6.07 0 0 1 .239 1.686c0 3.376-2.764 6.113-6.172 6.113-3.409 0-6.172-2.737-6.172-6.113 0-3.376 2.763-6.113 6.172-6.113 1.798 0 3.417.762 4.545 1.979l1.559-1.544a.327.327 0 0 1 .201-.082h1.9c.262 0 .324.149.138.333l-8.21 8.131a.238.238 0 0 1-.335.001l-2.325-2.185a.322.322 0 0 1-.084-.201V6.625c0-.26.15-.322.335-.138l2.157 2.019a.12.12 0 0 0 .167 0L56.69 5.32zm39.253 4.665c-.96 0-1.758-.704-1.758-1.79 0-1.063.798-1.742 1.758-1.742.972 0 1.77.68 1.77 1.741 0 1.087-.798 1.79-1.77 1.79zm-91.867-4.2c0 .65-.222 1.15-.666 1.5-.444.351-1.079.526-1.905.526H.747v2.527H0V3.913h1.666c1.605 0 2.408.624 2.408 1.872zM.747 7.17h.672c.663 0 1.142-.106 1.437-.32.296-.214.444-.557.444-1.029 0-.424-.139-.74-.417-.949-.279-.208-.712-.312-1.301-.312H.747v2.61zm8.404.756c0 .785-.198 1.398-.593 1.84-.396.44-.942.66-1.64.66-.43 0-.813-.1-1.147-.302a2.001 2.001 0 0 1-.773-.87c-.182-.378-.272-.82-.272-1.328 0-.785.196-1.396.588-1.834.393-.438.938-.657 1.635-.657.674 0 1.21.224 1.606.672.397.448.596 1.055.596 1.82zm-3.67 0c0 .616.123 1.084.37 1.407.246.322.607.483 1.085.483s.84-.16 1.088-.481c.247-.321.371-.79.371-1.409 0-.612-.124-1.077-.371-1.395-.248-.318-.613-.477-1.097-.477-.477 0-.838.157-1.08.47-.244.314-.366.781-.366 1.402zm8.387 2.413l-.884-2.826c-.055-.173-.16-.565-.312-1.178h-.035c-.117.513-.22.909-.308 1.187l-.91 2.817h-.843L9.262 5.52h.765l.71 2.765c.162.632.255 1.059.279 1.278h.035c.032-.167.084-.383.156-.648.071-.265.134-.475.186-.63l.884-2.765h.79l.862 2.765c.164.504.275.927.334 1.27h.035c.012-.106.043-.268.095-.488.051-.22.356-1.402.916-3.547h.756l-1.332 4.817h-.865zm4.787.088c-.712 0-1.274-.217-1.686-.65-.411-.434-.617-1.036-.617-1.807 0-.776.191-1.393.573-1.85.383-.457.896-.685 1.54-.685.604 0 1.082.198 1.433.595.352.397.528.92.528 1.571v.462h-3.318c.014.565.157.994.428 1.287.271.293.653.44 1.145.44a3.88 3.88 0 0 0 1.538-.326v.65a3.86 3.86 0 0 1-.732.24c-.23.049-.507.073-.832.073zm-.198-4.382c-.387 0-.695.126-.925.378-.23.252-.366.6-.407 1.046h2.518c0-.46-.102-.812-.307-1.057-.205-.244-.498-.367-.88-.367zm5.095-.61c.213 0 .405.017.575.052l-.1.677a2.485 2.485 0 0 0-.528-.066c-.39 0-.723.158-1 .475-.277.316-.415.71-.415 1.182v2.584h-.73V5.52h.602l.084.893h.035c.179-.314.394-.556.646-.726.252-.17.529-.254.83-.254zm3.016 4.992c-.712 0-1.274-.217-1.686-.65-.411-.434-.617-1.036-.617-1.807 0-.776.191-1.393.573-1.85.383-.457.896-.685 1.54-.685.604 0 1.082.198 1.433.595.352.397.528.92.528 1.571v.462H25.02c.014.565.157.994.428 1.287.271.293.653.44 1.145.44a3.88 3.88 0 0 0 1.538-.326v.65a3.86 3.86 0 0 1-.732.24c-.23.049-.507.073-.832.073zm-.198-4.382c-.387 0-.695.126-.925.378-.23.252-.366.6-.407 1.046h2.518c0-.46-.102-.812-.307-1.057-.205-.244-.498-.367-.88-.367zm6.176 3.648h-.04c-.337.49-.84.734-1.512.734-.63 0-1.12-.216-1.47-.646-.35-.43-.525-1.043-.525-1.837s.176-1.41.528-1.85c.351-.44.84-.66 1.467-.66.654 0 1.155.238 1.503.713h.057l-.03-.348-.018-.338V3.5h.73v6.838h-.594l-.096-.646zm-1.46.123c.499 0 .86-.136 1.084-.407.224-.27.336-.708.336-1.311v-.154c0-.683-.114-1.17-.34-1.461-.228-.292-.59-.438-1.088-.438-.428 0-.755.167-.982.5-.227.332-.341.801-.341 1.408 0 .615.113 1.08.338 1.393.226.313.557.47.994.47zm7.645-4.373c.633 0 1.125.216 1.475.649.35.432.525 1.043.525 1.834 0 .791-.177 1.406-.53 1.844-.353.438-.843.657-1.47.657-.313 0-.6-.058-.859-.174a1.616 1.616 0 0 1-.652-.534h-.053l-.154.62h-.523V3.5h.73v1.661c0 .372-.012.706-.035 1.002h.035c.34-.48.843-.72 1.511-.72zm-.105.611c-.498 0-.857.143-1.077.429-.22.285-.33.767-.33 1.443 0 .677.114 1.161.34 1.453.225.291.587.437 1.085.437.448 0 .782-.163 1.002-.49.22-.327.33-.796.33-1.408 0-.627-.11-1.095-.33-1.402-.22-.308-.56-.462-1.02-.462zm2.12-.532h.782l1.054 2.747c.232.627.375 1.08.431 1.358h.035c.038-.15.118-.405.24-.767.121-.362.52-1.474 1.193-3.338h.782l-2.07 5.485c-.205.542-.444.926-.718 1.153-.274.227-.61.341-1.009.341-.222 0-.442-.025-.659-.075v-.584c.161.035.341.053.54.053.502 0 .859-.282 1.073-.844l.268-.686-1.942-4.843z" fill="#8B9094" fill-rule="evenodd"/>
</svg>
