<svg xmlns="http://www.w3.org/2000/svg" width="140" height="32">
  <g fill="#FFF" fill-rule="evenodd">
    <path d="M98.8 11.58c-1.19 0-2.08.48-2.6 1.4V11.8h-1.36v8.14h1.36V15.7c0-.86.21-1.55.63-2.06.43-.5 1-.76 1.75-.76.62 0 1.12.2 1.48.6.36.41.54 1.04.54 1.86v4.58h1.37V15.1c0-1.16-.28-2.06-.83-2.64a3.17 3.17 0 0 0-2.34-.87zM126.21 11.58a4.28 4.28 0 0 0-4.25 4.29c0 2.36 1.91 4.3 4.25 4.3a4.28 4.28 0 0 0 4.25-4.3c0-2.36-1.9-4.3-4.25-4.3zm2.87 4.29c0 1.65-1.29 3-2.87 3a2.93 2.93 0 0 1-2.86-3c0-1.65 1.29-3 2.86-3a2.93 2.93 0 0 1 2.87 3zM89.29 11.58a4.28 4.28 0 0 0-4.25 4.29c0 2.36 1.9 4.3 4.25 4.3a4.28 4.28 0 0 0 4.25-4.3c0-2.36-1.9-4.3-4.25-4.3zm2.86 4.29c0 1.65-1.28 3-2.86 3a2.93 2.93 0 0 1-2.86-3c0-1.65 1.29-3 2.86-3a2.93 2.93 0 0 1 2.86 3zM119.37 12.94a4 4 0 0 0-2.98-1.36 4.2 4.2 0 0 0-4.1 4.29 4.2 4.2 0 0 0 4.1 4.3 4 4 0 0 0 2.98-1.37v1.14h1.37V8.5h-1.37v4.44zm-.04 2.93c0 1.65-1.28 3-2.86 3a2.93 2.93 0 0 1-2.86-3c0-1.65 1.29-3 2.86-3a2.93 2.93 0 0 1 2.86 3zM110.26 8.12a1 1 0 0 0-.74.3c-.2.2-.3.45-.3.75 0 .28.1.53.3.74.2.2.45.3.74.3a1 1 0 0 0 .73-.3c.2-.2.3-.45.3-.74 0-.3-.1-.54-.3-.75-.2-.2-.45-.3-.73-.3zM109.58 11.8h1.36v8.14h-1.36zM105.7 11.8v-1.6c0-.4.31-.73.71-.73h1.6V8.22h-1.75c-1.06 0-1.93.87-1.93 1.95v1.64h-1.5v1.27h1.5v6.86h1.37v-6.86h2.3V11.8h-2.3z"/>
    <g transform="translate(65.48 8.18)">
      <ellipse cx="7.64" cy="7.69" rx="2.72" ry="2.7" transform="rotate(-80.22 7.64 7.69)"/>
      <path d="M4.14 13.02l-.45.3a.2.2 0 0 0-.03.3c.4.44.83.86 1.29 1.26a2 2 0 0 0 1.73.43 15.5 15.5 0 0 0 4.45-1.77l.44-.27c.08-.06.08-.18 0-.24a7.13 7.13 0 0 0-7.43 0z"/>
      <ellipse cx="7.64" cy="7.69" rx="2.72" ry="2.7" transform="rotate(-80.22 7.64 7.69)"/>
      <path d="M11.15 2.34l.45-.3a.2.2 0 0 0 .03-.3c-.4-.43-.83-.85-1.3-1.25A2 2 0 0 0 8.6.06a15.5 15.5 0 0 0-4.45 1.77l-.43.27c-.08.06-.08.18 0 .23a7.13 7.13 0 0 0 7.43.01zM2.35 4.15c-.09-.16-.2-.31-.3-.46a.2.2 0 0 0-.3-.03c-.42.4-.84.84-1.23 1.3-.4.49-.57 1.14-.43 1.75a15.9 15.9 0 0 0 1.75 4.5l.27.44c.06.08.18.08.23 0a7.3 7.3 0 0 0 .01-7.5zM12.93 11.22c.09.16.2.31.3.46.06.1.2.12.3.03.42-.4.84-.84 1.23-1.3.4-.49.57-1.14.43-1.76a15.9 15.9 0 0 0-1.75-4.49l-.27-.44a.13.13 0 0 0-.23 0 7.33 7.33 0 0 0-.01 7.5zM4.14 13.02l-.45.3a.2.2 0 0 0-.03.3c.4.44.83.86 1.29 1.26a2 2 0 0 0 1.73.43 15.5 15.5 0 0 0 4.45-1.77l.44-.27c.08-.06.08-.18 0-.24a7.13 7.13 0 0 0-7.43 0z"/>
    </g>
    <path d="M11.56 12.14c1.45 0 2.4.74 2.4 2.11 0 1.36-.95 2.14-2.4 2.14h-1.52V19H8.82v-6.86h2.74zm0 3.23c.76 0 1.16-.47 1.16-1.11 0-.63-.4-1.1-1.16-1.1h-1.52v2.21h1.52zm5.33-1.32c1.5 0 2.49 1 2.49 2.49 0 1.47-.99 2.51-2.49 2.51-1.49 0-2.49-.99-2.49-2.46 0-1.48 1-2.54 2.49-2.54zm0 1.01c-.76 0-1.25.61-1.25 1.5 0 .88.49 1.48 1.25 1.48.77 0 1.25-.6 1.25-1.48 0-.89-.48-1.5-1.25-1.5zm9.05-.96h1.29L25.81 19h-1.4l-.78-2.85a5.44 5.44 0 0 1-.09-.47h-.03l-.08.47-.78 2.85h-1.4l-1.43-4.9h1.29l.75 3.13c.05.24.11.44.13.59h.03c.02-.15.08-.35.14-.59l.8-3.13h1.13l.81 3.13.14.59h.03c.02-.15.06-.33.13-.59l.74-3.13zm6.44 2.48v.25h-3.51c.09.8.56 1.25 1.26 1.25.73 0 1-.38 1.08-.68h1.15c-.17.86-.85 1.65-2.28 1.65-1.5 0-2.41-1.04-2.41-2.49 0-1.48 1.02-2.51 2.42-2.51 1.45 0 2.29 1 2.29 2.53zm-2.28-1.59c-.61 0-1.08.37-1.21 1.09h2.33c-.1-.75-.51-1.09-1.12-1.09zm5.77-.94c.12 0 .24.02.3.03l-.01 1.2a.8.8 0 0 0-.34-.05c-.6 0-1.11.41-1.19 1.15V19h-1.22v-4.9h1.17l.02.79c.24-.49.64-.84 1.27-.84zm5.43 2.53v.25h-3.51c.09.8.56 1.25 1.26 1.25.73 0 1-.38 1.08-.68h1.15c-.17.86-.85 1.65-2.28 1.65-1.5 0-2.41-1.04-2.41-2.49 0-1.48 1.02-2.51 2.42-2.51 1.45 0 2.29 1 2.29 2.53zm-2.28-1.59c-.61 0-1.08.37-1.21 1.09h2.33c-.1-.75-.51-1.09-1.12-1.09zm6.76-3.09H47V19h-1.18l-.03-.74a1.8 1.8 0 0 1-1.57.79c-1.27 0-2.16-.92-2.16-2.44 0-1.5.87-2.56 2.23-2.56.74 0 1.22.3 1.49.74V11.9zm-1.29 6.12c.86 0 1.29-.72 1.29-1.32v-.29c0-.63-.44-1.33-1.28-1.33-.72 0-1.21.6-1.21 1.5 0 .88.47 1.44 1.2 1.44zm8.75-3.97c1.27 0 2.16.9 2.16 2.43 0 1.51-.87 2.57-2.21 2.57-.75 0-1.24-.32-1.52-.78l-.03.73h-1.18v-7.1h1.22v2.92c.3-.44.81-.77 1.56-.77zm-.28 3.97c.72 0 1.21-.6 1.21-1.5 0-.88-.47-1.44-1.2-1.44-.86 0-1.29.72-1.29 1.32v.29c0 .63.44 1.33 1.28 1.33zm6.51-3.92h1.24L58.9 19l-.14.37c-.46 1.22-.96 1.69-1.97 1.69-.3 0-.61-.04-.79-.1l.08-1.03c.15.06.28.1.47.1.45 0 .81-.13 1.01-.7l.08-.21-1.89-5.02h1.33l1.04 3.19c.05.15.09.32.14.55h.03c.04-.23.08-.41.13-.55l1.05-3.19z"/>
  </g>
</svg>
