<svg xmlns="http://www.w3.org/2000/svg" width="144" height="32" fill="none" xmlns:v="https://vecta.io/nano"><path d="M46.908 8.307a1.01 1.01 0 0 1 .74-.307 1.03 1.03 0 0 1 .74.307c.204.204.306.455.306.74s-.102.537-.306.74a1.01 1.01 0 0 1-.74.307c-.3 0-.536-.102-.74-.307s-.306-.455-.306-.74c0-.3.102-.537.306-.74zm1.428 3.373h-1.372v8.126h1.372V11.68zm5.485-.225a4.01 4.01 0 0 1 3 1.364V8.383h1.372v11.422H56.82v-1.14c-.78.87-1.867 1.365-3 1.365-2.27 0-4.117-1.927-4.117-4.288s1.847-4.288 4.117-4.288zm.087 7.277c1.587 0 2.883-1.34 2.883-3s-1.296-3-2.883-3-2.883 1.34-2.883 3 1.3 3 2.883 3zm5.53-3a4.29 4.29 0 0 1 4.281-4.288A4.29 4.29 0 0 1 68 15.743c0 2.36-1.924 4.288-4.28 4.288s-4.28-1.927-4.28-4.288zm4.28 3c1.587 0 2.883-1.34 2.883-3s-1.3-3-2.883-3-2.883 1.34-2.883 3 1.3 3 2.883 3zm-20.663-8.657v1.605h2.32v1.273h-2.32v6.858h-1.372v-6.853h-1.52v-1.273h1.52V10.05a1.95 1.95 0 0 1 1.944-1.947h1.75v1.252h-1.602a.72.72 0 0 0-.719.721zm-6.944 1.38c-1.2 0-2.097.486-2.617 1.4V11.68H32.12v8.126h1.373V15.58c0-.853.214-1.543.638-2.054.423-.506 1-.76 1.755-.76.622 0 1.128.204 1.5.608s.55 1.032.55 1.85v4.58H39.3v-4.84c0-1.16-.28-2.05-.837-2.632-.54-.562-1.378-.874-2.352-.874zm-13.86 4.288a4.29 4.29 0 0 1 4.281-4.288 4.29 4.29 0 0 1 4.281 4.288 4.29 4.29 0 0 1-4.281 4.288c-2.357 0-4.28-1.927-4.28-4.288zm4.286 3c1.587 0 2.883-1.34 2.883-3s-1.296-3-2.883-3-2.883 1.34-2.883 3 1.3 3 2.883 3zM12.16 15.52c0 1.472-1.2 2.666-2.66 2.666s-2.66-1.194-2.66-2.666 1.2-2.666 2.66-2.666 2.66 1.194 2.66 2.666zm-6.564 5.522l.445-.3c2.334-1.403 5.15-1.308 7.323.01.085.05.085.17.005.226l-.064.04-.366.23a14.27 14.27 0 0 1-2.529 1.198 15.37 15.37 0 0 1-1.86.536 1.95 1.95 0 0 1-1.7-.426 16.29 16.29 0 0 1-1.275-1.223c-.085-.1-.07-.23.03-.3zm7.364-10.755l.445-.3c.1-.07.115-.2.03-.3a16.44 16.44 0 0 0-1.275-1.223 1.97 1.97 0 0 0-1.7-.426 15.38 15.38 0 0 0-1.859.536 14.3 14.3 0 0 0-2.53 1.198l-.43.27c-.08.055-.08.175.005.226 2.174 1.318 5 1.413 7.323.01zM4.28 12.05a6.79 6.79 0 0 0-.29-.446h0c-.07-.1-.2-.115-.3-.03a16.45 16.45 0 0 0-1.22 1.278c-.4.47-.56 1.108-.425 1.714a15.47 15.47 0 0 0 .535 1.864 14.31 14.31 0 0 0 1.195 2.536l.27.43c.055.08.175.08.225-.005 1.315-2.18 1.4-5 .01-7.342zm10.727 7.382l-.3-.446c-1.4-2.34-1.305-5.162.01-7.342.05-.085.17-.085.225-.005l.04.064.23.367a14.34 14.34 0 0 1 1.195 2.536 13.84 13.84 0 0 1 .535 1.864c.135.606-.025 1.243-.425 1.714a16.47 16.47 0 0 1-1.22 1.278c-.1.085-.23.07-.3-.03z" fill-rule="evenodd" fill="#fff"/><path d="M89.32 17.98c-.1.03-.23.05-.4.05-.25 0-.48-.1-.66-.45l-.7-1.35c.8-.3 1.33-.96 1.33-1.94 0-1.4-.95-2.15-2.4-2.15h-2.66V19h1.22v-2.6h1.2l.8 1.53c.35.66.72 1.1 1.68 1.1.27 0 .5-.04.66-.1l-.07-.98zm-4.28-4.82h1.44c.77 0 1.17.47 1.17 1.14s-.4 1.14-1.17 1.14h-1.44v-2.28zm9.494 3.42c0-1.53-.84-2.53-2.3-2.53-1.4 0-2.42 1.03-2.42 2.5 0 1.45.9 2.5 2.4 2.5 1.43 0 2.1-.8 2.28-1.65h-1.15c-.08.3-.35.68-1.08.68-.7 0-1.17-.45-1.26-1.25h3.5v-.25zm-2.28-1.6c.6 0 1.02.34 1.12 1.1h-2.33c.13-.72.6-1.1 1.2-1.1zm7.89 2.98a.65.65 0 0 1-.25.05c-.15 0-.25-.1-.25-.3V16c0-1.22-.75-1.95-2.14-1.95-1.25 0-2.1.6-2.18 1.7h1.12c.05-.48.4-.76 1-.76.68 0 1.02.36 1.02.93v.25h-.76c-1.34 0-2.5.38-2.5 1.54 0 .8.57 1.33 1.66 1.33 1.05 0 1.48-.5 1.64-.8.14.53.53.8 1.06.8a2.57 2.57 0 0 0 .66-.09l-.08-1zm-2.96.17c-.54 0-.8-.2-.8-.55 0-.46.44-.7 1.24-.7h.82v.32c0 .42-.47.93-1.27.93zm5.468-.17c-.1.04-.16.05-.24.05-.15 0-.26-.1-.26-.3V11.9h-1.2v5.92c0 .78.4 1.23 1.12 1.23.27 0 .48-.04.67-.1l-.08-1zm3.243 1.03h1.22v-6.86h-1.22V19zm5.984-7.1v2.9c-.27-.44-.75-.74-1.5-.74-1.36 0-2.23 1.06-2.23 2.56 0 1.52.9 2.44 2.16 2.44.75 0 1.28-.34 1.57-.8l.03.74h1.18v-7.1h-1.22zm-1.3 6.12c-.73 0-1.2-.56-1.2-1.44 0-.9.5-1.5 1.2-1.5.84 0 1.28.7 1.28 1.33v.3c0 .6-.43 1.32-1.3 1.32zm8.187-1.44c0-1.53-.84-2.53-2.3-2.53-1.4 0-2.42 1.03-2.42 2.5 0 1.45.9 2.5 2.4 2.5 1.43 0 2.1-.8 2.28-1.65h-1.15c-.08.3-.35.68-1.08.68-.7 0-1.17-.45-1.26-1.25h3.5v-.25zm-2.28-1.6c.6 0 1.02.34 1.12 1.1h-2.33c.13-.72.6-1.1 1.2-1.1zm6.01-.94c-.74 0-1.25.3-1.54.76l-.04-.7h-1.17V19h1.22v-2.78c0-.67.43-1.12 1.1-1.12.62 0 .94.4.94 1.1V19h1.23v-3.08c0-1.13-.64-1.87-1.73-1.87zm5.604 3.25c0 .54-.23.76-.63.76-.4 0-.6-.24-.6-.76v-2.22h1.73v-.98h-1.73v-1.45h-1.15v1.45h-.8v1h.73v2.18c0 1.16.68 1.77 1.78 1.77 1.14 0 1.76-.64 1.76-1.74h-1.08zm3.25-4.8c0-.44-.35-.77-.8-.77s-.8.33-.8.77c0 .46.35.78.8.78s.8-.32.8-.78zm-1.42 6.5h1.22v-4.9h-1.22V19zm5.2-1.7c0 .54-.23.76-.63.76-.4 0-.6-.24-.6-.76v-2.22h1.73v-.98h-1.73v-1.45h-1.15v1.45h-.8v1h.73v2.18c0 1.16.68 1.77 1.78 1.77 1.14 0 1.76-.64 1.76-1.74h-1.08zm4.872-3.2l-1.05 3.2a3.46 3.46 0 0 0-.13.55h-.03l-.14-.55-1.04-3.2h-1.33l1.9 5.02-.08.2c-.2.57-.56.7-1 .7a1.16 1.16 0 0 1-.47-.1l-.08 1.03c.18.06.5.1.8.1 1 0 1.5-.47 1.97-1.7l.14-.37 1.8-4.9h-1.24z" fill="#fff"/><path stroke="#fff" stroke-width=".7" d="M75.35 6v19"/></svg>