<?xml version="1.0" encoding="UTF-8" standalone="no"?>
<svg width="144px" height="144px" viewBox="0 0 144 144" version="1.1" xmlns="http://www.w3.org/2000/svg" xmlns:xlink="http://www.w3.org/1999/xlink">
    <!-- Generator: Sketch 46.2 (44496) - http://www.bohemiancoding.com/sketch -->
    <title>return-to-computer-large</title>
    <desc>Created with Sketch.</desc>
    <defs>
        <rect id="path-1" x="0" y="0" width="48" height="80" rx="8"></rect>
        <circle id="path-2" cx="24" cy="69" r="5"></circle>
        <rect id="path-3" x="0" y="0" width="96" height="64" rx="8"></rect>
    </defs>
    <g id="Symbols" stroke="none" stroke-width="1" fill="none" fill-rule="evenodd">
        <g id="icons/return-to-computer">
            <g id="return-to-computer-large">
                <circle id="circle-BG" fill="#00C8A0" cx="72" cy="72" r="72"></circle>
                <g id="cross-device-large-icon" transform="translate(10.000000, 10.000000)">
                    <g id="icons/mobile/large">
                        <g id="mobile-small">
                            <g id="Rectangle-5">
                                <use fill="#FFFFFF" fill-rule="evenodd" xlink:href="#path-1"></use>
                                <rect stroke="#2C3E4F" stroke-width="4" x="2" y="2" width="44" height="76" rx="8"></rect>
                            </g>
                            <g id="Oval">
                                <use fill="#FFFFFF" fill-rule="evenodd" xlink:href="#path-2"></use>
                                <circle stroke="#283E4F" stroke-width="2" cx="24" cy="69" r="4"></circle>
                            </g>
                            <rect id="Rectangle-4-Copy-2" fill="#2C3E4F" x="15" y="8" width="18" height="2" rx="1"></rect>
                        </g>
                    </g>
                    <g id="icons/complete-tick/small" transform="translate(8.000000, 23.000000)">
                        <g id="complete-tick-small" transform="translate(4.000000, 4.000000)">
                            <circle id="Oval" fill="#00C8A0" cx="12" cy="12" r="12"></circle>
                            <path d="M16.1670887,7.51711209 L10.299503,13.743607 L8.83291133,12.1869833 C8.18475016,11.5017304 7.13387568,11.5017304 6.48612088,12.1869833 C5.83795971,12.8764661 5.83795971,13.9931744 6.48612088,14.6784272 L9.12631094,17.4828879 C9.77447211,18.1723707 10.8249402,18.1723707 11.4731014,17.4828879 L18.5138791,10.008556 C19.1620403,9.31907326 19.1620403,8.20236493 18.5138791,7.51711209 C17.8657179,6.8276293 16.8152498,6.8276293 16.1670887,7.51711209 Z" id="checkmark" fill="#FFFFFF"></path>
                        </g>
                    </g>
                    <g id="icons/desktop/large" transform="translate(32.000000, 38.000000)">
                        <g id="desktop-large">
                            <g id="Rectangle-3">
                                <use fill="#FFFFFF" fill-rule="evenodd" xlink:href="#path-3"></use>
                                <rect stroke="#2C3E4F" stroke-width="4" x="2" y="2" width="92" height="60" rx="8"></rect>
                            </g>
                            <rect id="Rectangle" fill="#2C3E4F" x="24" y="72" width="48" height="4" rx="2"></rect>
                            <path d="M25,54 L71,54 L71,54 C71.5522847,54 72,54.4477153 72,55 L72,55 L72,55 C72,55.5522847 71.5522847,56 71,56 L25,56 L25,56 C24.4477153,56 24,55.5522847 24,55 L24,55 L24,55 C24,54.4477153 24.4477153,54 25,54 Z" id="Rectangle-Copy" fill="#2C3E4F"></path>
                            <rect id="Rectangle-2" fill="#2C3E4F" x="46" y="60" width="4" height="16" rx="2"></rect>
                        </g>
                    </g>
                </g>
                <g id="Group-193" transform="translate(64.000000, 49.500000) scale(-1, 1) rotate(-60.000000) translate(-64.000000, -49.500000) translate(47.000000, 39.000000)" stroke="#2C3E4F" stroke-width="3" stroke-linecap="round" stroke-linejoin="round">
                    <path d="M2.88737273,5.80245 C9.82800909,-0.93405 21.0804636,-0.93405 28.0211,5.80245 C31.4921909,9.17145 33.2277364,13.58595 33.2277364,18.00045" id="Stroke-183"></path>
                    <polyline id="Stroke-191" points="0.82299129 2.18782217 0.82299129 8.18782217 6.82299129 8.18782217"></polyline>
                </g>
            </g>
        </g>
    </g>
</svg>