<svg xmlns="http://www.w3.org/2000/svg" width="144" height="144" fill="none">
  <path d="M120.953 30H50.476a7.05 7.05 0 0 0-7.048 7.048v42.286a7.05 7.05 0 0 0 7.048 7.048h70.477A7.05 7.05 0 0 0 128 79.333V37.048A7.05 7.05 0 0 0 120.953 30z" fill="#fff"/>
  <g fill="#2b2d33">
    <path d="M50.476 33.524a3.524 3.524 0 0 0-3.524 3.524v42.286a3.524 3.524 0 0 0 3.524 3.524h70.477a3.523 3.523 0 0 0 3.523-3.524V37.048a3.523 3.523 0 0 0-3.523-3.524H50.476zm0-3.524h70.477A7.05 7.05 0 0 1 128 37.048v42.286a7.05 7.05 0 0 1-7.047 7.048H50.476a7.05 7.05 0 0 1-7.048-7.048V37.048A7.05 7.05 0 0 1 50.476 30zm54.62 63.429H66.334a1.762 1.762 0 1 0 0 3.524h38.762a1.762 1.762 0 1 0 0-3.524z"/>
    <path fill-rule="evenodd" d="M65.453 77.572h40.524a.88.88 0 1 1 0 1.762H65.453a.88.88 0 1 1 0-1.762z"/>
    <path d="M87.476 84.619a1.76 1.76 0 1 0-3.524 0V95.19a1.76 1.76 0 1 0 3.524 0V84.619z"/>
  </g>
  <g fill="#fff" stroke="#2b2d33">
    <path d="M48.714 47.619H24.048A7.05 7.05 0 0 0 17 54.667v52.857a7.05 7.05 0 0 0 7.048 7.048h24.667a7.05 7.05 0 0 0 7.048-7.048V54.667a7.05 7.05 0 0 0-7.048-7.048z" stroke-width="3.524"/>
    <path d="M36.381 110.167a3.524 3.524 0 1 0 0-7.049 3.524 3.524 0 0 0 0 7.049z" stroke-width="1.762"/>
  </g>
  <g fill="#2b2d33">
    <path d="M43.428 52.905H29.333a.88.88 0 1 0 0 1.762h14.095a.88.88 0 1 0 0-1.762z"/>
    <path fill-rule="evenodd" d="M48 16a2.01 2.01 0 0 1 2.02-2c1.1 0 1.98.9 1.98 2s-.88 2-1.98 2A2.01 2.01 0 0 1 48 16zm8 0c0-1.1.9-2 2-2 1.12 0 2 .9 2 2s-.88 2-2 2c-1.1 0-2-.9-2-2zm8 0c0-1.1.88-2 1.98-2A2.01 2.01 0 0 1 68 16a2.01 2.01 0 0 1-2.02 2c-1.1 0-1.98-.9-1.98-2zm8 0c0-1.1.9-2 2-2 1.12 0 2 .9 2 2s-.88 2-2 2c-1.1 0-2-.9-2-2zm8 0a2.01 2.01 0 0 1 2.02-2c1.1 0 1.98.9 1.98 2s-.88 2-1.98 2A2.01 2.01 0 0 1 80 16zm8 0c0-1.1.9-2 2-2 1.12 0 2 .9 2 2s-.88 2-2 2c-1.1 0-2-.9-2-2zm-47.98.142c-.02-.04-.02-.1-.02-.16a2.034 2.034 0 0 1 1.88-1.977c1.1-.08 2.04.759 2.12 1.858v.16c0 1.039-.8 1.898-1.84 1.977h-.14c-1.06 0-1.94-.799-2-1.858zM95.398 20.2A2.07 2.07 0 0 1 95 18.999c0-.6.28-1.201.8-1.601.88-.66 2.14-.48 2.8.4.28.36.4.78.4 1.201 0 .62-.28 1.221-.8 1.601-.36.28-.78.4-1.2.4a2.03 2.03 0 0 1-1.602-.8zM35.04 21.76a2.023 2.023 0 0 1-.8-2.726 1.999 1.999 0 0 1 2.72-.782 2 2 0 0 1 .8 2.706h-.02A1.948 1.948 0 0 1 36 22c-.32 0-.66-.08-.96-.241zM97 27c0-1.1.9-2 2-2s2 .9 2 2-.9 2-2 2-2-.9-2-2zm-64 1c0-1.1.9-2 2-2s2 .9 2 2-.9 2-2 2-2-.9-2-2zm0 8c0-1.1.9-2 2-2s2 .9 2 2-.9 2-2 2-2-.9-2-2zm0 8c0-1.1.9-2 2-2s2 .9 2 2-.9 2-2 2-2-.9-2-2z"/>
  </g>
</svg>
