<?xml version="1.0" encoding="UTF-8" standalone="no"?>
<svg width="56px" height="46px" viewBox="0 0 56 46" version="1.1" xmlns="http://www.w3.org/2000/svg" xmlns:xlink="http://www.w3.org/1999/xlink">
    <!-- Generator: Sketch 46.2 (44496) - http://www.bohemiancoding.com/sketch -->
    <title>camera-icon</title>
    <desc>Created with Sketch.</desc>
    <defs></defs>
    <g id="Symbols" stroke="none" stroke-width="1" fill="none" fill-rule="evenodd">
        <g id="icons/large/camera" transform="translate(-12.000000, -17.000000)" stroke="#2A7AB0" stroke-width="4">
            <path d="M28,41 C28,34.3827032 33.3827032,29 40,29 C46.6172968,29 52,34.3827032 52,41 C52,47.6172968 46.6172968,53 40,53 C33.3827032,53 28,47.6172968 28,41 Z M48.0362152,19 L31.9637848,19 L27.5081327,23.8421053 L16.8695652,23.8421053 C15.281176,23.8421053 14,25.1160566 14,26.6842105 L14,58.1578947 C14,59.7260487 15.281176,61 16.8695652,61 L63.1304348,61 C64.718824,61 66,59.7260487 66,58.1578947 L66,26.6842105 C66,25.1160566 64.718824,23.8421053 63.1304348,23.8421053 L52.4918673,23.8421053 L48.0362152,19 Z" id="camera-icon"></path>
        </g>
    </g>
</svg>