<svg xmlns="http://www.w3.org/2000/svg" xmlns:xlink="http://www.w3.org/1999/xlink" viewBox="0 0 42 48">
  <defs>
    <circle id="b" cx="14" cy="43" r="2"/>
    <rect id="a" width="28" height="48" rx="4"/>
    <path id="c" d="M2 0h28a2 2 0 0 1 2 2v16a2 2 0 0 1-2 2H2a2 2 0 0 1-2-2V2a2 2 0 0 1 2-2z"/>
  </defs>
  <g fill="none" fill-rule="evenodd">
    <g transform="translate(14)">
      <use fill="#fff" xlink:href="#a"/>
      <rect x="1" y="1" width="26" height="46" rx="4" stroke="#2c3e4f" stroke-width="2"/>
      <rect x="9" y="4" width="10" height="1" rx=".5" fill="#2c3e4f"/>
      <use fill="#fff" xlink:href="#b"/>
      <circle cx="14" cy="43" r="1.5" stroke="#2c3e4f"/>
    </g>
    <g transform="rotate(-15 73.233 8.64)">
      <use fill="#fff" xlink:href="#c"/>
      <path d="M2 .5A1.5 1.5 0 0 0 .5 2v16A1.5 1.5 0 0 0 2 19.5h28a1.5 1.5 0 0 0 1.5-1.5V2A1.5 1.5 0 0 0 30 .5H2z" stroke="#283e4f"/>
      <g fill="#283e4f">
        <rect y="11" width="13" height="1" rx=".5" x="16"/>
        <rect x="19" y="8" width="10" height="1" rx=".5"/>
        <rect x="21" width="2" height="1" rx=".5" y="5"/>
        <rect x="24" width="2" height="1" rx=".5" y="5"/>
        <rect x="27" width="2" height="1" rx=".5" y="5"/>
      </g>
      <g stroke="#283e4f">
        <path d="M13.074 18.4c-1.188-2.369-3.08-3.8-5.103-3.8-1.949 0-3.82 1.449-5.032 3.8h10.136z" stroke-width="1.2"/>
        <path d="M8 12.5c2.346 0 4.5-2.648 4.5-5.367C12.5 4.572 10.483 2.5 8 2.5c-1.651 0-3.146.923-3.935 2.384A4.711 4.711 0 0 0 3.5 7.133C3.5 9.852 5.654 12.5 8 12.5z"/>
      </g>
    </g>
    <path fill="#283e4f" d="M14 12h2v31h-2z"/>
    <path fill="#fff" fill-opacity=".67" d="M16 10h24v27H16z"/>
    <path stroke="#fff" d="M16.5 10.5h23v26h-23z"/>
  </g>
</svg>
