<svg width="72" height="76" xmlns="http://www.w3.org/2000/svg">
  <g fill="none" fill-rule="evenodd">
    <path d="M36 .333c19.883 0 36 16.118 36 36.001 0 19.882-16.117 36-36 36-19.882 0-36-16.118-36-36 0-19.883 16.118-36 36-36" fill="#EDEEEF"/>
    <path d="M52 19.719l-6.5-6.386H21.84c-1.02 0-1.84.804-1.84 1.788v42.424c0 .988.816 1.788 1.84 1.788h28.32c1.02 0 1.84-.804 1.84-1.788V19.719z" fill="#FFF"/>
    <path d="M52 19.719l-6.5-6.386H21.84c-1.02 0-1.84.804-1.84 1.788v42.424c0 .988.816 1.788 1.84 1.788h28.32c1.02 0 1.84-.804 1.84-1.788V19.719z" stroke="#2C3E4F" stroke-width="2"/>
    <path d="M53 19.444v.89h-5.63c-1.384 0-2.37-.99-2.37-2.37v-5.63h.889M25 29.333h14a1 1 0 0 1 0 2H25a1 1 0 0 1 0-2m0 5h7a1 1 0 0 1 0 2h-7a1 1 0 0 1 0-2m0-10h16a1 1 0 0 1 0 2H25a1 1 0 0 1 0-2" fill="#2C3E4F"/>
    <path d="M57.264 68.595h6.064c3.588 0 6.498-2.871 6.498-6.41 0-3.541-2.911-6.41-6.498-6.41-.035 0-.068.008-.101.009-.627-4.351-4.41-7.702-8.994-7.702-5.024 0-9.096 4.019-9.096 8.974 0 .44.043.87.106 1.293-.038 0-.071-.011-.106-.011-2.871 0-5.198 2.296-5.198 5.128 0 2.832 2.327 5.129 5.198 5.129h12.127z" fill="#FFF"/>
    <path d="M57.266 68.595h6.063c3.588 0 6.498-2.871 6.498-6.41 0-3.541-2.911-6.41-6.498-6.41-.035 0-.067.008-.1.009-.63-4.351-4.41-7.702-8.996-7.702-5.023 0-9.094 4.019-9.094 8.974 0 .44.042.87.105 1.293-.038 0-.07-.011-.105-.011-2.871 0-5.2 2.296-5.2 5.128 0 2.832 2.328 5.129 5.2 5.129H51.2" stroke="#2C3E4F" stroke-width="2" stroke-linecap="round" stroke-linejoin="round"/>
    <path d="M56.831 64.748l-2.599-2.563m-.004 12.82v-12.82l-2.598 2.563" stroke="#2C3E4F" stroke-width="2" stroke-linecap="round" stroke-linejoin="round"/>
  </g>
</svg>
