<svg xmlns="http://www.w3.org/2000/svg" width="144" height="144" fill="none">
  <path d="M109.978 106.015a2.316 2.316 0 0 0-2.316 2.316v10.037H97.625a2.316 2.316 0 0 0 0 4.632h12.353a2.316 2.316 0 0 0 2.316-2.316v-12.353a2.316 2.316 0 0 0-2.316-2.316zm-75.662 0A2.316 2.316 0 0 0 32 108.331v12.353A2.316 2.316 0 0 0 34.316 123h12.353a2.316 2.316 0 0 0 0-4.632H36.632v-10.037a2.316 2.316 0 0 0-2.316-2.316zM97.625 18a2.316 2.316 0 0 0 0 4.632h10.037v10.037a2.316 2.316 0 0 0 4.632 0V20.322A2.317 2.317 0 0 0 109.978 18H97.625zm-63.309 0A2.316 2.316 0 0 0 32 20.316v12.353a2.316 2.316 0 0 0 4.632 0V22.632h10.037a2.316 2.316 0 0 0 0-4.632H34.316z" fill-rule="evenodd" fill="#2c3e4f"/>
  <path d="M101.485 40.466v68.246c0 1.883-1.578 3.479-3.615 3.479H46.425c-2.04 0-3.616-1.582-3.616-3.479V32.287c0-1.883 1.578-3.479 3.616-3.479h43.097l11.964 11.657z" fill="#f7f9fa" stroke="#2c3e4f" stroke-width="3.088"/>
  <g fill="#2c3e4f">
    <path fill-rule="evenodd" d="M101.485 38.846v2.316h-9.264c-2.705 0-4.632-1.937-4.632-4.632v-9.265h2.316"/>
    <rect x="50.529" y="70.5" width="17.757" height="3.088" rx="1.544"/>
    <path fill-rule="evenodd" d="M50.529 62.78c0-.853.691-1.544 1.544-1.544h27.022a1.544 1.544 0 1 1 0 3.088H52.074a1.544 1.544 0 0 1-1.544-1.544z"/>
    <rect x="50.529" y="51.971" width="37.059" height="3.088" rx="1.544"/>
  </g>
</svg>
