<svg width="144" height="144" xmlns="http://www.w3.org/2000/svg">
  <g fill="none" fill-rule="evenodd">
    <path d="M72 0c39.766 0 72 32.235 72 72s-32.234 72-72 72c-39.765 0-72-32.235-72-72S32.235 0 72 0" fill="#EDEEEF"/>
    <path d="M121 140h-16a3.001 3.001 0 0 1 0-6h13v-13a3.001 3.001 0 0 1 6 0v16c0 1.656-1.344 3-3 3zm-95-6h13a3 3 0 0 1 0 6H23a3 3 0 0 1-3-3v-16a3 3 0 0 1 6 0v13zM124 7v16a3 3 0 0 1-6 0V10h-13a3 3 0 0 1 0-6h16a3 3 0 0 1 3 3zm-98 3v13a3 3 0 1 1-6 0V7a3 3 0 0 1 3-3h16a3 3 0 1 1 0 6H26z" fill="#2C3E4F"/>
    <path d="M110 33.1L94.5 18H38.68A4.6 4.6 0 0 0 34 22.5v99c0 2.48 2.08 4.5 4.68 4.5h66.64a4.6 4.6 0 0 0 4.68-4.5V33.1z" fill="#FFF"/>
    <path d="M110 33.1L94.5 18H38.68A4.6 4.6 0 0 0 34 22.5v99c0 2.48 2.08 4.5 4.68 4.5h66.64a4.6 4.6 0 0 0 4.68-4.5V33.1z" stroke="#2C3E4F" stroke-width="4"/>
    <path d="M110 31v3H98c-3.5 0-6-2.5-6-6V16h3M46 60h35a2 2 0 0 1 0 4H46a2 2 0 0 1 0-4m0 12h19a2 2 0 0 1 0 4H46a2 2 0 0 1 0-4m0-24h44a2 2 0 0 1 0 4H46a2 2 0 0 1 0-4" fill="#2C3E4F"/>
  </g>
</svg>
