<?xml version="1.0" encoding="UTF-8" standalone="no"?>
<svg width="73px" height="67px" viewBox="0 0 73 67" version="1.1" xmlns="http://www.w3.org/2000/svg" xmlns:xlink="http://www.w3.org/1999/xlink">
    <!-- Generator: Sketch 46.2 (44496) - http://www.bohemiancoding.com/sketch -->
    <title>upload-cloud</title>
    <desc>Created with Sketch.</desc>
    <defs></defs>
    <g id="Symbols" stroke="none" stroke-width="1" fill="none" fill-rule="evenodd" stroke-linecap="round" stroke-linejoin="round">
        <g id="icons/large/upload" transform="translate(-4.000000, -6.000000)" stroke="#2A7AB0" stroke-width="4">
            <g id="upload-cloud" transform="translate(6.000000, 8.000000)">
                <path d="M40,48 L54,48 C62.283,48 69,41.283 69,33 C69,24.717 62.283,18 54,18 C53.919,18 53.844,18.021 53.766,18.024 C52.317,7.839 43.584,0 33,0 C21.402,0 12,9.402 12,21 C12,22.029 12.099,23.034 12.243,24.024 C12.159,24.024 12.084,24 12,24 C5.373,24 0,29.373 0,36 C0,42.627 5.373,48 12,48 L26,48" id="cloud"></path>
                <g id="arrow" transform="translate(27.000000, 33.000000)">
                    <polyline id="Stroke-135" points="6 30 6 0 0 6"></polyline>
                    <path d="M12,6 L6,0" id="Stroke-137"></path>
                </g>
            </g>
        </g>
    </g>
</svg>