<svg width="62" height="56" viewBox="0 0 62 56" xmlns="http://www.w3.org/2000/svg">
  <title>
    upload
  </title>
  <path d="M61.225 29.61c0 3.837-1.473 7.595-4.108 10.434-2.557 2.838-6.2 4.603-10.075 4.91h-9.455c-.852.153-1.627-.384-1.86-1.15-.154-.845.388-1.612 1.163-1.842.233-.077.465-.077.62 0h9.378c6.2-.46 11.237-5.984 11.237-12.274 0-5.907-4.185-11.047-10.075-12.198-.697-.153-1.162-.69-1.24-1.304-.775-7.978-7.983-13.808-15.965-13.04-5.115.46-9.61 3.605-11.78 8.207-.31.69-1.163.998-1.938.768-.697-.23-1.472-.383-2.247-.383-3.643 0-6.51 2.915-6.51 6.444 0 .768.155 1.535.388 2.225.232.69 0 1.458-.62 1.842-3.178 1.84-5.115 5.216-5.115 8.82 0 5.6 4.495 10.588 9.764 10.895h10.85c.853.23 1.318.997 1.163 1.84-.155.538-.543.998-1.163 1.15H12.632c-3.487-.23-6.742-1.84-8.99-4.448C1.317 37.82 0 34.52 0 31.068c0-4.295 2.092-8.284 5.58-10.74-1.162-5.14 2.015-10.202 7.207-11.353 1.318-.307 2.79-.307 4.108 0C21.778.46 32.55-2.455 40.998 2.225c4.65 2.608 7.905 7.21 8.757 12.427 6.82 1.84 11.547 7.978 11.47 14.96zm-22.63 2.916c.465.69 1.395.92 2.17.46.697-.46.93-1.38.465-2.148-.077-.153-.232-.306-.465-.46l-9.067-8.975c-.62-.537-1.55-.537-2.17 0l-9.068 8.975c-.465.69-.31 1.688.465 2.148.543.307 1.162.307 1.705 0l6.433-6.444v28.46c.155.844 1.007 1.38 1.86 1.15.62-.152 1.085-.613 1.162-1.15v-28.46l6.51 6.444z" fill-rule="nonzero" fill="#2A7AB0"/>
</svg>
