<svg xmlns="http://www.w3.org/2000/svg" width="67" height="32" fill="#636670" fill-rule="evenodd" xmlns:v="https://vecta.io/nano"><path d="M44.908 8.307a1.01 1.01 0 0 1 .74-.307 1.03 1.03 0 0 1 .74.307c.204.204.306.455.306.74s-.102.537-.306.74a1.01 1.01 0 0 1-.74.307c-.3 0-.536-.102-.74-.307s-.306-.455-.306-.74.102-.537.306-.74zm1.428 3.373h-1.372v8.126h1.372V11.68zm5.485-.225a4.01 4.01 0 0 1 3 1.364V8.383h1.372v11.422H54.82v-1.14c-.78.87-1.867 1.365-3 1.365-2.27 0-4.117-1.927-4.117-4.288s1.847-4.288 4.117-4.288zm.087 7.277c1.587 0 2.883-1.34 2.883-3s-1.296-3-2.883-3-2.883 1.34-2.883 3 1.3 3 2.883 3zm5.53-3a4.29 4.29 0 0 1 4.281-4.288A4.29 4.29 0 0 1 66 15.743c0 2.36-1.924 4.288-4.28 4.288s-4.28-1.927-4.28-4.288zm4.28 3c1.587 0 2.883-1.34 2.883-3s-1.3-3-2.883-3-2.883 1.34-2.883 3 1.3 3 2.883 3zm-20.663-8.657v1.605h2.32v1.273h-2.32v6.858h-1.372v-6.853h-1.52v-1.273h1.52V10.05a1.95 1.95 0 0 1 1.944-1.947h1.75v1.252h-1.602a.72.72 0 0 0-.719.721zm-6.944 1.38c-1.2 0-2.097.486-2.617 1.4V11.68H30.12v8.126h1.373V15.58c0-.853.214-1.543.638-2.054.423-.506 1-.76 1.755-.76.622 0 1.128.204 1.5.608s.55 1.032.55 1.85v4.58H37.3v-4.84c0-1.16-.28-2.05-.837-2.632-.54-.562-1.378-.874-2.352-.874zm-13.86 4.288a4.29 4.29 0 0 1 4.281-4.288 4.29 4.29 0 0 1 4.281 4.288 4.29 4.29 0 0 1-4.281 4.288c-2.357 0-4.28-1.927-4.28-4.288zm4.286 3c1.587 0 2.883-1.34 2.883-3s-1.296-3-2.883-3-2.883 1.34-2.883 3 1.3 3 2.883 3zM10.16 15.52c0 1.473-1.2 2.666-2.66 2.666s-2.66-1.194-2.66-2.666 1.2-2.666 2.66-2.666 2.66 1.194 2.66 2.666zm-6.564 5.52l.445-.3c2.334-1.403 5.15-1.308 7.323.01.085.05.085.17.005.226l-.064.04-.366.23a14.26 14.26 0 0 1-2.529 1.198 15.37 15.37 0 0 1-1.859.536 1.95 1.95 0 0 1-1.7-.426 16.29 16.29 0 0 1-1.275-1.223c-.085-.1-.07-.23.03-.3zm7.364-10.753l.445-.3c.1-.07.115-.2.03-.3a16.44 16.44 0 0 0-1.275-1.223 1.97 1.97 0 0 0-1.7-.426c-.645.145-1.265.32-1.86.536a14.3 14.3 0 0 0-2.53 1.198l-.43.27c-.08.055-.08.175.005.226 2.174 1.318 5 1.413 7.323.01zM2.28 12.05a6.79 6.79 0 0 0-.29-.446h0c-.07-.1-.2-.115-.3-.03-.42.396-.83.822-1.22 1.278-.4.47-.56 1.108-.425 1.714A15.47 15.47 0 0 0 .58 16.43a14.31 14.31 0 0 0 1.195 2.536l.27.43c.055.08.175.08.225-.005 1.315-2.18 1.4-5 .01-7.342zm10.727 7.382l-.3-.446c-1.4-2.34-1.305-5.162.01-7.342.05-.085.17-.085.225-.005l.04.064.23.367a14.34 14.34 0 0 1 1.195 2.536 13.84 13.84 0 0 1 .535 1.864c.135.606-.025 1.243-.425 1.714a16.47 16.47 0 0 1-1.22 1.278c-.1.085-.23.07-.3-.03z"/></svg>