<svg width="200" height="100" fill="none" xmlns="http://www.w3.org/2000/svg">
  <rect width="200" height="100" rx="50" fill="#A2A8B3"/>
  <path d="M35.925 53.384c-1.792 0-3.136-1.424-3.152-3.872 0-2.4 1.376-3.888 3.152-3.888 1.84 0 2.688 1.088 2.88 2.416h1.936c-.24-2.368-1.792-4.128-4.864-4.128-2.928 0-5.072 2.224-5.072 5.6 0 3.424 2.112 5.584 5.072 5.584 3.12 0 4.608-1.76 4.864-4.096h-1.936c-.192 1.312-.992 2.384-2.88 2.384zm11.476 1.712c3.088 0 5.424-2.16 5.424-5.616 0-3.456-2.336-5.568-5.424-5.568-3.088 0-5.424 2.176-5.424 5.632 0 3.456 2.336 5.552 5.424 5.552zm0-1.696c-1.904 0-3.44-1.456-3.44-3.888 0-2.448 1.536-3.888 3.44-3.888s3.44 1.44 3.44 3.888c0 2.432-1.536 3.888-3.44 3.888zm15.787-9.376-2.816 8.656-2.832-8.656h-2.752L54.804 55h1.888v-8.864L59.636 55h1.456l2.944-8.864V55h1.888l.016-10.976h-2.752zm9.766 0H68.57V55h1.952v-4.176h2.432c2.32 0 3.84-1.248 3.84-3.424 0-2.192-1.52-3.376-3.84-3.376zm0 5.168h-2.432v-3.536h2.432c1.216 0 1.856.752 1.856 1.76 0 1.024-.64 1.776-1.856 1.776zM84.829 55h1.968l-3.968-10.976h-2.272L76.589 55h1.968l.848-2.496h4.576L84.829 55zm-4.864-4.096 1.728-5.056 1.728 5.056h-3.456zm15.397-6.88v8.032l-5.248-8.032h-1.872V55h1.92v-8l5.248 8h1.872V44.024h-1.92zm12.984 0h-2.096l-2.736 4.912-2.736-4.912h-2.112l3.856 6.672V55h1.968v-4.304l3.856-6.672zm.964 2.64v.992c1.296.048 2.432-1.376 2.432-3.024 0-1.232-.64-1.664-1.328-1.664-.72 0-1.264.464-1.264 1.232 0 .688.448 1.216 1.184 1.216.112 0 .16-.016.208-.016 0 .656-.656 1.264-1.232 1.264zm5.763.304c0-.896.656-1.408 2.096-1.408 1.328 0 2.112.528 2.112 1.648h1.952c0-2.064-1.536-3.296-4.032-3.296-2.448 0-4.096 1.248-4.08 3.104 0 4.368 6.32 2.32 6.32 5.008 0 .912-.816 1.424-2.224 1.424-1.568 0-2.4-.608-2.4-1.68l-1.952-.016c0 2.144 1.584 3.344 4.256 3.344 2.544 0 4.272-1.2 4.272-3.072 0-4.528-6.32-2.48-6.32-5.056zm13.699 6.32v-9.264h-1.952V55h7.472v-1.712h-5.52zm11.176 1.808c3.088 0 5.424-2.16 5.424-5.616 0-3.456-2.336-5.568-5.424-5.568-3.088 0-5.424 2.176-5.424 5.632 0 3.456 2.336 5.552 5.424 5.552zm0-1.696c-1.904 0-3.44-1.456-3.44-3.888 0-2.448 1.536-3.888 3.44-3.888s3.44 1.44 3.44 3.888c0 2.432-1.536 3.888-3.44 3.888zm12.123-4.144v1.536h2.976c-.144 1.312-1.216 2.608-3.152 2.592-1.904.016-3.2-1.424-3.2-3.888 0-2.368 1.328-3.872 3.328-3.872 1.792 0 2.576 1.04 2.768 2.16h1.952c-.224-2.192-1.808-3.872-4.72-3.872-3.216 0-5.296 2.256-5.296 5.568 0 3.44 2.016 5.616 5.072 5.616 1.776 0 2.928-.752 3.6-1.824V55h1.424v-5.744h-4.752zm11.72 5.84c3.088 0 5.424-2.16 5.424-5.616 0-3.456-2.336-5.568-5.424-5.568-3.088 0-5.424 2.176-5.424 5.632 0 3.456 2.336 5.552 5.424 5.552zm0-1.696c-1.904 0-3.44-1.456-3.44-3.888 0-2.448 1.536-3.888 3.44-3.888s3.44 1.44 3.44 3.888c0 2.432-1.536 3.888-3.44 3.888z" fill="#fff"/>
</svg>
